<svg xmlns="http://www.w3.org/2000/svg" xmlns:xlink="http://www.w3.org/1999/xlink" width="108.123" height="118.485" viewBox="0 0 108.123 118.485"><defs><style>.a{fill:#73b61c;}.a,.c,.d{fill-rule:evenodd;}.b{fill:url(#a);}.c{fill:#008533;}.d{fill:#006ab3;}</style><linearGradient id="a" x2="0" y2="1" gradientUnits="objectBoundingBox"><stop offset="0" stop-color="#006ab3"/><stop offset="1" stop-color="#5bc3cd"/></linearGradient></defs><g transform="translate(-104.017 -208.77)"><path class="a" d="M251.686,499.95c2.552-.873,8.367-3.508,8.924-4.353-8.71-.13-16.793-6.323-23.094-11.964-9.025-7.957-19.084-16.086-31.524-8.545l-1.044.75.1,0,.066,0h.031l.1.005.1.005h0l.1.005.1.006.028,0,.069,0,.1.006.059,0,.039,0,.1.006.089.006h.009l.1.007.1.007h.021l.076.006.1.007.051,0,.046,0,.1.008.081.007.016,0,.1.008.1.009h.014l.083.008.1.009.044,0,.054.005.1.01.074.008.023,0,.1.01.1.011h.007l.091.01.1.012.037,0,.061.007.1.012.067.009.031,0,.1.013.1.013h0l.224.032.068.01.1.015.06.009.038.006.1.015.09.015h.008l.2.033.022,0,.173.031.052.01.045.009.1.019.082.016.016,0,.195.04.015,0,.083.017.1.021.045.01.053.012.172.04.023.005.1.023.1.023.007,0,.187.047.037.01.06.016.1.026.068.018.03.008.194.054c2.824.412,9.165,3.235,14.494,6.186a42.532,42.532,0,0,1,7.647,5.073,5.181,5.181,0,0,1,1.276,1.61c1.106,2.453-2.3,2.945-3.937,2.884a14.241,14.241,0,0,1-1.945-.233c-1.916-.362-3.2-1.42-4.871-2.356-1.9-1.518-14.556-6.12-9.917-.759,6.749,7.8,15.171,9.667,25.215,9.5,1.93-.033,3.976-.284,5.906-.476a11.849,11.849,0,0,1,3.787.052,6.888,6.888,0,0,1,1.656.44c.9.417,1.229.862,1.188,1.3Z" transform="translate(-72.75 -189.798)"/><path class="b" d="M236.261,301.872c.157-4.305,5.195-7.305,4.6-12.326a18.946,18.946,0,0,0-1.29-4.4l-1.094,1.8a34.329,34.329,0,0,1-2.533,3.213c-2.231,2.543-4.078,4.668-4.814,8.014a8.938,8.938,0,0,0,1.983,6.9,7.887,7.887,0,0,0,2.468,2.07,6.848,6.848,0,0,0,3.76.768,9.414,9.414,0,0,0,3.544-1.034l-.85.137C238.733,307.213,236.162,305.252,236.261,301.872Zm8.979-7.117c2.22,3.395,2.447,8.978-.8,11.787a8.109,8.109,0,0,1-2.486,1.506c-4.343,1.743-8.928-.507-10.787-4.972a13.329,13.329,0,0,1-.812-2.685,8.01,8.01,0,0,1-.206-1.566,12.415,12.415,0,0,0,.178,7.446c1.688,4.652,5.942,7.008,10.9,6.337a9.893,9.893,0,0,0,8.846-8.619,13.063,13.063,0,0,0-1.362-7.169,29.942,29.942,0,0,0-3.36-5.338c-.6-.807-1.287-1.683-1.957-2.427-.345-.383-1.776-2.132-2.077-2.317a10.263,10.263,0,0,1-.947,8.7c-1.553,2.442-4.843,6.173-2.347,9.115,2.3,2.714,9.024,1.864,8.057-6.007a16.109,16.109,0,0,0-.545-2.8Z" transform="translate(-90.567 -55.054)"/><path class="c" d="M184.873,441.139c1.646-1.123,2.044-1.839,4.933-3.668a28.125,28.125,0,0,1,5.842-2.812c10.983-3.7,20.125,1.387,27.059,9.407.363.42.629.645,1.016,1.067.413.451.541.694,1.039,1.2l2.025,2.3c2.071,2.432,5.182,5.506,7.492,7.709.411.392.729.614,1.21,1.031a26.616,26.616,0,0,0,11.295,5.981c1.487.347,2.015-.215,3.145-.967A46.605,46.605,0,0,0,265.607,443.4c-1.491.252-4.118,2.324-11.489,2.158-7.679-.172-14.83-3.014-21.187-6.594-3.063-1.724-5.526-3.715-8.565-5.36-6.311-3.416-14.255-5.737-22.873-3.654a29.114,29.114,0,0,0-9.7,4.22c-2.214,1.495-5.776,4.586-6.916,6.967Z" transform="translate(-58.28 -158.855)"/><path class="c" d="M115.82,519.12l3.528,4.4-1.415,1.135-.319-.4a5.066,5.066,0,0,0,.412-.62,1.4,1.4,0,0,0,.16-.434.745.745,0,0,0-.017-.328,1.246,1.246,0,0,0-.225-.371l-.414-.516-4.16,3.339a2.732,2.732,0,0,0-.36.333.806.806,0,0,0-.162.262.5.5,0,0,0-.011.253,1.8,1.8,0,0,0,.145.365l-.2.16-1.49-1.857.2-.16a2.326,2.326,0,0,0,.235.167.635.635,0,0,0,.2.089.48.48,0,0,0,.2,0,.932.932,0,0,0,.249-.1,2.889,2.889,0,0,0,.387-.274l4.16-3.339-.411-.512a1.5,1.5,0,0,0-.289-.286.651.651,0,0,0-.337-.108,1.436,1.436,0,0,0-.483.071,4.937,4.937,0,0,0-.672.268l-.323-.4,1.414-1.135Zm-.574,10.581a2.105,2.105,0,0,1-.687-1.635,2.759,2.759,0,0,1,.967-1.719,3.2,3.2,0,0,1,1.254-.792,2,2,0,0,1,1.206-.02,2.408,2.408,0,0,1,1.031.654,2.138,2.138,0,0,1,.7,1.667,2.723,2.723,0,0,1-.945,1.7,3.354,3.354,0,0,1-1.251.806,1.96,1.96,0,0,1-1.2.029A2.5,2.5,0,0,1,115.246,529.7Zm1.04-2.722a3.265,3.265,0,0,0-.953,1.39,1.078,1.078,0,0,0,.264,1.1,1.014,1.014,0,0,0,.534.311,1.289,1.289,0,0,0,.6-.028,2.246,2.246,0,0,0,.632-.3,4.344,4.344,0,0,0,.616-.5,4.076,4.076,0,0,0,.8-1A1.572,1.572,0,0,0,119,527.1a1.031,1.031,0,0,0-.292-.645,1.07,1.07,0,0,0-1.064-.319A3,3,0,0,0,116.287,526.979Zm6.6,4.652-3.624,2.022-.541-.481,1.634-3.72a3.707,3.707,0,0,0,.2-.53.73.73,0,0,0,.024-.283.748.748,0,0,0-.135-.292l.17-.191,1.538,1.367-.17.191a.87.87,0,0,0-.414-.15.4.4,0,0,0-.282.156,1.473,1.473,0,0,0-.172.242c-.054.09-.108.2-.168.329l-1.153,2.529,3.68-2.125.549.488-1.83,3.769,2.378-1.295c.123-.067.238-.134.339-.2a1.315,1.315,0,0,0,.259-.219.466.466,0,0,0,.138-.332.762.762,0,0,0-.182-.4l.17-.191,1.36,1.208-.17.191a.981.981,0,0,0-.213-.09.585.585,0,0,0-.184-.009,1.244,1.244,0,0,0-.273.071,4.86,4.86,0,0,0-.487.224l-3.674,1.866-.525-.467,1.758-3.68Zm3.7,6.856-.051-.063a3.182,3.182,0,0,1-1.075.039,1.911,1.911,0,0,1-.8-.334,1.512,1.512,0,0,1-.479-.532,1.093,1.093,0,0,1-.127-.621,1.268,1.268,0,0,1,.243-.618,1.284,1.284,0,0,1,1.3-.517,5.322,5.322,0,0,1,2.118.92l.2-.277a2.775,2.775,0,0,0,.41-.755.838.838,0,0,0,0-.563,1.083,1.083,0,0,0-.4-.467.967.967,0,0,0-.656-.207,1.289,1.289,0,0,0-.676.306l-.555-.4.393-.552a7.343,7.343,0,0,1,.9.171,4.721,4.721,0,0,1,.654.231,3.3,3.3,0,0,1,.593.336,1.769,1.769,0,0,1,.578.616,1.04,1.04,0,0,1,.091.681,2.578,2.578,0,0,1-.467.923l-1.053,1.475q-.225.315-.312.446a1.8,1.8,0,0,0-.147.258.627.627,0,0,0-.062.22.412.412,0,0,0,.045.2,1.484,1.484,0,0,0,.2.289l-.149.208-1.162-.83.455-.591Zm.875-1.379a3.686,3.686,0,0,0-1.453-.692.875.875,0,0,0-.9.36.807.807,0,0,0-.174.452.611.611,0,0,0,.109.368,1.258,1.258,0,0,0,.313.3,1.225,1.225,0,0,0,.623.233,1.275,1.275,0,0,0,.622-.094,1,1,0,0,0,.438-.334l.427-.6Zm3.933.538.052.053a3.973,3.973,0,0,1,.745-.171,1.939,1.939,0,0,1,.611.029,1.779,1.779,0,0,1,.6.259,4.208,4.208,0,0,1,.441.325l-.654,1-.493-.321a1.21,1.21,0,0,0,0-.488.548.548,0,0,0-.252-.317.723.723,0,0,0-.373-.111,1.412,1.412,0,0,0-.472.07,1.38,1.38,0,0,0-.411.2,1.3,1.3,0,0,0-.291.326l-1,1.529a2.434,2.434,0,0,0-.307.579.452.452,0,0,0,.016.324,1.135,1.135,0,0,0,.263.326l-.14.214-1.76-1.146.14-.215a1.623,1.623,0,0,0,.3.065.468.468,0,0,0,.194-.028.606.606,0,0,0,.219-.163,3.2,3.2,0,0,0,.32-.432l1.239-1.9c.121-.186.216-.339.284-.456a.826.826,0,0,0,.117-.313.394.394,0,0,0-.06-.256,1.491,1.491,0,0,0-.248-.284l.147-.226,1.05.622.265.173-.544.732Zm5.866,1.464c.149-.3.251-.507.305-.627a1.7,1.7,0,0,0,.114-.319.585.585,0,0,0,.013-.236.427.427,0,0,0-.089-.184,1.7,1.7,0,0,0-.285-.249l.121-.241,1.15.519.275.138-2.707,5.39c-.122.243-.2.417-.248.526a.778.778,0,0,0-.063.281.4.4,0,0,0,.07.224,1.5,1.5,0,0,0,.3.286l-.121.241-1.121-.505-.28-.141.439-.735-.06-.054a4.244,4.244,0,0,1-.746.213,2.26,2.26,0,0,1-.585.016,1.628,1.628,0,0,1-.57-.169,1.526,1.526,0,0,1-.888-1.172,3.205,3.205,0,0,1,.427-1.88,3.169,3.169,0,0,1,.921-1.161,2.059,2.059,0,0,1,1.127-.429,2.3,2.3,0,0,1,1.162.257,3.385,3.385,0,0,1,.535.33,3.031,3.031,0,0,1,.436.42Zm-1.155,2.3a4.525,4.525,0,0,0,.26-.6,1.274,1.274,0,0,0,.075-.422.841.841,0,0,0-.081-.355.98.98,0,0,0-.211-.293,1.505,1.505,0,0,0-.352-.235,1.138,1.138,0,0,0-1.147.021,2.8,2.8,0,0,0-1,1.214,3.208,3.208,0,0,0-.425,1.488.93.93,0,0,0,.543.856,1.545,1.545,0,0,0,.357.136,1.163,1.163,0,0,0,.321.022,1.594,1.594,0,0,0,.371-.078,1.346,1.346,0,0,0,.322-.149.958.958,0,0,0,.224-.208,1.876,1.876,0,0,0,.22-.355Zm5.455,1.547-.463-.188a1.553,1.553,0,0,0-.068-.559.857.857,0,0,0-.233-.367,1.377,1.377,0,0,0-.421-.249,1.038,1.038,0,0,0-.69-.068.645.645,0,0,0-.429.4.73.73,0,0,0-.057.4,1,1,0,0,0,.176.386,5.2,5.2,0,0,0,.546.608,5.356,5.356,0,0,1,.6.7,1.51,1.51,0,0,1,.253.585,1.1,1.1,0,0,1-.077.627,1.54,1.54,0,0,1-.39.59,1.211,1.211,0,0,1-.537.276,1.681,1.681,0,0,1-.66.01,3.6,3.6,0,0,1-.741-.216,5.3,5.3,0,0,1-.762-.379,7.83,7.83,0,0,1-.682-.458l.408-1.009.475.192a1.318,1.318,0,0,0,.125.8,1.2,1.2,0,0,0,.625.485,1.689,1.689,0,0,0,.354.1.923.923,0,0,0,.345,0,.639.639,0,0,0,.3-.145.954.954,0,0,0,.29-.77,1.011,1.011,0,0,0-.186-.4,5.986,5.986,0,0,0-.576-.636,4.82,4.82,0,0,1-.56-.641,1.52,1.52,0,0,1-.252-.581,1.1,1.1,0,0,1,.074-.62,1.216,1.216,0,0,1,.493-.6,1.454,1.454,0,0,1,.8-.2,2.9,2.9,0,0,1,1.014.23c.213.086.412.18.6.28s.421.244.7.426l-.4.986Zm4.881,4.837-.07-.041a3.18,3.18,0,0,1-.991.417,1.908,1.908,0,0,1-.868-.028,1.512,1.512,0,0,1-.636-.328,1.1,1.1,0,0,1-.339-.536,1.267,1.267,0,0,1,.008-.664,1.285,1.285,0,0,1,1.028-.942,5.318,5.318,0,0,1,2.306.11l.087-.328a2.791,2.791,0,0,0,.116-.852.84.84,0,0,0-.2-.527,1.079,1.079,0,0,0-.542-.294.966.966,0,0,0-.687.039,1.289,1.289,0,0,0-.523.526l-.66-.174.173-.655a7.28,7.28,0,0,1,.9-.159,4.707,4.707,0,0,1,.694-.016,3.289,3.289,0,0,1,.673.1,1.771,1.771,0,0,1,.759.371,1.04,1.04,0,0,1,.326.6,2.576,2.576,0,0,1-.11,1.028l-.462,1.752q-.1.374-.134.527a1.831,1.831,0,0,0-.046.293.624.624,0,0,0,.021.228.409.409,0,0,0,.114.174,1.473,1.473,0,0,0,.29.2l-.065.248-1.38-.364Zm.33-1.6a3.688,3.688,0,0,0-1.6-.133.875.875,0,0,0-.717.657.809.809,0,0,0,0,.485.611.611,0,0,0,.232.306,1.248,1.248,0,0,0,.4.174,1.224,1.224,0,0,0,.665,0,1.272,1.272,0,0,0,.548-.307,1,1,0,0,0,.291-.468l.187-.71Zm8.933,4.272-.419.034-.3-.47a2.663,2.663,0,0,1-.753.173,3.307,3.307,0,0,1-.852-.056,2.312,2.312,0,0,1-1.786-1.25,4.5,4.5,0,0,1-.166-2.763,4.834,4.834,0,0,1,.713-1.848,2.752,2.752,0,0,1,2.924-1.229,7.557,7.557,0,0,1,.906.224,8.182,8.182,0,0,1,.944.369l-.261,1.407-.507-.094a2.4,2.4,0,0,0-.2-.779,1.075,1.075,0,0,0-.384-.453,1.769,1.769,0,0,0-.647-.234,1.483,1.483,0,0,0-1.046.177,2.351,2.351,0,0,0-.848.936,5.444,5.444,0,0,0-.547,1.644,6.641,6.641,0,0,0-.121,1.754,2.282,2.282,0,0,0,.389,1.182,1.382,1.382,0,0,0,.891.538,1.321,1.321,0,0,0,.944-.1,1.052,1.052,0,0,0,.442-.757l.057-.308a3.2,3.2,0,0,0,.075-.675.606.606,0,0,0-.113-.348.962.962,0,0,0-.37-.26l.047-.252,2.068.383-.047.252a.8.8,0,0,0-.3.091.5.5,0,0,0-.176.17,1.071,1.071,0,0,0-.122.278c-.031.111-.069.275-.108.486Zm3.129-3.951.072.021a3.945,3.945,0,0,1,.572-.507,1.945,1.945,0,0,1,.55-.268,1.785,1.785,0,0,1,.65-.061,4.289,4.289,0,0,1,.544.073l-.091,1.2-.587-.045a1.21,1.21,0,0,0-.235-.428.549.549,0,0,0-.373-.157.723.723,0,0,0-.381.082,1.408,1.408,0,0,0-.38.288,1.384,1.384,0,0,0-.266.372,1.3,1.3,0,0,0-.1.426l-.139,1.819a2.425,2.425,0,0,0,.009.655.452.452,0,0,0,.17.277,1.134,1.134,0,0,0,.387.16l-.019.255-2.094-.159.019-.255a1.6,1.6,0,0,0,.292-.087.463.463,0,0,0,.157-.118.61.61,0,0,0,.113-.248,3.234,3.234,0,0,0,.073-.533l.173-2.264c.017-.222.027-.4.03-.536a.828.828,0,0,0-.048-.33.393.393,0,0,0-.176-.2,1.488,1.488,0,0,0-.354-.13l.021-.269,1.22.041.316.024-.126.9Zm6.722,3.531a4.552,4.552,0,0,1-.63.526,2.351,2.351,0,0,1-.622.288,2.3,2.3,0,0,1-.74.087,2.009,2.009,0,0,1-1.6-.7,2.862,2.862,0,0,1-.481-1.916,3.19,3.19,0,0,1,.324-1.359,2.114,2.114,0,0,1,.826-.89,2.4,2.4,0,0,1,2.088-.085,1.52,1.52,0,0,1,.576.475,2.144,2.144,0,0,1,.318.742,4.8,4.8,0,0,1,.1,1.152l-3.28-.112,0,.092a3.324,3.324,0,0,0,.1,1.039,1.3,1.3,0,0,0,.429.671,1.331,1.331,0,0,0,.813.265,1.786,1.786,0,0,0,.773-.132,2.271,2.271,0,0,0,.7-.5l.307.351Zm-.8-2.145a4.011,4.011,0,0,0-.109-.923,1.153,1.153,0,0,0-.31-.557.833.833,0,0,0-.566-.21,1.013,1.013,0,0,0-.871.4,2.3,2.3,0,0,0-.419,1.211Zm5.9,1.675a4.54,4.54,0,0,1-.568.592,2.355,2.355,0,0,1-.586.355,2.293,2.293,0,0,1-.726.168,2.009,2.009,0,0,1-1.664-.519,2.864,2.864,0,0,1-.689-1.852,3.193,3.193,0,0,1,.173-1.386,2.115,2.115,0,0,1,.723-.975,2.4,2.4,0,0,1,2.066-.315,1.518,1.518,0,0,1,.625.409,2.144,2.144,0,0,1,.4.7,4.813,4.813,0,0,1,.225,1.135l-3.273.249.007.092a3.329,3.329,0,0,0,.217,1.021,1.3,1.3,0,0,0,.5.62,1.331,1.331,0,0,0,.837.173,1.783,1.783,0,0,0,.754-.216,2.282,2.282,0,0,0,.638-.569Zm-1.033-2.043a4.009,4.009,0,0,0-.21-.906,1.149,1.149,0,0,0-.369-.519.832.832,0,0,0-.585-.146,1.011,1.011,0,0,0-.822.494,2.3,2.3,0,0,0-.283,1.25Zm7.139,1.965-2.018.379-.047-.252a1.639,1.639,0,0,0,.267-.161.423.423,0,0,0,.123-.155.706.706,0,0,0,.045-.271,3.187,3.187,0,0,0-.065-.527l-.252-1.34q-.068-.359-.143-.646a2.858,2.858,0,0,0-.158-.466,1.028,1.028,0,0,0-.174-.27.749.749,0,0,0-.437-.226.994.994,0,0,0-.332.017.948.948,0,0,0-.364.15,1.621,1.621,0,0,0-.342.348,1.424,1.424,0,0,0-.24.443.954.954,0,0,0-.016.454l.359,1.91a3.055,3.055,0,0,0,.157.6.459.459,0,0,0,.2.231,1.075,1.075,0,0,0,.407.085l.047.252-2.008.377-.047-.252a1.6,1.6,0,0,0,.265-.16.46.46,0,0,0,.119-.154.693.693,0,0,0,.045-.269,3.169,3.169,0,0,0-.066-.534l-.419-2.231c-.041-.219-.078-.394-.11-.526a.828.828,0,0,0-.132-.306.393.393,0,0,0-.221-.143,1.477,1.477,0,0,0-.376-.035l-.051-.271,1.19-.271.311-.058.1.844.076.008a5.04,5.04,0,0,1,.509-.662,2.105,2.105,0,0,1,.424-.342,1.425,1.425,0,0,1,.486-.186,1.811,1.811,0,0,1,.507-.028,1.121,1.121,0,0,1,.421.125,1.1,1.1,0,0,1,.336.279,1.684,1.684,0,0,1,.25.444,3.908,3.908,0,0,1,.186.691l.363,1.931a4.992,4.992,0,0,0,.115.509.692.692,0,0,0,.118.231.446.446,0,0,0,.176.119,1.51,1.51,0,0,0,.362.06Zm4.714-2a4.514,4.514,0,0,1-.473.671,2.356,2.356,0,0,1-.526.439,2.294,2.294,0,0,1-.692.275,2.011,2.011,0,0,1-1.723-.263,2.865,2.865,0,0,1-.959-1.728,3.192,3.192,0,0,1-.038-1.4,2.116,2.116,0,0,1,.568-1.072,2.4,2.4,0,0,1,2-.621,1.522,1.522,0,0,1,.679.31,2.146,2.146,0,0,1,.5.635,4.8,4.8,0,0,1,.393,1.088l-3.2.738.021.09a3.338,3.338,0,0,0,.368.977,1.3,1.3,0,0,0,.588.538,1.329,1.329,0,0,0,.854.046,1.785,1.785,0,0,0,.713-.327,2.284,2.284,0,0,0,.545-.659Zm-1.328-1.865a4.031,4.031,0,0,0-.344-.864,1.155,1.155,0,0,0-.443-.458.835.835,0,0,0-.6-.057,1.013,1.013,0,0,0-.738.612,2.305,2.305,0,0,0-.092,1.278Zm2.572-1.96.074-.008a3.959,3.959,0,0,1,.334-.688,1.95,1.95,0,0,1,.405-.458,1.786,1.786,0,0,1,.577-.305,4.315,4.315,0,0,1,.53-.14l.373,1.139-.56.184a1.2,1.2,0,0,0-.381-.306.546.546,0,0,0-.4,0,.723.723,0,0,0-.32.221,1.412,1.412,0,0,0-.241.412,1.385,1.385,0,0,0-.1.445,1.3,1.3,0,0,0,.072.431l.568,1.733a2.422,2.422,0,0,0,.259.6.451.451,0,0,0,.263.191,1.133,1.133,0,0,0,.419,0l.08.243-2,.654-.08-.243a1.611,1.611,0,0,0,.236-.192.464.464,0,0,0,.1-.169.611.611,0,0,0,.01-.273,3.229,3.229,0,0,0-.137-.52l-.707-2.158c-.069-.211-.129-.381-.177-.507a.827.827,0,0,0-.17-.287.393.393,0,0,0-.237-.113,1.471,1.471,0,0,0-.377.015l-.084-.257,1.143-.429.3-.1Zm10.833-1.466q.125.275.2.4a.939.939,0,0,0,.147.2.475.475,0,0,0,.142.1.469.469,0,0,0,.178.035,1.782,1.782,0,0,0,.314-.035l.106.233-1.989.9-.106-.233a1.161,1.161,0,0,0,.3-.311.466.466,0,0,0,.032-.313,2.88,2.88,0,0,0-.212-.577l-.9-1.989-2.639,1.194.9,1.989a4.284,4.284,0,0,0,.231.455.739.739,0,0,0,.176.2.445.445,0,0,0,.212.076,1.392,1.392,0,0,0,.367-.03l.105.233-2,.9-.106-.233a1.035,1.035,0,0,0,.319-.348.5.5,0,0,0,.011-.321,3.491,3.491,0,0,0-.205-.536l-1.858-4.107a4,4,0,0,0-.238-.466.649.649,0,0,0-.185-.2.45.45,0,0,0-.2-.068,1.808,1.808,0,0,0-.359.03l-.105-.233,2-.9.106.233a1.417,1.417,0,0,0-.254.24.471.471,0,0,0-.088.2.655.655,0,0,0,.025.272,3.489,3.489,0,0,0,.192.494l.761,1.682,2.639-1.194-.761-1.681a2.763,2.763,0,0,0-.3-.545.477.477,0,0,0-.24-.173,1.162,1.162,0,0,0-.446.015l-.106-.234,1.989-.9.105.233a1.128,1.128,0,0,0-.3.317.471.471,0,0,0-.03.314,3.179,3.179,0,0,0,.214.571l1.858,4.106Zm4.034-.8a2.1,2.1,0,0,1-1.74.347,2.758,2.758,0,0,1-1.492-1.29,3.2,3.2,0,0,1-.525-1.386,2,2,0,0,1,.22-1.186,2.41,2.41,0,0,1,.846-.88,2.138,2.138,0,0,1,1.774-.356,2.721,2.721,0,0,1,1.48,1.266,3.356,3.356,0,0,1,.54,1.386,1.958,1.958,0,0,1-.211,1.184A2.5,2.5,0,0,1,197.578,541.415Zm-2.46-1.562a3.267,3.267,0,0,0,1.172,1.211,1.078,1.078,0,0,0,1.133-.039,1.016,1.016,0,0,0,.411-.461,1.293,1.293,0,0,0,.093-.6,2.252,2.252,0,0,0-.17-.68,4.368,4.368,0,0,0-.366-.7,4.066,4.066,0,0,0-.822-.981,1.572,1.572,0,0,0-.787-.381,1.03,1.03,0,0,0-.69.158,1.069,1.069,0,0,0-.524.979,2.994,2.994,0,0,0,.55,1.5Zm4.005-4.5.069-.03a3.957,3.957,0,0,1,.109-.757,1.94,1.94,0,0,1,.247-.56,1.786,1.786,0,0,1,.457-.466,4.287,4.287,0,0,1,.463-.294l.7.972-.477.344a1.208,1.208,0,0,0-.456-.176.547.547,0,0,0-.386.121.725.725,0,0,0-.238.308,1.421,1.421,0,0,0-.1.466,1.391,1.391,0,0,0,.037.456,1.3,1.3,0,0,0,.2.389l1.068,1.479a2.422,2.422,0,0,0,.429.495.45.45,0,0,0,.308.1,1.133,1.133,0,0,0,.4-.128l.15.208-1.7,1.229-.15-.208a1.626,1.626,0,0,0,.167-.255.465.465,0,0,0,.044-.191.609.609,0,0,0-.073-.262,3.243,3.243,0,0,0-.288-.455l-1.329-1.841c-.13-.18-.238-.324-.323-.429a.824.824,0,0,0-.25-.221.392.392,0,0,0-.26-.036,1.466,1.466,0,0,0-.355.128l-.158-.219.959-.756.257-.185.487.771Zm1.627-4.911.625.793-.753.594-.625-.794Zm3.019,6.236a1.606,1.606,0,0,0,.16-.265.459.459,0,0,0,.034-.192.7.7,0,0,0-.084-.26,3.175,3.175,0,0,0-.306-.443l-1.406-1.783c-.138-.175-.252-.313-.341-.415a.837.837,0,0,0-.259-.211.4.4,0,0,0-.262-.024,1.478,1.478,0,0,0-.349.143l-.171-.216.925-.789.249-.2,2.306,2.925a3.04,3.04,0,0,0,.419.462.459.459,0,0,0,.288.11,1.071,1.071,0,0,0,.4-.113l.159.2-1.6,1.265Zm4.3-5.392,1.058,1.079-2.863,2.809-.179-.183-.975-5.071-1.008.989a.783.783,0,0,0-.228.356.953.953,0,0,0,.015.424,2.974,2.974,0,0,0,.227.6l-.324.318-.993-1.012,2.819-2.766.183.187.975,5.064.979-.96a1.455,1.455,0,0,0,.26-.314.589.589,0,0,0,.075-.258.966.966,0,0,0-.066-.341,4.929,4.929,0,0,0-.278-.6Zm3.35-1.143a2.106,2.106,0,0,1-1.607.751,2.758,2.758,0,0,1-1.756-.9,3.2,3.2,0,0,1-.84-1.222,2,2,0,0,1-.068-1.2,2.408,2.408,0,0,1,.613-1.056,2.139,2.139,0,0,1,1.638-.769,2.725,2.725,0,0,1,1.739.877,3.351,3.351,0,0,1,.854,1.218,1.958,1.958,0,0,1,.077,1.2,2.5,2.5,0,0,1-.65,1.1Zm-2.761-.932a3.265,3.265,0,0,0,1.426.9,1.079,1.079,0,0,0,1.092-.307,1.017,1.017,0,0,0,.29-.545,1.292,1.292,0,0,0-.052-.6,2.257,2.257,0,0,0-.327-.62,4.367,4.367,0,0,0-.523-.6,4.071,4.071,0,0,0-1.032-.758,1.573,1.573,0,0,0-.855-.183,1.03,1.03,0,0,0-.632.317,1.07,1.07,0,0,0-.277,1.076A3,3,0,0,0,208.658,529.208Z" transform="translate(-5.244 -223.696)"/><path class="c" d="M470.685,529.587l-1.254,1.627-.2-.156a1.635,1.635,0,0,0,.092-.3.42.42,0,0,0-.011-.2.7.7,0,0,0-.147-.232,3.155,3.155,0,0,0-.4-.35l-1.08-.832q-.289-.224-.537-.387a2.837,2.837,0,0,0-.428-.242,1.028,1.028,0,0,0-.309-.086.752.752,0,0,0-.476.122,1,1,0,0,0-.236.234.954.954,0,0,0-.172.354,1.624,1.624,0,0,0-.023.488,1.421,1.421,0,0,0,.116.491.953.953,0,0,0,.29.349l1.539,1.186a3.041,3.041,0,0,0,.519.346.46.46,0,0,0,.307.036,1.081,1.081,0,0,0,.36-.208l.2.156-1.247,1.619-.2-.156a1.618,1.618,0,0,0,.091-.3.465.465,0,0,0-.014-.195.7.7,0,0,0-.145-.231,3.179,3.179,0,0,0-.4-.355l-1.8-1.386q-.264-.2-.432-.319a.833.833,0,0,0-.3-.141.4.4,0,0,0-.26.04,1.5,1.5,0,0,0-.3.224l-.218-.168.708-.994.193-.251.637.563.061-.045a5.034,5.034,0,0,1-.061-.833,2.1,2.1,0,0,1,.089-.537,1.414,1.414,0,0,1,.24-.462,1.8,1.8,0,0,1,.359-.359,1.118,1.118,0,0,1,.4-.187,1.1,1.1,0,0,1,.437-.016,1.676,1.676,0,0,1,.482.164,3.924,3.924,0,0,1,.6.392l1.556,1.2a5.07,5.07,0,0,0,.425.3.694.694,0,0,0,.242.094.451.451,0,0,0,.21-.028,1.521,1.521,0,0,0,.31-.2Z" transform="translate(-259.181 -229.728)"/><path class="a" d="M315.19,349.948c-11.184-3.28-31.119-3.186-36.558,17.1.241-.068,4.97-3.4,5.618-3.83a44.369,44.369,0,0,1,14.534-6.108c-4.5,1.361-15.422,7.749-19.1,12.029C297.468,374.819,311.521,361.323,315.19,349.948Z" transform="translate(-125.86 -100.611)"/><path class="a" d="M185.755,378.556c7.348-2.3,19.374-2.212,22.76,10.028-.15-.039-3.094-2.012-3.5-2.269a26.287,26.287,0,0,0-8.809-3.52c2.8.784,9.7,4.313,11.651,7.064C196.427,393.218,188.136,385.316,185.755,378.556Z" transform="translate(-58.916 -121.541)"/><path class="d" d="M200.888,239.959a58.724,58.724,0,0,1,6.961,15.435c.568,2.041.856,4.027,1.375,6.025a65.423,65.423,0,0,1,.805,8.542c.059,3.6-.434,7.119-.4,8.814.85-1.564,1.827-7.251,2.1-9.584.243-2.087.709-9.468.146-11.184-.138-8.237-4.454-19.07-8.838-25.64-20.172-30.227-66.881-31.661-87.53-2.878a41.056,41.056,0,0,0-3.157,4.5,49.42,49.42,0,0,0-2.747,4.936,51.061,51.061,0,0,0-5.464,20.3,49.5,49.5,0,0,0,3.518,22.416c2.591,6.169,7.814,14.121,12.975,18.559,1.38,1.186,2.706,2.38,4.28,3.567a61.29,61.29,0,0,0,28.262,11.07,49.753,49.753,0,0,0,21.143-1.755c1.384-.446,7.06-2.564,3.434-4.238a6.9,6.9,0,0,0-1.656-.441,11.857,11.857,0,0,0-3.787-.052c-1.931.192-3.977.443-5.906.476-10.044.167-18.466-1.7-25.215-9.5-4.639-5.361,8.012-.759,9.916.759,1.676.936,2.955,1.994,4.871,2.356a14.163,14.163,0,0,0,1.945.233c1.637.062,5.044-.43,3.937-2.883a5.176,5.176,0,0,0-1.276-1.61,42.537,42.537,0,0,0-7.647-5.073c-5.329-2.951-11.67-5.773-14.494-6.186-4.779-1.366-9.673-.614-14.2-1.532a9.526,9.526,0,0,1-5.16-3.629c-7.1-9.488-6.253-25.305-2.378-35.907a40.059,40.059,0,0,1,3.573-7.156,57.806,57.806,0,0,1,4.579-6.125l3.006-3.092c1.189-1.159,2.057-1.929,3.284-2.955,21.482-17.979,55.418-9.03,69.752,13.424Z" transform="translate(0 0)"/></g></svg>