<svg xmlns="http://www.w3.org/2000/svg" width="75.921" height="83.198" viewBox="0 0 75.921 83.198"><defs><style>.a,.b,.c{fill:#fff;}.a,.c{fill-rule:evenodd;}.a{opacity:0.6;}</style></defs><g transform="translate(-104.017 -208.77)"><path class="a" d="M237.767,491.653c1.792-.613,5.875-2.463,6.266-3.057-6.116-.091-11.792-4.44-16.216-8.4-6.337-5.588-13.4-11.3-22.135-6l-.733.526.068,0,.046,0h.022l.068,0,.067,0h0l.068,0,.068,0h.02l.049,0,.068,0,.041,0,.027,0,.068,0,.062,0h.006l.068,0,.068.005h.015l.054,0,.068.005.036,0,.032,0,.069.006.057,0h.011l.068.006.069.006h.01l.059.006.069.007.031,0,.038,0,.069.007.052.006.016,0,.069.007.068.008h0l.064.007.068.008.026,0,.043.005.068.009.047.006.022,0,.068.009.068.009h0l.158.023.048.007.068.01.042.006.027,0,.068.011.063.01h.005l.137.023.016,0,.122.022.036.007.032.006.068.013.057.011.011,0,.137.028.01,0,.058.012.068.015.031.007.037.008.121.028.016,0,.068.016.068.016h.005l.131.033.026.007.042.011.068.018.047.013.021.006.136.038c1.983.29,6.436,2.272,10.178,4.344a29.864,29.864,0,0,1,5.37,3.562,3.638,3.638,0,0,1,.9,1.131c.777,1.723-1.615,2.068-2.765,2.025a10,10,0,0,1-1.365-.163,11.1,11.1,0,0,1-3.421-1.655c-1.337-1.066-10.221-4.3-6.963-.533,4.739,5.479,10.653,6.788,17.705,6.671,1.355-.023,2.792-.2,4.147-.334a8.32,8.32,0,0,1,2.659.037,4.837,4.837,0,0,1,1.163.309c.634.293.863.605.834.913Z" transform="translate(-81.143 -211.695)"/><path class="b" d="M234.3,296.892c.11-3.023,3.648-5.13,3.232-8.655a13.3,13.3,0,0,0-.906-3.086l-.768,1.265a24.107,24.107,0,0,1-1.779,2.256c-1.566,1.786-2.863,3.278-3.38,5.627a6.276,6.276,0,0,0,1.393,4.847,5.538,5.538,0,0,0,1.733,1.453,4.809,4.809,0,0,0,2.64.54,6.611,6.611,0,0,0,2.489-.726l-.6.1C236.033,300.642,234.228,299.266,234.3,296.892Zm6.3-5c1.559,2.384,1.718,6.3-.558,8.276a5.694,5.694,0,0,1-1.745,1.058,5.823,5.823,0,0,1-7.574-3.491,9.358,9.358,0,0,1-.57-1.885,5.624,5.624,0,0,1-.144-1.1,8.718,8.718,0,0,0,.125,5.228,6.779,6.779,0,0,0,7.651,4.45A6.947,6.947,0,0,0,244,298.379a9.173,9.173,0,0,0-.957-5.034,21.024,21.024,0,0,0-2.359-3.748c-.419-.567-.9-1.181-1.374-1.7-.243-.269-1.247-1.5-1.458-1.627a7.207,7.207,0,0,1-.665,6.11c-1.09,1.715-3.4,4.335-1.648,6.4,1.617,1.906,6.336,1.309,5.657-4.218a11.31,11.31,0,0,0-.383-1.969Z" transform="translate(-101.015 -61.406)"/><path class="c" d="M184.873,437.571c1.156-.789,1.435-1.291,3.464-2.576a19.748,19.748,0,0,1,4.1-1.974c7.712-2.6,14.132.974,19,6.606.255.295.442.453.713.749.29.317.38.487.73.844l1.422,1.612c1.454,1.708,3.638,3.867,5.261,5.413.289.275.512.431.85.724a18.689,18.689,0,0,0,7.931,4.2c1.044.244,1.415-.151,2.208-.679a32.725,32.725,0,0,0,11.01-13.331c-1.047.177-2.891,1.632-8.068,1.515-5.392-.121-10.413-2.116-14.877-4.63-2.151-1.211-3.88-2.609-6.014-3.764-4.431-2.4-10.01-4.029-16.061-2.566a20.443,20.443,0,0,0-6.814,2.963c-1.555,1.049-4.056,3.22-4.856,4.892Z" transform="translate(-65.003 -177.182)"/><path class="c" d="M114.472,519.12l2.478,3.086-.993.8-.224-.279a3.557,3.557,0,0,0,.289-.436.985.985,0,0,0,.112-.3.523.523,0,0,0-.012-.23.875.875,0,0,0-.158-.261l-.291-.362-2.921,2.345a1.916,1.916,0,0,0-.253.234.566.566,0,0,0-.113.184.349.349,0,0,0-.008.178,1.26,1.26,0,0,0,.1.256l-.14.113-1.046-1.3.14-.112a1.645,1.645,0,0,0,.165.117.448.448,0,0,0,.141.063.338.338,0,0,0,.138,0,.656.656,0,0,0,.175-.07,2.022,2.022,0,0,0,.272-.192l2.921-2.345-.288-.359a1.052,1.052,0,0,0-.2-.2.457.457,0,0,0-.237-.076,1.009,1.009,0,0,0-.339.05,3.471,3.471,0,0,0-.472.188l-.227-.282.993-.8Zm-.4,7.43a1.478,1.478,0,0,1-.483-1.148,1.937,1.937,0,0,1,.679-1.207,2.25,2.25,0,0,1,.881-.556,1.4,1.4,0,0,1,.847-.014,1.691,1.691,0,0,1,.724.459,1.5,1.5,0,0,1,.494,1.171,1.912,1.912,0,0,1-.664,1.2,2.355,2.355,0,0,1-.878.566,1.376,1.376,0,0,1-.845.021A1.753,1.753,0,0,1,114.069,526.55Zm.73-1.911a2.293,2.293,0,0,0-.669.976.757.757,0,0,0,.185.774.712.712,0,0,0,.375.218.906.906,0,0,0,.424-.02,1.579,1.579,0,0,0,.444-.212,3.052,3.052,0,0,0,.432-.35,2.863,2.863,0,0,0,.56-.7,1.1,1.1,0,0,0,.152-.595.724.724,0,0,0-.2-.453.751.751,0,0,0-.747-.224A2.1,2.1,0,0,0,114.8,524.638Zm4.632,3.266-2.545,1.42-.38-.338,1.147-2.612A2.6,2.6,0,0,0,117.8,526a.512.512,0,0,0,.017-.2.526.526,0,0,0-.1-.2l.119-.134,1.08.96-.12.134a.611.611,0,0,0-.291-.105.282.282,0,0,0-.2.11,1.034,1.034,0,0,0-.121.17c-.038.063-.076.14-.118.231l-.81,1.776,2.584-1.492.386.343-1.285,2.646,1.67-.909c.087-.047.167-.094.238-.142a.923.923,0,0,0,.182-.154.327.327,0,0,0,.1-.233.535.535,0,0,0-.128-.279l.119-.134.955.848-.12.134a.689.689,0,0,0-.15-.063.411.411,0,0,0-.129-.007.871.871,0,0,0-.192.05,3.411,3.411,0,0,0-.342.157l-2.58,1.31-.369-.328,1.235-2.584Zm2.6,4.814-.036-.044a2.234,2.234,0,0,1-.754.027,1.341,1.341,0,0,1-.563-.235,1.061,1.061,0,0,1-.336-.374.767.767,0,0,1-.089-.436.89.89,0,0,1,.17-.434.9.9,0,0,1,.91-.363,3.737,3.737,0,0,1,1.487.646l.139-.194a1.948,1.948,0,0,0,.288-.53.588.588,0,0,0,0-.4.76.76,0,0,0-.283-.328.679.679,0,0,0-.461-.145.905.905,0,0,0-.474.215l-.39-.278.276-.387a5.166,5.166,0,0,1,.632.12,3.311,3.311,0,0,1,.459.162,2.32,2.32,0,0,1,.416.236,1.243,1.243,0,0,1,.406.433.73.73,0,0,1,.064.478,1.81,1.81,0,0,1-.328.648l-.739,1.035q-.158.221-.219.313a1.267,1.267,0,0,0-.1.181.44.44,0,0,0-.043.155.289.289,0,0,0,.032.142,1.04,1.04,0,0,0,.14.2l-.1.146-.816-.583.319-.415Zm.614-.968a2.588,2.588,0,0,0-1.02-.486.614.614,0,0,0-.635.253.567.567,0,0,0-.122.318.429.429,0,0,0,.076.259.883.883,0,0,0,.22.214.861.861,0,0,0,.437.164.9.9,0,0,0,.437-.066.7.7,0,0,0,.307-.235l.3-.42Zm2.762.377.037.037a2.787,2.787,0,0,1,.523-.12,1.363,1.363,0,0,1,.429.02,1.249,1.249,0,0,1,.421.182,2.954,2.954,0,0,1,.31.228l-.459.705-.346-.225a.849.849,0,0,0,0-.343.385.385,0,0,0-.177-.223.508.508,0,0,0-.262-.078.99.99,0,0,0-.332.049.967.967,0,0,0-.289.14.915.915,0,0,0-.2.229l-.7,1.073a1.708,1.708,0,0,0-.216.407.317.317,0,0,0,.011.228.8.8,0,0,0,.185.229l-.1.151-1.236-.8.1-.151a1.142,1.142,0,0,0,.209.045.329.329,0,0,0,.137-.02.426.426,0,0,0,.154-.115,2.256,2.256,0,0,0,.225-.3l.87-1.336c.085-.131.152-.238.2-.32a.58.58,0,0,0,.082-.219.276.276,0,0,0-.042-.18,1.045,1.045,0,0,0-.174-.2l.1-.159.738.437.186.121-.382.514Zm4.119,1.028c.1-.209.176-.356.214-.44a1.2,1.2,0,0,0,.08-.224.411.411,0,0,0,.009-.166.3.3,0,0,0-.062-.129,1.19,1.19,0,0,0-.2-.175l.085-.169.807.365.193.1-1.9,3.784c-.086.171-.143.293-.174.369a.546.546,0,0,0-.044.2.284.284,0,0,0,.049.158,1.053,1.053,0,0,0,.208.2l-.085.17-.787-.355-.2-.1.308-.516-.042-.038a2.979,2.979,0,0,1-.524.149,1.584,1.584,0,0,1-.411.011,1.143,1.143,0,0,1-.4-.118,1.071,1.071,0,0,1-.623-.823,2.25,2.25,0,0,1,.3-1.32,2.225,2.225,0,0,1,.647-.815,1.446,1.446,0,0,1,.791-.3,1.615,1.615,0,0,1,.816.181,2.381,2.381,0,0,1,.375.232,2.133,2.133,0,0,1,.306.295Zm-.811,1.615a3.182,3.182,0,0,0,.182-.421.9.9,0,0,0,.052-.3.591.591,0,0,0-.057-.249.687.687,0,0,0-.148-.206,1.055,1.055,0,0,0-.247-.165.8.8,0,0,0-.805.015,1.967,1.967,0,0,0-.7.852,2.253,2.253,0,0,0-.3,1.045.653.653,0,0,0,.382.6,1.081,1.081,0,0,0,.251.1.815.815,0,0,0,.226.015,1.121,1.121,0,0,0,.261-.055.947.947,0,0,0,.226-.1.673.673,0,0,0,.157-.146,1.315,1.315,0,0,0,.154-.249Zm3.83,1.086-.325-.132a1.091,1.091,0,0,0-.048-.392.6.6,0,0,0-.164-.257.967.967,0,0,0-.3-.175.729.729,0,0,0-.485-.047.453.453,0,0,0-.3.282.513.513,0,0,0-.04.284.7.7,0,0,0,.124.271,3.655,3.655,0,0,0,.384.427,3.761,3.761,0,0,1,.423.49,1.06,1.06,0,0,1,.177.411.772.772,0,0,1-.054.44,1.081,1.081,0,0,1-.274.414.85.85,0,0,1-.377.194,1.181,1.181,0,0,1-.463.007,2.524,2.524,0,0,1-.52-.151,3.723,3.723,0,0,1-.535-.266,5.507,5.507,0,0,1-.479-.322l.286-.708.333.135a.925.925,0,0,0,.088.562.845.845,0,0,0,.439.34,1.186,1.186,0,0,0,.249.071.648.648,0,0,0,.242,0,.449.449,0,0,0,.211-.1.67.67,0,0,0,.2-.541.709.709,0,0,0-.131-.283,4.2,4.2,0,0,0-.4-.446,3.385,3.385,0,0,1-.393-.45,1.067,1.067,0,0,1-.177-.408.769.769,0,0,1,.052-.435.854.854,0,0,1,.346-.423,1.021,1.021,0,0,1,.563-.137,2.035,2.035,0,0,1,.712.161c.149.061.29.127.423.2s.3.171.489.3Zm3.428,3.4-.049-.029a2.233,2.233,0,0,1-.7.293,1.34,1.34,0,0,1-.609-.02,1.063,1.063,0,0,1-.447-.23.769.769,0,0,1-.238-.377.89.89,0,0,1,.005-.466.9.9,0,0,1,.722-.662,3.733,3.733,0,0,1,1.619.077l.061-.231a1.96,1.96,0,0,0,.082-.6.589.589,0,0,0-.14-.37.758.758,0,0,0-.381-.206.678.678,0,0,0-.482.028.9.9,0,0,0-.367.369l-.463-.122.121-.46a5.121,5.121,0,0,1,.634-.112,3.308,3.308,0,0,1,.487-.011,2.313,2.313,0,0,1,.473.073,1.243,1.243,0,0,1,.533.26.73.73,0,0,1,.229.424,1.809,1.809,0,0,1-.077.722l-.325,1.23q-.069.262-.094.37a1.287,1.287,0,0,0-.032.206.438.438,0,0,0,.014.16.287.287,0,0,0,.08.122,1.035,1.035,0,0,0,.2.14l-.046.174-.969-.256Zm.232-1.123a2.59,2.59,0,0,0-1.126-.093.615.615,0,0,0-.5.461.568.568,0,0,0,0,.34.429.429,0,0,0,.163.215.877.877,0,0,0,.281.122.86.86,0,0,0,.467,0,.894.894,0,0,0,.385-.216.7.7,0,0,0,.2-.329l.132-.5Zm6.272,3-.294.024-.211-.33a1.869,1.869,0,0,1-.529.122,2.323,2.323,0,0,1-.6-.04,1.624,1.624,0,0,1-1.254-.878,3.162,3.162,0,0,1-.117-1.94,3.394,3.394,0,0,1,.5-1.3,1.933,1.933,0,0,1,2.053-.863,5.3,5.3,0,0,1,.636.157,5.755,5.755,0,0,1,.663.259l-.183.988-.356-.066a1.683,1.683,0,0,0-.137-.547.755.755,0,0,0-.27-.318,1.241,1.241,0,0,0-.455-.164,1.041,1.041,0,0,0-.734.124,1.651,1.651,0,0,0-.6.657,3.823,3.823,0,0,0-.384,1.154,4.663,4.663,0,0,0-.085,1.231,1.6,1.6,0,0,0,.273.83.97.97,0,0,0,.626.378.927.927,0,0,0,.663-.069.739.739,0,0,0,.311-.532l.04-.216a2.244,2.244,0,0,0,.052-.474.426.426,0,0,0-.079-.245.676.676,0,0,0-.259-.183l.033-.177,1.452.269-.033.177a.565.565,0,0,0-.212.064.354.354,0,0,0-.124.119.75.75,0,0,0-.086.2c-.022.078-.048.193-.076.341Zm2.2-2.775.05.015a2.771,2.771,0,0,1,.4-.356,1.365,1.365,0,0,1,.386-.189,1.253,1.253,0,0,1,.457-.043,3.021,3.021,0,0,1,.382.052l-.064.839-.412-.032a.85.85,0,0,0-.165-.3.385.385,0,0,0-.262-.11.508.508,0,0,0-.267.057.989.989,0,0,0-.267.2.971.971,0,0,0-.186.261.909.909,0,0,0-.069.3l-.1,1.277a1.7,1.7,0,0,0,.006.46.317.317,0,0,0,.119.194.8.8,0,0,0,.272.112l-.014.179-1.47-.112.014-.179a1.123,1.123,0,0,0,.2-.061.326.326,0,0,0,.11-.083.428.428,0,0,0,.08-.174,2.273,2.273,0,0,0,.051-.374l.121-1.59c.012-.156.019-.282.021-.377a.581.581,0,0,0-.034-.232.276.276,0,0,0-.124-.137,1.045,1.045,0,0,0-.248-.092l.014-.189.857.029.222.017-.088.634Zm4.72,2.479a3.2,3.2,0,0,1-.442.37,1.652,1.652,0,0,1-.437.2,1.613,1.613,0,0,1-.519.061,1.411,1.411,0,0,1-1.121-.491,2.009,2.009,0,0,1-.338-1.346,2.24,2.24,0,0,1,.228-.954,1.485,1.485,0,0,1,.58-.625,1.686,1.686,0,0,1,1.466-.06,1.067,1.067,0,0,1,.4.334,1.506,1.506,0,0,1,.223.521,3.368,3.368,0,0,1,.07.809l-2.3-.079,0,.065a2.334,2.334,0,0,0,.072.73.912.912,0,0,0,.3.471.934.934,0,0,0,.571.186,1.255,1.255,0,0,0,.543-.093,1.6,1.6,0,0,0,.489-.348l.215.246Zm-.563-1.506a2.817,2.817,0,0,0-.076-.648.81.81,0,0,0-.218-.391.585.585,0,0,0-.4-.147.711.711,0,0,0-.612.282,1.617,1.617,0,0,0-.294.851Zm4.141,1.176a3.188,3.188,0,0,1-.4.416,1.653,1.653,0,0,1-.412.249,1.609,1.609,0,0,1-.509.118,1.411,1.411,0,0,1-1.168-.364,2.011,2.011,0,0,1-.483-1.3,2.242,2.242,0,0,1,.121-.973,1.485,1.485,0,0,1,.507-.685,1.686,1.686,0,0,1,1.451-.221,1.066,1.066,0,0,1,.439.287,1.505,1.505,0,0,1,.279.493,3.378,3.378,0,0,1,.158.8l-2.3.175,0,.065a2.338,2.338,0,0,0,.152.717.913.913,0,0,0,.351.435.935.935,0,0,0,.588.122,1.251,1.251,0,0,0,.529-.152,1.6,1.6,0,0,0,.448-.4Zm-.725-1.435a2.816,2.816,0,0,0-.147-.636.807.807,0,0,0-.259-.365.584.584,0,0,0-.411-.1.71.71,0,0,0-.577.347,1.617,1.617,0,0,0-.2.878Zm5.013,1.38-1.417.266-.033-.177a1.154,1.154,0,0,0,.187-.113.3.3,0,0,0,.086-.109.5.5,0,0,0,.032-.19,2.237,2.237,0,0,0-.045-.37l-.177-.941q-.047-.252-.1-.454a2.006,2.006,0,0,0-.111-.327.722.722,0,0,0-.122-.189.526.526,0,0,0-.307-.158.7.7,0,0,0-.233.012.665.665,0,0,0-.256.105,1.14,1.14,0,0,0-.24.244,1,1,0,0,0-.169.311.67.67,0,0,0-.011.319l.252,1.341a2.144,2.144,0,0,0,.11.424.323.323,0,0,0,.144.162.755.755,0,0,0,.285.06l.033.177-1.41.265-.033-.177a1.125,1.125,0,0,0,.186-.112.323.323,0,0,0,.084-.108.486.486,0,0,0,.032-.189,2.225,2.225,0,0,0-.046-.375l-.294-1.567c-.029-.153-.055-.277-.077-.369a.582.582,0,0,0-.092-.215.276.276,0,0,0-.155-.1,1.041,1.041,0,0,0-.264-.024l-.036-.19.836-.19.218-.041.071.593.053.005a3.536,3.536,0,0,1,.357-.465,1.477,1.477,0,0,1,.3-.24,1,1,0,0,1,.341-.13,1.271,1.271,0,0,1,.356-.02.787.787,0,0,1,.3.088.771.771,0,0,1,.236.2,1.181,1.181,0,0,1,.175.311,2.741,2.741,0,0,1,.13.485l.255,1.356a3.5,3.5,0,0,0,.081.357.486.486,0,0,0,.083.162.312.312,0,0,0,.124.083,1.055,1.055,0,0,0,.254.042Zm3.31-1.4a3.17,3.17,0,0,1-.332.471,1.654,1.654,0,0,1-.37.308,1.611,1.611,0,0,1-.486.193,1.412,1.412,0,0,1-1.21-.184,2.012,2.012,0,0,1-.673-1.213,2.242,2.242,0,0,1-.026-.981,1.486,1.486,0,0,1,.4-.753,1.686,1.686,0,0,1,1.4-.436,1.068,1.068,0,0,1,.477.218,1.507,1.507,0,0,1,.35.446,3.37,3.37,0,0,1,.276.764l-2.246.518.015.063a2.344,2.344,0,0,0,.258.686.913.913,0,0,0,.413.377.933.933,0,0,0,.6.032,1.254,1.254,0,0,0,.5-.23,1.6,1.6,0,0,0,.383-.462Zm-.933-1.31a2.831,2.831,0,0,0-.241-.607.811.811,0,0,0-.311-.322.587.587,0,0,0-.422-.04.711.711,0,0,0-.518.43,1.619,1.619,0,0,0-.064.9Zm1.806-1.376.052-.005a2.78,2.78,0,0,1,.235-.483,1.368,1.368,0,0,1,.285-.322,1.253,1.253,0,0,1,.405-.214,3.033,3.033,0,0,1,.372-.1l.262.8-.393.129a.845.845,0,0,0-.267-.215.383.383,0,0,0-.284,0,.508.508,0,0,0-.225.155.992.992,0,0,0-.169.289.973.973,0,0,0-.072.313.912.912,0,0,0,.051.3l.4,1.217a1.7,1.7,0,0,0,.182.423.317.317,0,0,0,.185.134.8.8,0,0,0,.294,0l.056.171-1.4.459-.056-.171a1.133,1.133,0,0,0,.166-.135.326.326,0,0,0,.07-.119.429.429,0,0,0,.007-.191,2.267,2.267,0,0,0-.1-.365l-.5-1.515c-.049-.148-.09-.267-.125-.356a.58.58,0,0,0-.12-.2.276.276,0,0,0-.167-.079,1.031,1.031,0,0,0-.265.01l-.059-.18.8-.3.211-.069Zm7.607-1.03q.087.193.141.284a.658.658,0,0,0,.1.141.334.334,0,0,0,.1.069.329.329,0,0,0,.125.024,1.249,1.249,0,0,0,.221-.024l.074.164-1.4.632-.074-.164a.816.816,0,0,0,.211-.219.327.327,0,0,0,.022-.22,2.023,2.023,0,0,0-.149-.405l-.632-1.4-1.853.838.632,1.4a3.011,3.011,0,0,0,.162.32.519.519,0,0,0,.124.14.313.313,0,0,0,.149.054.981.981,0,0,0,.258-.021l.074.164-1.4.635-.074-.164a.727.727,0,0,0,.224-.244.348.348,0,0,0,.008-.225,2.453,2.453,0,0,0-.144-.376l-1.3-2.883a2.8,2.8,0,0,0-.167-.327.456.456,0,0,0-.13-.138.316.316,0,0,0-.143-.048,1.27,1.27,0,0,0-.252.021l-.074-.164,1.4-.635.074.164a1,1,0,0,0-.179.169.331.331,0,0,0-.062.139.46.46,0,0,0,.018.191,2.455,2.455,0,0,0,.135.347l.534,1.181,1.853-.839-.534-1.181a1.941,1.941,0,0,0-.208-.383.335.335,0,0,0-.168-.121.817.817,0,0,0-.313.01l-.074-.164,1.4-.632.074.164a.792.792,0,0,0-.213.223.331.331,0,0,0-.021.22,2.236,2.236,0,0,0,.15.4l1.3,2.883Zm2.833-.559a1.478,1.478,0,0,1-1.221.244,1.937,1.937,0,0,1-1.048-.906,2.249,2.249,0,0,1-.369-.974,1.4,1.4,0,0,1,.155-.833,1.692,1.692,0,0,1,.594-.618,1.5,1.5,0,0,1,1.246-.25,1.911,1.911,0,0,1,1.04.889,2.357,2.357,0,0,1,.379.973,1.375,1.375,0,0,1-.148.832A1.753,1.753,0,0,1,171.881,534.775Zm-1.727-1.1a2.293,2.293,0,0,0,.823.85.757.757,0,0,0,.8-.027.714.714,0,0,0,.289-.324.908.908,0,0,0,.065-.42,1.581,1.581,0,0,0-.119-.477,3.069,3.069,0,0,0-.257-.494,2.856,2.856,0,0,0-.577-.689,1.1,1.1,0,0,0-.553-.268.724.724,0,0,0-.484.111.751.751,0,0,0-.368.687,2.1,2.1,0,0,0,.386,1.05Zm2.813-3.162.048-.021a2.777,2.777,0,0,1,.077-.531,1.363,1.363,0,0,1,.174-.393,1.255,1.255,0,0,1,.321-.327,3.016,3.016,0,0,1,.325-.207l.493.682-.335.242a.848.848,0,0,0-.32-.123.384.384,0,0,0-.271.085.509.509,0,0,0-.167.216,1,1,0,0,0-.074.327.977.977,0,0,0,.026.32.913.913,0,0,0,.14.273l.75,1.039a1.7,1.7,0,0,0,.3.347.316.316,0,0,0,.216.072.8.8,0,0,0,.28-.09l.105.146-1.2.863-.105-.146a1.142,1.142,0,0,0,.117-.179.326.326,0,0,0,.031-.134.427.427,0,0,0-.052-.184,2.279,2.279,0,0,0-.2-.319l-.933-1.293c-.091-.127-.167-.227-.227-.3a.579.579,0,0,0-.175-.155.275.275,0,0,0-.183-.025,1.029,1.029,0,0,0-.249.09l-.111-.154.673-.531.18-.13.342.542Zm1.143-3.449.439.557-.529.417-.439-.557Zm2.12,4.379a1.129,1.129,0,0,0,.113-.186.322.322,0,0,0,.024-.135.488.488,0,0,0-.059-.182,2.232,2.232,0,0,0-.215-.311l-.987-1.252c-.1-.123-.177-.22-.239-.291a.588.588,0,0,0-.182-.148.278.278,0,0,0-.184-.017,1.038,1.038,0,0,0-.245.1l-.12-.152.65-.554.175-.138,1.62,2.054a2.133,2.133,0,0,0,.294.325.322.322,0,0,0,.2.077.752.752,0,0,0,.281-.08l.111.141-1.127.888Zm3.019-3.786.743.758-2.011,1.972-.126-.128-.685-3.561-.708.694a.55.55,0,0,0-.16.25.669.669,0,0,0,.01.3,2.088,2.088,0,0,0,.159.423l-.227.223-.7-.71,1.979-1.942.128.131.685,3.556.687-.674a1.022,1.022,0,0,0,.182-.221.414.414,0,0,0,.053-.181.679.679,0,0,0-.046-.24,3.462,3.462,0,0,0-.2-.424Zm2.352-.8a1.479,1.479,0,0,1-1.128.528,1.937,1.937,0,0,1-1.233-.63,2.249,2.249,0,0,1-.59-.858,1.4,1.4,0,0,1-.048-.846,1.691,1.691,0,0,1,.43-.741,1.5,1.5,0,0,1,1.15-.54,1.913,1.913,0,0,1,1.221.616,2.353,2.353,0,0,1,.6.855,1.375,1.375,0,0,1,.054.843,1.754,1.754,0,0,1-.456.774Zm-1.939-.655a2.293,2.293,0,0,0,1,.63.758.758,0,0,0,.767-.215.714.714,0,0,0,.2-.383.908.908,0,0,0-.037-.423,1.584,1.584,0,0,0-.229-.435,3.064,3.064,0,0,0-.367-.418,2.859,2.859,0,0,0-.725-.532,1.1,1.1,0,0,0-.6-.128.724.724,0,0,0-.444.223.751.751,0,0,0-.194.755A2.1,2.1,0,0,0,179.66,526.2Z" transform="translate(-5.849 -249.503)"/><path class="c" d="M468.574,528.962l-.88,1.142-.142-.11a1.152,1.152,0,0,0,.065-.209.3.3,0,0,0-.008-.138.5.5,0,0,0-.1-.163,2.218,2.218,0,0,0-.28-.246l-.758-.584q-.2-.157-.377-.272a1.99,1.99,0,0,0-.3-.17.725.725,0,0,0-.217-.06.528.528,0,0,0-.334.086.7.7,0,0,0-.166.164.669.669,0,0,0-.121.249,1.14,1.14,0,0,0-.016.342,1,1,0,0,0,.081.345.668.668,0,0,0,.2.245l1.081.833a2.131,2.131,0,0,0,.364.243.323.323,0,0,0,.215.026.759.759,0,0,0,.253-.146l.142.11-.875,1.137-.142-.11a1.135,1.135,0,0,0,.064-.208.326.326,0,0,0-.01-.137.491.491,0,0,0-.1-.162,2.232,2.232,0,0,0-.284-.249l-1.263-.973q-.185-.143-.3-.224a.584.584,0,0,0-.212-.1.278.278,0,0,0-.183.028,1.052,1.052,0,0,0-.213.158l-.153-.118.5-.7.136-.176.447.4.043-.032a3.539,3.539,0,0,1-.043-.585,1.473,1.473,0,0,1,.062-.377.993.993,0,0,1,.168-.325,1.268,1.268,0,0,1,.252-.252.786.786,0,0,1,.279-.131.77.77,0,0,1,.307-.011,1.176,1.176,0,0,1,.338.115,2.753,2.753,0,0,1,.42.275l1.093.842a3.563,3.563,0,0,0,.3.212.487.487,0,0,0,.17.066.316.316,0,0,0,.148-.02,1.065,1.065,0,0,0,.218-.138Z" transform="translate(-289.082 -256.231)"/><path class="c" d="M304.3,349.473c-7.853-2.3-21.851-2.237-25.67,12.01.169-.048,3.49-2.385,3.945-2.689a31.155,31.155,0,0,1,10.206-4.289c-3.158.956-10.829,5.441-13.411,8.446C291.858,366.937,301.726,357.461,304.3,349.473Z" transform="translate(-140.38 -112.218)"/><path class="c" d="M185.755,378.21c5.159-1.618,13.6-1.553,15.982,7.041-.106-.027-2.173-1.413-2.456-1.593a18.458,18.458,0,0,0-6.185-2.471c1.966.551,6.809,3.028,8.181,4.96C193.249,388.505,187.427,382.956,185.755,378.21Z" transform="translate(-65.713 -135.563)"/><path class="c" d="M172.038,230.67a41.235,41.235,0,0,1,4.888,10.838c.4,1.433.6,2.828.966,4.231a45.938,45.938,0,0,1,.566,6c.041,2.526-.3,5-.282,6.189.6-1.1,1.283-5.091,1.474-6.729.171-1.466.5-6.648.1-7.853-.1-5.784-3.128-13.391-6.206-18-14.164-21.225-46.962-22.232-61.462-2.021a28.828,28.828,0,0,0-2.216,3.162,34.7,34.7,0,0,0-1.929,3.466A35.854,35.854,0,0,0,104.1,244.2a34.761,34.761,0,0,0,2.47,15.74,39.148,39.148,0,0,0,9.111,13.031c.969.833,1.9,1.671,3,2.5a43.037,43.037,0,0,0,19.845,7.773,34.935,34.935,0,0,0,14.846-1.233c.972-.313,4.957-1.8,2.412-2.976a4.847,4.847,0,0,0-1.163-.309,8.326,8.326,0,0,0-2.659-.036c-1.356.135-2.792.311-4.147.334-7.053.117-12.966-1.191-17.705-6.671-3.258-3.764,5.626-.533,6.963.533a11.1,11.1,0,0,0,3.42,1.654,9.943,9.943,0,0,0,1.365.163c1.15.043,3.542-.3,2.765-2.025a3.635,3.635,0,0,0-.9-1.131,29.87,29.87,0,0,0-5.37-3.562c-3.742-2.072-8.194-4.054-10.178-4.344-3.356-.959-6.792-.431-9.974-1.075a6.688,6.688,0,0,1-3.623-2.548c-4.985-6.662-4.391-17.769-1.67-25.213a28.129,28.129,0,0,1,2.509-5.025,40.592,40.592,0,0,1,3.215-4.3l2.111-2.171c.835-.814,1.444-1.354,2.306-2.075,15.084-12.624,38.914-6.341,48.978,9.426Z" transform="translate(0 0)"/></g></svg>