<svg xmlns="http://www.w3.org/2000/svg" width="15.002" height="15" viewBox="0 0 15.002 15"><defs><style>.a{fill:#fff;fill-rule:evenodd;opacity:0.46;}</style></defs><path class="a" d="M2.267.98a1.636,1.636,0,0,1,2.448.152L6.4,3.294a1.632,1.632,0,0,1,.3,1.4L6.179,6.747a.636.636,0,0,0,.167.6l2.3,2.3a.636.636,0,0,0,.6.167l2.052-.513a1.636,1.636,0,0,1,1.4.3l2.162,1.681a1.636,1.636,0,0,1,.153,2.448l-.97.97a2.6,2.6,0,0,1-2.7.658,17.47,17.47,0,0,1-6.571-4.144A17.47,17.47,0,0,1,.639,4.646a2.607,2.607,0,0,1,.658-2.7l.97-.969Z" transform="translate(-0.499 -0.501)"/></svg>