<?xml version="1.0" ?><!DOCTYPE svg  PUBLIC '-//W3C//DTD SVG 1.1//EN'  'http://www.w3.org/Graphics/SVG/1.1/DTD/svg11.dtd'><svg enable-background="new 0 0 512 512" height="512px" id="Calque_1" version="1.1" viewBox="0 0 512 512" width="512px" xml:space="preserve" xmlns="http://www.w3.org/2000/svg" xmlns:xlink="http://www.w3.org/1999/xlink"><g><g><g id="XMLID_1_"><g><g><path d="M476.3,202.36l-74.74,74.74L202.35,476.3c-4.69,4.7-12.31,4.69-17.01,0l-28.47-28.48       c25.59-25.59,25.6-67.09,0-92.69c-1.15-1.15-2.34-2.25-3.55-3.29c-25.75-22.25-64.7-21.15-89.14,3.29L35.7,326.66       c-4.69-4.7-4.7-12.32,0-17.01l74.75-74.74L309.65,35.7c4.69-4.7,12.31-4.69,17.01,0l28.47,28.48       c-25.59,25.59-25.59,67.09,0,92.69c25.6,25.6,67.1,25.59,92.69,0l28.48,28.47C480.99,190.04,481,197.66,476.3,202.36z" fill="#FFC035"/></g></g><g><path d="M110.45,234.91L309.65,35.7c4.69-4.7,12.31-4.69,17.01,0l28.47,28.48c-25.59,25.59-25.59,67.09,0,92.69      c25.6,25.6,67.1,25.59,92.69,0l28.48,28.47c4.69,4.7,4.7,12.32,0,17.02l-74.74,74.74L202.35,476.3c-4.69,4.7-12.31,4.69-17.01,0      l-28.47-28.48c25.59-25.59,25.6-67.09,0-92.69c-25.6-25.59-67.1-25.59-92.69,0L35.7,326.66c-4.69-4.7-4.7-12.32,0-17.01      L110.45,234.91z" fill="none"/><g><g><path d="M249.98,378.44c-1.024,0-2.047-0.391-2.829-1.172l-139.53-139.53c-1.562-1.563-1.567-4.1-0.005-5.662        c1.562-1.562,4.089-1.568,5.652-0.005l139.54,139.541c1.562,1.562,1.562,4.095,0,5.656        C252.027,378.05,251.003,378.44,249.98,378.44z" fill="#C98B0E"/></g></g><g><g><path d="M401.56,281.1c-1.023,0-2.048-0.391-2.828-1.172l-139.54-139.539c-1.563-1.563-1.563-4.095,0-5.657        c1.561-1.562,4.096-1.562,5.656,0l139.54,139.54c1.563,1.562,1.563,4.095,0,5.656C403.607,280.709,402.583,281.1,401.56,281.1        z" fill="#C98B0E"/></g></g></g></g></g><linearGradient gradientUnits="userSpaceOnUse" id="SVGID_1_" x1="252.58" x2="339.33" y1="252.58" y2="339.33"><stop offset="0" style="stop-color:#000000"/><stop offset="1" style="stop-color:#FFFFFF;stop-opacity:0"/></linearGradient><path d="M476.3,202.36l-74.74,74.74L202.35,476.3c-4.69,4.7-12.31,4.69-17.01,0l-28.47-28.48   c25.59-25.59,25.6-67.09,0-92.69c-1.15-1.15-2.34-2.25-3.55-3.29l201.81-194.97c25.6,25.6,67.1,25.59,92.69,0l28.48,28.47   C480.99,190.04,481,197.66,476.3,202.36z" fill="url(#SVGID_1_)" opacity="0.2"/></g></svg>