<svg xmlns="http://www.w3.org/2000/svg" width="458.838" height="432.362" viewBox="0 0 458.838 432.362"><defs><style>.a,.e{fill:#f5f2f7;}.b{fill:#e6daed;}.c{fill:#8e6b96;}.d{fill:#ff5473;}.e{opacity:0.52;}.ah,.aj,.ak,.al,.f,.x{fill:#fff;}.g{fill:#715977;}.h,.i{fill:#44244c;}.i{opacity:0.66;}.ac,.aq,.ar,.i,.m,.q{mix-blend-mode:soft-light;isolation:isolate;}.j{fill:#ff948f;}.k{fill:#ada874;}.aa,.ag,.as,.l,.n,.s,.v,.y,.z{fill:none;stroke-miterlimit:10;}.l{stroke:#f7f1f3;stroke-width:1.069px;}.m,.x{opacity:0.3;}.n{stroke:#ada874;stroke-width:0.974px;}.o{fill:#ffd9ab;}.p{fill:#ffe6c7;}.ac,.q{fill:#542e54;}.ar,.q{opacity:0.75;}.r{fill:#ffaf8f;}.s{stroke:#852d4c;stroke-width:1.392px;}.t{fill:#fcc0cc;}.u{fill:#ffccd5;}.aa,.as,.v,.y,.z{stroke:#fff;}.v{stroke-width:1.447px;}.w{fill:#cab8d6;}.y{stroke-width:0.828px;}.z{stroke-width:0.798px;}.aa,.ag{stroke-linecap:round;}.aa{stroke-width:0.828px;}.ab{fill:#a8425f;}.ad{fill:#ffe5ea;}.ae{fill:#ffecf0;}.af{fill:#ede7f1;}.ag{stroke:#44244c;stroke-width:1.947px;}.ah{font-size:25px;}.ah,.aj,.ak,.al{font-family:SegoeUI, Segoe UI;}.ai{font-size:18px;}.aj{font-size:42px;}.ak{font-size:21px;}.al{font-size:17px;}.am{fill:#f7feff;}.an{fill:#eee8f2;}.ao{fill:#ffba9a;}.ap{fill:#943a61;}.aq,.ar{fill:#4f384f;}.as{stroke-width:1.36px;}.at{fill:#ffdbb8;}</style></defs><g transform="translate(-43.583 -45.406)"><g transform="translate(72.69 201.085)"><path class="a" d="M139.225,276.156,96.2,255.277l29.933-63.233,50.378,24.794Z" transform="translate(-69.446 -192.044)"/><path class="b" d="M155.839,228.735l-1.517-1.419-30.618-18.1-.16,2.086Z" transform="translate(-67.761 -190.985)"/><path class="b" d="M153.736,230.994l0,1.778L121.95,215.32l.261-.849Z" transform="translate(-67.859 -190.661)"/><path class="b" d="M151.686,236.305l-32.1-18.189-.308,2.008,32.157,16.661Z" transform="translate(-68.024 -190.436)"/><path class="b" d="M148.573,242.437l-1.517-1.419-30.618-18.1L116.277,225Z" transform="translate(-68.209 -190.141)"/><path class="b" d="M146.469,244.7l0,1.778-31.789-17.451.261-.849Z" transform="translate(-68.307 -189.816)"/><g transform="translate(0 26.073)"><path class="c" d="M92.842,245.812l-.694-1.606A1.327,1.327,0,0,1,93,242.56l5.8-2.508a1.327,1.327,0,0,1,1.781.506l.694,1.607a1.326,1.326,0,0,1-.85,1.644l-5.8,2.508A1.327,1.327,0,0,1,92.842,245.812Z" transform="translate(-69.701 -215.165)"/><path class="d" d="M96.474,247.764,75.1,258.7,71,249.578l24.317-8.624Z" transform="translate(-71 -215.101)"/><g transform="translate(28.133)"><path class="e" d="M123.914,251.375a16.144,16.144,0,1,0-21.226-8.411A16.145,16.145,0,0,0,123.914,251.375Z" transform="translate(-97.261 -216.368)"/><path class="f" d="M1.866,0H35.728a1.866,1.866,0,0,1,1.866,1.866V4.129A1.866,1.866,0,0,1,35.729,6H1.867A1.867,1.867,0,0,1,0,4.129V1.866A1.866,1.866,0,0,1,1.866,0Z" transform="translate(1.249 22.952) rotate(-23.385)"/><path class="f" d="M137.092,234.859l-33.316,14.406a.652.652,0,0,1-.854-.339l-.674-1.56a.652.652,0,0,1,.338-.854l33.316-14.4a.65.65,0,0,1,.854.338l.674,1.56A.651.651,0,0,1,137.092,234.859Z" transform="translate(-97.21 -215.65)"/><path class="g" d="M136.247,228.791a20.2,20.2,0,1,0-10.525,26.559A20.2,20.2,0,0,0,136.247,228.791Zm-32.731,14.153A15.458,15.458,0,1,1,123.84,251,15.46,15.46,0,0,1,103.516,242.944Z" transform="translate(-97.499 -216.602)"/></g></g></g><g transform="translate(131.551 165.737)"><g transform="translate(60.702 54.92)"><rect class="h" width="4.657" height="47.936" transform="translate(46.286 167.582) rotate(0.064)"/><path class="g" d="M233.724,401.728l-8.437-.118,1.292-11.369,6.718.258Z" transform="translate(-181.05 -199.397)"/><path class="h" d="M237.095,415.084l-14.728-.258,1.55-16.02,11.627-.814Z" transform="translate(-181.23 -198.919)"/><rect class="h" width="12.868" height="48.389" transform="matrix(1, 0.001, -0.001, 1, 28.915, 100.246)"/><path class="d" d="M270.119,347.616l-61.924-.089c-12.919,0-19.989,5.016-20,11.222v.815c-.007,6.205,5.011,11.249,15.347,11.249l15.032.023,51.514.065a11.233,11.233,0,0,0,11.249-11.22v-.816A11.236,11.236,0,0,0,270.119,347.616Z" transform="translate(-183.337 -202.031)"/><path class="d" d="M240.864,339.03l-12.393-.015a38.086,38.086,0,0,1-38.038-38.134l.054-43.823.012-8.541a38.085,38.085,0,0,1,38.133-38.038l12.393.016a38.085,38.085,0,0,1,38.037,38.133L279,300.993A38.083,38.083,0,0,1,240.864,339.03Z" transform="translate(-183.199 -210.48)"/><path class="i" d="M228.165,337.482l-4.506-.006A25.39,25.39,0,0,1,198.3,312.054l.021-16.991.024-19.3A25.39,25.39,0,0,1,223.769,250.4l4.506.006a25.389,25.389,0,0,1,25.358,25.421l-.046,36.293A25.39,25.39,0,0,1,228.165,337.482Z" transform="translate(-182.714 -208.019)"/><g transform="translate(0 214.421)"><g transform="translate(3.722)"><path class="g" d="M275.611,446.979l-2.794,0a31.706,31.706,0,0,0-31.629-31.709l-19.56-.023a31.7,31.7,0,0,0-31.708,31.628l-2.794,0a34.5,34.5,0,0,1,34.506-34.419l19.56.024A34.5,34.5,0,0,1,275.611,446.979Z" transform="translate(-187.125 -412.449)"/></g><path class="h" d="M194.8,443.01a5.589,5.589,0,1,0-5.6,5.581A5.588,5.588,0,0,0,194.8,443.01Z" transform="translate(-183.619 -410.91)"/><path class="h" d="M275.071,443.11a5.589,5.589,0,1,0-5.6,5.582A5.588,5.588,0,0,0,275.071,443.11Z" transform="translate(-178.67 -410.904)"/><g transform="translate(46.57 2.339)"><rect class="g" width="32.134" height="2.794" transform="translate(0 32.134) rotate(-89.935)"/></g><path class="h" d="M235.153,443.06a5.589,5.589,0,1,0-5.6,5.582A5.588,5.588,0,0,0,235.153,443.06Z" transform="translate(-181.131 -410.907)"/></g></g><path class="j" d="M261.236,419.18c-1.043,1.354-8.035,8.745-8.6,9.574l-.3.717,2.15,10.063c.462-.029,3.076,5.85,3.265,6.41s-.246,1.335-.827,1.274a1.274,1.274,0,0,1-.564-.254c-.109-.074-.229-.161-.344-.242l.023.079-.862-.692c-.822-.621-1.7-1.333-2.528-2.026L233.5,426.137s12.33-15.013,16.3-20.224" transform="translate(-119.842 -143.511)"/><path class="g" d="M234.262,424.059a81.94,81.94,0,0,0,15.9,13.043l4.329-.085a88.835,88.835,0,0,1,9.5,15.637s-11.468-5.529-18.816-11.688-13.787-12.541-13.787-12.541Z" transform="translate(-119.972 -142.392)"/><g transform="translate(240.862 99.129)"><path class="d" d="M368.151,257.39a2.3,2.3,0,0,0,2.549-.649c.8-.813,2.723-2.549,1.476-3.441s-2.048,1.271-3.072,1.906a6.481,6.481,0,0,0,.116-2.261c-.044-.358-.2-.792-.561-.822s-.578.355-.714.679q-.478,1.135-.954,2.269a3.207,3.207,0,0,0-.888-2.039,1.056,1.056,0,0,0-.9-.4c-.4.076-.615.5-.713.895a4.126,4.126,0,0,0,3.5,4.9" transform="translate(-352.635 -252.122)"/><path class="k" d="M370.314,289.858c3.219-6.8,5.721-13.4,6.053-20.917.161-3.63-.9-8.579-3.717-10.878-2.916-2.383-7.5-1.739-10.41.647s-4.433,6.082-5.291,9.75c-1.857,7.946.265,17.972,5.417,24.3a3.094,3.094,0,0,0,2.234,1.555,3.312,3.312,0,0,0,3.819-1.232" transform="translate(-353.134 -251.848)"/><path class="l" d="M366.782,256.918c-3.809,3.348-5.372,11.476-5.456,16.548-.1,6.271.746,10.177,2.763,16.116" transform="translate(-352.824 -251.826)"/><path class="l" d="M369.15,256.918c1.753,4.737,1.931,10.994,1.273,16a80.721,80.721,0,0,1-3.273,14.547" transform="translate(-352.464 -251.826)"/><path class="d" d="M356.041,286.286l2.062,13.573h14.735l3.241-13.875Z" transform="translate(-353.149 -250.034)"/><path class="d" d="M353.873,282.1h24.143a.555.555,0,0,1,.537.7l-1.475,5.651a.555.555,0,0,1-.556.416l-21.222-.725a.555.555,0,0,1-.514-.4l-1.446-4.926A.555.555,0,0,1,353.873,282.1Z" transform="translate(-353.317 -250.273)"/><path class="m" d="M375.17,288.611l-19-.767,18.427,4.415Z" transform="translate(-353.142 -249.919)"/><path class="l" d="M361.873,261.206c-.064.242-.128.483-.192.725" transform="translate(-352.802 -251.561)"/><path class="l" d="M360.132,271.991c-.023.25-.045.5-.067.746" transform="translate(-352.901 -250.897)"/><path class="l" d="M367.154,266.339c-.021.248-.045.5-.066.746" transform="translate(-352.468 -251.245)"/><path class="l" d="M359.269,265.82q-.147.736-.291,1.47" transform="translate(-352.968 -251.277)"/><path class="l" d="M365.264,263.252q-.147.734-.291,1.469" transform="translate(-352.599 -251.435)"/><path class="l" d="M368.178,258.288v1.09" transform="translate(-352.401 -251.741)"/><path class="l" d="M365.1,271.477v1.637" transform="translate(-352.591 -250.928)"/><path class="l" d="M367.664,276.615v.546" transform="translate(-352.433 -250.611)"/><path class="l" d="M359.785,279.527v.546" transform="translate(-352.918 -250.432)"/><path class="l" d="M363.895,278.671v.909" transform="translate(-352.665 -250.485)"/><path class="l" d="M372.6,261.375l.183,1.636" transform="translate(-352.128 -251.551)"/><path class="l" d="M372.289,266.853v.909" transform="translate(-352.148 -251.213)"/><path class="l" d="M371.775,273.019v1.636" transform="translate(-352.179 -250.833)"/><path class="l" d="M370.4,279.7c-.059.243-.121.484-.182.727" transform="translate(-352.275 -250.422)"/><path class="l" d="M373.488,270.449v.91" transform="translate(-352.074 -250.992)"/><path class="k" d="M360.446,260.274a27.156,27.156,0,0,1-2.344-2.016l1.838,3.088Z" transform="translate(-353.022 -251.743)"/><path class="k" d="M361.906,259.54l-.922-1.081Z" transform="translate(-352.844 -251.731)"/><path class="k" d="M374.731,267.78q.713-.306,1.427-.611L374.167,267" transform="translate(-352.032 -251.204)"/><path class="n" d="M372.488,279l1.252.761-1.572.124Z" transform="translate(-352.155 -250.464)"/><path class="l" d="M357.577,275.57q0,.75-.007,1.5" transform="translate(-353.055 -250.676)"/><path class="k" d="M356.786,273.38l-1.276.721,1.582.115" transform="translate(-353.182 -250.811)"/></g><path class="h" d="M172.421,302.766l-1.763,150.812h2.056l7.931-150.185Z" transform="translate(-123.716 -149.87)"/><path class="h" d="M356.372,302.766l1.763,150.812h-2.057l-7.93-150.185Z" transform="translate(-112.774 -149.87)"/><path class="o" d="M227.947,173.187c2.426-2.274,2.351-6.4.463-9.143s-5.144-4.246-8.4-4.906c-7.656-1.551-16.472,1.581-20.161,8.467-3.191,5.959-2.384,13.8-6.8,18.923-1.887,2.189-4.51,3.585-6.74,5.423a21.123,21.123,0,0,0-4.45,5.061,3.915,3.915,0,0,0-.764,3.365,2.909,2.909,0,0,0,3.326,1.463,8.49,8.49,0,0,0,3.4-1.943c-.917,3.717-1.839,7.593-1.026,11.334s3.921,7.283,7.749,7.243c3-.032,5.636-2.244,7.044-4.9s1.822-5.7,2.215-8.678c-1.581,1.8.565,4.907,2.958,4.839s4.265-2.155,5.233-4.345a13.627,13.627,0,0,0,1.075-6.981" transform="translate(-123.082 -158.749)"/><path class="p" d="M249.423,206.85c7.121-.713,12.683-7.664,12.936-14.814S258.282,178.06,252.3,174.13s-13.373-5.252-20.524-5.016a24.047,24.047,0,0,0-8,1.394,21.649,21.649,0,0,0-7.278,5.059,35.57,35.57,0,0,0-9.417,17.058c-1.538,6.719-.811,14.457,3.948,19.443,5.953,6.238,16.137,6.133,24.2,3.072,5.18-1.966,10.544-5.873,10.709-11.412" transform="translate(-121.515 -158.112)"/><path class="j" d="M255.186,190.957c-.047-.337-.125-.647-.2-.959-1.238.708-22.089-7.68-29.865-4.7.039,3.61-2.187,20.462-2.736,18a5.246,5.246,0,0,0-1.082-.224,5.832,5.832,0,1,0,1.526,11.272s-.13,18.547-.13,19.146c0,7.381,5.985,26.021,13.365,26.021S249.43,240.87,249.43,233.49c0-.563-.114-9.083-.114-9.083,7.029-2.344,8.117-9.569,7.184-15.984S255.186,190.957,255.186,190.957Z" transform="translate(-120.984 -157.152)"/><path class="q" d="M247.781,222.1a20.764,20.764,0,0,1-7.88.811l7.88,6.937Z" transform="translate(-119.447 -154.843)"/><path class="r" d="M219.2,252.1a11.822,11.822,0,0,0-6.516-15.4c-.257-.1-.516-.182-.775-.265l-.005-.048a9.822,9.822,0,0,0-5.6-.333,11.838,11.838,0,0,0-1.815.469c-16.183,5.11-40.655,36.231-45.319,50.129,0,.013-.516.943-.713,1.435a9.836,9.836,0,0,0,17.86,8.208c15.9-22.5,38.268-38.544,38.268-38.544l-.007-.058A11.869,11.869,0,0,0,219.2,252.1Z" transform="translate(-124.513 -153.998)"/><path class="s" d="M314.6,277.209a2.516,2.516,0,0,1,.8,2.261" transform="translate(-114.842 -151.446)"/><path class="t" d="M234.626,331.3l.285.041v-.082l24.166-3.885,5.6-43.364s6.287-10.9,2.021-20.177c0,0,3.028-16.591,3.285-28.005a107.761,107.761,0,0,0-21.762-3.53l-13.593,17.043" transform="translate(-119.773 -154.215)"/><path class="u" d="M236.679,331.3l-.283.041v-.082l-24.359-6.47-5.4-40.779s-9.065-10.38-2.864-23.817a198.685,198.685,0,0,1-2.442-24.365,121.4,121.4,0,0,1,22.494-3.53l12.859,17.043,1.884,34.8L236.679,331.3" transform="translate(-121.826 -154.215)"/><path class="p" d="M257.276,194.063c-6.545,1.182-15.464-2.553-20.574-6.809.908,1.427,2.021,3.176.924,3.843-1.361.826-7.539-2.238-9.481-4.023.677,1.152,3.369,4.07,2.331,4.849s-3.761-.519-5-2.18a53.5,53.5,0,0,1,1.481,13.742c-.113,4.587-2.088,2.914-2.8,2.153-4.613-4.92-8.287-11.865-7.185-18.519a11.982,11.982,0,0,1,2.14-5.54c2.607-3.3,7.331-3.868,11.537-3.954,5.316-.107,10.763.165,15.687,2.168s9.288,6.017,10.5,11.194" transform="translate(-120.873 -157.586)"/><g transform="translate(113.522 38.194)"><path class="p" d="M234.191,197.159c.624-.122,1.183-.466,1.823-.568a14.8,14.8,0,0,0,1.857-.2.588.588,0,0,0,.257-.97c-1.115-1.261-3.958-.673-4.677.78a.664.664,0,0,0,.74.963Z" transform="translate(-233.372 -194.725)"/><g transform="translate(12.418 0.581)"><path class="p" d="M249.851,197.205c-.42-1.659-3.356-2.572-4.615-1.41a.584.584,0,0,0,.117.912,12.922,12.922,0,0,0,1.89.476c.649.182,1.182.645,1.825.806a.644.644,0,0,0,.783-.783Z" transform="translate(-245.069 -195.273)"/></g></g><path class="h" d="M250.7,360.181a15.4,15.4,0,1,1,6.827-30.042c.323.073,60.806,10.724,71.836,16.029s14.691,9.982,11.284,19.208c-7.409,20.066-12.5,10.185-20.329,8.7l-7.751-.516C234.669,355.852,245.475,358.993,250.7,360.181Z" transform="translate(-119.521 -148.206)"/><path class="h" d="M236.145,312.375a144.446,144.446,0,0,1-27.718-2.663s-5.476,14.929-6.014,19.085c-.674,5.214-1.221,16.829-1.221,16.829,0,6.95,4.145,11.9,9.754,14.35l20.916,2.228h9.966l20.916-2.228c5.61-2.446,9.439-9.143,9.439-16.091,0,0-.281-7.788-.957-15.088s-9.055-19.6-9.055-19.6S251.662,312.375,236.145,312.375Z" transform="translate(-121.834 -149.474)"/><g transform="translate(81.232 162.002)"><path class="v" d="M213.069,316.245a13.963,13.963,0,0,0,2.072-4.9" transform="translate(-202.334 -311.343)"/><path class="v" d="M203.743,322.357a13.777,13.777,0,0,0,7.619-3.829" transform="translate(-202.909 -310.9)"/><path class="v" d="M202.957,328.351c8.287-.936,16.107-8.48,17.605-16.685" transform="translate(-202.957 -311.323)"/><path class="v" d="M266.521,322.788a14.968,14.968,0,0,1-12.169-11.241" transform="translate(-199.788 -311.33)"/><path class="v" d="M260.436,325.942c-5.431-3.111-9.856-8.221-10.925-14.072" transform="translate(-200.087 -311.31)"/><path class="v" d="M266.548,327.4a16.8,16.8,0,0,1-4.042-1" transform="translate(-199.286 -310.414)"/><path class="v" d="M239.9,312.925c.138,9.76.276,14.126.276,14.126" transform="translate(-200.679 -311.245)"/></g><path class="h" d="M299.64,367.935a14.87,14.87,0,0,0-24.275-17.182l-38.1,68.586a44.814,44.814,0,0,0,8.21,7.055,31.791,31.791,0,0,0,11.714,4.376Z" transform="translate(-119.61 -147.299)"/><path class="h" d="M201.962,339.475c.785-8.471,10.137-11.335,18.481-9.677.324.065,71.814,15.368,72.363,15.479a14.868,14.868,0,0,1,11.685,17.483c-1.567,7.877-9.4,10.8-17.261,9.529l-5.167-1.033C193.393,366.155,200.671,353.427,201.962,339.475Z" transform="translate(-121.829 -148.231)"/><path class="v" d="M227.7,331.435q30,5.477,59.652,12.712c4.048.988,8.462,1.97,11.244,5.075,5.71,6.374,5.043,13.034.383,21.69" transform="translate(-120.2 -148.102)"/><path class="v" d="M265.932,332.678c-1.259.145-3.456.758-4.314,1.69" transform="translate(-118.108 -148.026)"/><path class="v" d="M224.917,331.558a12.871,12.871,0,0,0-6.488-1.52" transform="translate(-120.771 -148.189)"/><path class="v" d="M221.964,327.652a2.233,2.233,0,0,1,2.037.909" transform="translate(-120.553 -148.337)"/><path class="v" d="M261.322,330.994a2.237,2.237,0,0,0-1.506,1.49" transform="translate(-118.22 -148.13)"/><rect class="w" width="238.369" height="15.314" transform="translate(26.301 150.232)"/><path class="b" d="M149.519,302.766,135.537,461.9h2.33l20.974-158.469Z" transform="translate(-125.882 -149.87)"/><path class="b" d="M380.047,302.766,394.029,461.9H391.7L370.725,303.431Z" transform="translate(-111.382 -149.87)"/><path class="x" d="M240.436,204.146c.81-2.234-.849-5.1-3.671-6.126s-10.647-.881-10.769.16,3.989,6.916,6.666,8.281C235.927,208.125,239.625,206.379,240.436,204.146Z" transform="translate(-120.305 -156.371)"/><path class="x" d="M245.22,205.15c-1.159-1.973-.09-4.981,2.4-6.446s9.931-2.7,10.228-1.736-2.564,7.25-4.86,9.011C250.189,208.129,246.381,207.124,245.22,205.15Z" transform="translate(-119.148 -156.414)"/><path class="y" d="M240.436,204.146c.81-2.234-.849-5.1-3.671-6.126s-10.647-.881-10.769.16,3.989,6.916,6.666,8.281C235.927,208.125,239.625,206.379,240.436,204.146Z" transform="translate(-120.305 -156.371)"/><path class="z" d="M245.22,205.15c-1.159-1.973-.09-4.981,2.4-6.446s9.931-2.7,10.228-1.736-2.564,7.25-4.86,9.011C250.189,208.129,246.381,207.124,245.22,205.15Z" transform="translate(-119.148 -156.414)"/><line class="aa" y1="1.748" x2="4.244" transform="translate(102.206 44.697)"/><path class="v" d="M208.406,326.116c-1.011,6.607-2.927,14.159,2.547,19.237s61.154,8.575,64.649,14.317-5.149,19.47-8.893,24.963l-23.514,38.242" transform="translate(-121.461 -148.43)"/><path class="j" d="M301.282,423.191c-.516,1.52-4.484,10.2-4.737,11.112l-.048.727,4.962,8.287c.4-.166,4.506,4.263,4.843,4.7s.187,1.259-.348,1.382a1.194,1.194,0,0,1-.578-.054c-.12-.034-.253-.074-.379-.111l.046.063-.977-.352c-.919-.3-1.912-.67-2.86-1.033l-22.45-10.132s6.4-17.073,8.347-22.907" transform="translate(-117.052 -142.958)"/><path class="g" d="M279.25,435.3a76.924,76.924,0,0,0,18.076,6.764l3.82-1.389a83.337,83.337,0,0,1,13.178,11.008s-11.863-1.432-20.256-4.674-16.049-6.958-16.049-6.958Z" transform="translate(-117.097 -141.699)"/><path class="ab" d="M246.88,201.957c0,.751.271,1.36.6,1.36s.6-.609.6-1.36-.27-1.36-.6-1.36S246.88,201.205,246.88,201.957Z" transform="translate(-119.017 -156.169)"/><path class="ab" d="M235.685,201.957c0,.751.27,1.36.6,1.36s.605-.609.605-1.36-.271-1.36-.605-1.36S235.685,201.205,235.685,201.957Z" transform="translate(-119.707 -156.169)"/><g transform="translate(107.235 42.291)"><path class="ac" d="M245.386,209.1h-4.876l1.052-10.517h1.912Z" transform="translate(-226.645 -198.584)"/><path class="q" d="M236.246,208.535a4.4,4.4,0,1,0-4.4,4.4A4.4,4.4,0,0,0,236.246,208.535Z" transform="translate(-227.45 -198.242)"/><path class="q" d="M253.867,203.322a4.4,4.4,0,1,0-.854,8.712,4.35,4.35,0,0,0,1.842-.417,26.115,26.115,0,0,0-.3-3.436C254.346,206.828,254.11,205.138,253.867,203.322Z" transform="translate(-226.145 -198.298)"/><path class="f" d="M241.251,210.548c-.922-1.357-2.416-1.819-3.134-1.006a1.647,1.647,0,0,0-.22,1.719,3.314,3.314,0,0,0,1.222,1.341,3.789,3.789,0,0,0,2.908.558c.985-.213,2.164-1.175,1.874-2.14-.2-.685-1.272-.745-2.65-.471" transform="translate(-226.815 -197.934)"/></g><path class="h" d="M336.77,367.431a14.87,14.87,0,0,0-27.446-11.454l-27.215,72.331a32.688,32.688,0,0,0,9.181,6.209,26.957,26.957,0,0,0,10.136,2.182Z" transform="translate(-116.845 -147.153)"/><path class="ad" d="M248.035,229.609,237.7,245.37l8.785,4.651,11.11-16.536Z" transform="translate(-119.583 -154.38)"/><path class="ae" d="M222.862,230.1l10.077,15.245-8.785,4.651-9.819-16.536Z" transform="translate(-121.024 -154.35)"/><path class="u" d="M206.819,234.792s-14.3,3.214-26.1,17.519-24.345,28.863-23.341,41.663,31.623-.754,32.628-4.769,1.505-6.526-1.506-7.78c0,0,3.516,1.1,3.012-2.511,0,0,11.675-11.751,16.63-16.041S218,235.22,206.819,234.792Z" transform="translate(-124.539 -154.061)"/><path class="j" d="M205.379,283.182c-.015,0-37.347-3.46-37.475-3.472a9.755,9.755,0,1,0-1.727,19.432c.07.006.138,0,.207.008,13.289,1.623,41.41-1.8,41.41-1.8s8.191-3.012,7.6-7.759S210.32,283.392,205.379,283.182Z" transform="translate(-124.541 -151.294)"/><path class="ae" d="M180.237,280.96s-12.905-6.425-19.682-2.157-10.291,17.568,3.765,19.827c0,0-6.974-4.251-6.373-9.656s4.616-8.918,12.145-8.666S180.237,280.96,180.237,280.96Z" transform="translate(-124.705 -151.438)"/><path class="t" d="M263.995,235s12.76-1.332,29.038,18.046c12.278,14.617,27.488,20.688,28.462,33.871s-12.589,10.826-16.319,8.763c-12.143-6.718-28.421-21.7-40.187-32.5C260.018,258.623,252.684,237.181,263.995,235Z" transform="translate(-118.33 -154.049)"/><path class="j" d="M345.125,261.94c-.011.011-25.731,28.79-25.82,28.89a10.043,10.043,0,0,1-14.926-13.442c.049-.053.1-.1.152-.151,8.88-10.54,32.481-27.674,32.481-27.674s8.286-3.471,11.171.521S348.7,258.318,345.125,261.94Z" transform="translate(-115.631 -153.236)"/><path class="q" d="M319.112,288.352l-14.183.742S310.1,295.164,319.112,288.352Z" transform="translate(-115.438 -150.759)"/><path class="j" d="M355.415,252.752s6.886-3.552,8.624-3.095c1.393.365-2.212,3.343-7.567,6.64-4.042,2.49-20.235,8.307-20.256,8.325-3.066,2.481-6.327,3.118-8.807.052s-3.613-2.754-.546-5.235c.3-.243,1.615-2.293,1.94-2.48l.21-1.992s13.869-10.27,19.6-7.663a17.223,17.223,0,0,1,3.751-6.318c2.72-2.718-.031,5.718-.031,5.718s4.172-7,5.81-6.253-3.912,8.6-3.912,8.6,2.275-2.752,4.089-4.861C361.256,240.779,365.494,239.94,355.415,252.752Z" transform="translate(-114.2 -153.715)"/><path class="ae" d="M328.362,278.65S322.6,293.3,314.577,295.178s-20.313-5.177-11.8-17.1c0,0-1.932,8.183,2.46,11.654s9.871,3.071,15.135-2.624S328.362,278.65,328.362,278.65Z" transform="translate(-115.749 -151.392)"/><path class="aa" d="M239.882,202.07a4.578,4.578,0,0,1,5.047.085" transform="translate(-119.449 -156.124)"/><path class="ae" d="M239.442,255.874a1.034,1.034,0,1,0-1.033,1.032A1.033,1.033,0,0,0,239.442,255.874Z" transform="translate(-119.603 -152.825)"/><path class="ae" d="M239.766,266.582a1.033,1.033,0,1,0-1.033,1.033A1.033,1.033,0,0,0,239.766,266.582Z" transform="translate(-119.583 -152.165)"/><path class="ae" d="M240.416,276.317a1.034,1.034,0,1,0-1.034,1.033A1.035,1.035,0,0,0,240.416,276.317Z" transform="translate(-119.543 -151.564)"/><path class="ae" d="M240.091,288.324a1.034,1.034,0,1,0-1.033,1.033A1.034,1.034,0,0,0,240.091,288.324Z" transform="translate(-119.563 -150.824)"/><path class="f" d="M206.532,298.241a9.742,9.742,0,1,1,19.485,0" transform="translate(-121.505 -150.75)"/><path class="a" d="M215.708,298.241h9.743a9.743,9.743,0,0,0-9.743-9.743" transform="translate(-120.939 -150.75)"/><path class="j" d="M218.345,284.321s7.665-1.247,8.793-2.654c.9-1.125-3.777-1.372-10.058-.831-4.741.409-21.255,5.39-21.283,5.389-3.951-.168-6.958,1.266-7.125,5.216s-1.265,4.373,2.685,4.541c.387.017,2.67.883,3.043.84l1.359,1.479s13.185,3.695,20.361-5.531a17.24,17.24,0,0,0,6.792,2.849c3.811.565-3.439-4.586-3.439-4.586s7.538,3.146,8.411,1.567-8.283-4.591-8.283-4.591,3.474.86,6.195,1.475C230.2,290.477,234.109,288.624,218.345,284.321Z" transform="translate(-122.622 -151.239)"/><path class="f" d="M226.748,297.449h79.325l-2.938-3.1H229.685Z" transform="translate(-120.258 -150.389)"/><g transform="translate(136.52 57.4)"><path class="h" d="M288.676,272.492s6.91,24.887-2.6,24.494-21.39-.881-21.39-.881l-.116,2.772,26.144,1.078a159.208,159.208,0,0,0,20.468-1.016c8.78-1.225-2.637-27.214-2.637-27.214Z" transform="translate(-254.446 -209.184)"/><path class="g" d="M293.6,287.5a68.285,68.285,0,0,0-2.029-12.137l-2.159-.089c1.487,6.609,3.662,20.179-3.786,20.365-9.466.238-20.94.243-20.94.243l-.116,3.543,23.185-.709C293.2,298.956,293.793,292.022,293.6,287.5Z" transform="translate(-254.446 -208.965)"/><path class="b" d="M350.728,219.146l-82.247-4.582-12.887,64.743,2.583,2.325,78.773-1.315Z" transform="translate(-255 -212.708)"/><path class="f" d="M308.141,244.541a3.521,3.521,0,1,0-5.1,1.542A3.788,3.788,0,0,0,308.141,244.541Z" transform="translate(-252.166 -211.214)"/><path class="a" d="M266.807,212.816l3.491,1.929-11.8,67.168-3.467-2.524Z" transform="translate(-255.034 -212.816)"/><path class="af" d="M266.123,212.816l80.971,4.438,2.985,2-80.465-4.508Z" transform="translate(-254.351 -212.816)"/><path class="f" d="M319.376,270.7,282.6,269.621a5.2,5.2,0,0,1-4.965-6.082l.273-1.577a5.2,5.2,0,0,1,5.5-4.3L321.743,261c2.994.216,4.925,2.321,4.519,5.294h0C325.292,269.99,322.035,270.782,319.376,270.7Z" transform="translate(-253.645 -210.052)"/><path class="h" d="M284.113,266.9q.459-3.1.918-6.2a7.915,7.915,0,0,1,.2,3.508A6.524,6.524,0,0,1,284.113,266.9Z" transform="translate(-253.241 -209.864)"/><path class="h" d="M288.87,267.08c.306-2.068.6-3.848.908-5.917a8.445,8.445,0,0,1,.292,3.277A3.549,3.549,0,0,1,288.87,267.08Z" transform="translate(-252.948 -209.835)"/><path class="h" d="M293.161,267.254c.306-2.068.606-3.8.912-5.867a11.027,11.027,0,0,1,.156,3.128A5.989,5.989,0,0,1,293.161,267.254Z" transform="translate(-252.684 -209.821)"/><path class="h" d="M297.731,267.428c.307-2.069.6-3.551.9-5.619a7.2,7.2,0,0,1,.09,3.21A4.936,4.936,0,0,1,297.731,267.428Z" transform="translate(-252.402 -209.795)"/><path class="h" d="M302.063,267.747c.307-2.068.6-3.552.9-5.62a8.655,8.655,0,0,1,.092,3.4A4.621,4.621,0,0,1,302.063,267.747Z" transform="translate(-252.135 -209.776)"/><path class="h" d="M305.754,267.759c.145-.981.287-1.831.428-2.673.157-.934.313-1.86.473-2.947a15.66,15.66,0,0,1,.068,3.215A6.664,6.664,0,0,1,305.754,267.759Z" transform="translate(-251.907 -209.775)"/><path class="h" d="M309.765,267.924c.307-2.068.6-3.551.9-5.619a8.249,8.249,0,0,1,.276,3.127A3.536,3.536,0,0,1,309.765,267.924Z" transform="translate(-251.66 -209.765)"/><path class="h" d="M313.449,268.065c.307-2.068.588-3.354.895-5.422a9.681,9.681,0,0,1,.088,3.564C314.079,267.8,313.449,268.065,313.449,268.065Z" transform="translate(-251.433 -209.744)"/><path class="h" d="M317.367,268.226c.138-.931.272-1.7.4-2.46.161-.924.323-1.825.492-2.961a9.931,9.931,0,0,1,.042,3.525C317.951,267.922,317.367,268.226,317.367,268.226Z" transform="translate(-251.191 -209.734)"/></g><path class="q" d="M158.936,283.51,163.058,298S153.76,292.824,158.936,283.51Z" transform="translate(-124.536 -151.057)"/><path class="o" d="M416.082,297.317H126.442l23.637,8.573H395.108Z" transform="translate(-126.442 -150.206)"/><ellipse class="h" cx="6.546" cy="6.89" rx="6.546" ry="6.89" transform="translate(92.622 43.447)"/><g transform="translate(98.134 10.377)"><path class="h" d="M219.912,207.451a1.034,1.034,0,0,1-1.034-1.034V186.435a18.08,18.08,0,0,1,6.211-13.9c2.77-2.346,7.63-4.984,14.975-3.66,3.382.61,6.15,2.419,5.579,2.419s-1.808-.323-5.426-.84a17.588,17.588,0,0,0-13.791,3.657,16.014,16.014,0,0,0-5.48,12.319v19.981A1.034,1.034,0,0,1,219.912,207.451Z" transform="translate(-218.878 -168.523)"/></g><path class="g" d="M224.7,206.443a4.588,4.588,0,1,0-4.581,4.824A4.707,4.707,0,0,0,224.7,206.443Z" transform="translate(-120.95 -156.106)"/><path class="ag" d="M220.345,207.187s1.632,8.617,13.266,9.266" transform="translate(-120.653 -155.763)"/><path class="g" d="M236.386,216.454A2.49,2.49,0,1,1,234.2,214.1,2.286,2.286,0,0,1,236.386,216.454Z" transform="translate(-119.965 -155.338)"/></g><g transform="translate(79.331 79.905)"><path class="k" d="M146.7,117.573,140.576,83.9,84.247,79s-8.572,37.349-6.734,36.736S146.7,117.573,146.7,117.573Z" transform="translate(-77.255 -77.834)"/><text class="ah" transform="matrix(0.997, 0.08, -0.08, 0.997, 33.403, 28.677)"><tspan x="-21.835" y="0">24</tspan><tspan class="ai" y="0">/7</tspan></text></g><g transform="translate(334.783 55.416)"><path class="w" d="M364.42,68.907l-3.872-1.086a9.967,9.967,0,0,0-.511-2.369l3.085-2.582-2.655-3.844h0L356.953,61a9.954,9.954,0,0,0-2.029-1.308l.357-4.017-4.6-.842h0l-1.091,3.894a10.04,10.04,0,0,0-2.345.509l-2.6-3.105h0L340.8,58.787h0l1.987,3.536a10,10,0,0,0-1.3,2.008l-4.043-.359h0l-.841,4.6h0l3.907,1.1a9.928,9.928,0,0,0,.5,2.337l-3.111,2.6h0l2.655,3.845,3.53-1.984a9.949,9.949,0,0,0,2.013,1.306l-.358,4.029h0l4.6.841h0l1.089-3.884a10.067,10.067,0,0,0,2.361-.5l2.585,3.089h0l3.845-2.654-1.97-3.508a10.025,10.025,0,0,0,1.316-2.034l4.006.356h0Zm-12.21,4.734a5.2,5.2,0,0,1-5.664-8.2,4.341,4.341,0,0,1,2.312-1.6,5.2,5.2,0,0,1,5.664,8.2A4.344,4.344,0,0,1,352.21,73.641Z" transform="translate(-316.717 -54.834)"/><path class="d" d="M336.2,83.781l-2.733.368A6.815,6.815,0,0,0,332.5,82.8l1.241-2.465-2.717-1.7-1.675,2.2a6.839,6.839,0,0,0-1.633-.272l-.868-2.628-3.122.72.369,2.749a6.855,6.855,0,0,0-1.338.958l-2.481-1.249-1.7,2.716,2.212,1.688a6.959,6.959,0,0,0-.271,1.616L317.872,88l.72,3.122,2.757-.372a6.89,6.89,0,0,0,.951,1.336l-1.252,2.484,2.718,1.7,1.684-2.208a6.853,6.853,0,0,0,1.622.275l.87,2.634,3.123-.719-.37-2.742a6.9,6.9,0,0,0,1.349-.959l2.468,1.243,1.7-2.717-2.194-1.673a6.923,6.923,0,0,0,.277-1.639l2.619-.864Zm-6.3,6.21a3.576,3.576,0,0,1-5.859-3.713,2.786,2.786,0,0,1,.871-1.368,3.575,3.575,0,0,1,5.859,3.713A2.8,2.8,0,0,1,329.9,89.99Z" transform="translate(-317.872 -53.41)"/></g><g transform="translate(161.852 45.402)"><path class="g" d="M237.485,140.147l10.034-35.676,47.94-2.787,10.592-46.825L154.983,51.514l11.706,54.072,56.3-.557Z" transform="translate(-154.983 -45.025)"/><text class="aj" transform="translate(35.011 45.333) rotate(-2.053)"><tspan x="-9.413" y="0">?</tspan></text><text class="ak" transform="matrix(0.917, 0.4, -0.4, 0.917, 46.265, 48.677)"><tspan x="-4.707" y="0">?</tspan></text><text class="al" transform="matrix(0.835, -0.551, 0.551, 0.835, 20.959, 37.014)"><tspan x="-3.81" y="0">?</tspan></text><path class="am" d="M213.384,69.673V68.619l72.039-1.843-.618,2.655Z" transform="translate(-151.383 -44.084)"/><path class="am" d="M213.05,75.39v3.162L283.407,77.5V76.444Z" transform="translate(-151.403 -43.553)"/><path class="am" d="M213.05,85.384,282.7,83.013l-1.066,2.9-68.581.527Z" transform="translate(-151.403 -43.083)"/></g><g transform="translate(43.582 139.845)"><path class="an" d="M66.32,181.178l118.642-1.836,37.008,25.192-25.3-70.174L43.582,135.7Z" transform="translate(-43.582 -134.36)"/><path class="c" d="M177.162,149.568l-4.247-1.1L68,145.126l1.769,3.893Z" transform="translate(-42.077 -133.697)"/><path class="c" d="M177.045,154.792l1.769,3.185-106.46-1.062L72,155.147Z" transform="translate(-41.83 -133.101)"/><path class="c" d="M182.448,164.545,74.666,162.46l1.416,3.893,106.365-.706Z" transform="translate(-41.666 -132.628)"/></g><g transform="translate(286.837 65.082)"><path class="a" d="M429.283,212.839,298.857,191.01,272.711,208.19l26.664-82.819,162.705-8Z" transform="translate(-272.711 -60.644)"/><g transform="translate(27.919)"><g transform="translate(0 47.03)"><path class="j" d="M310.586,138.959C308.565,132.3,300.748,120.9,299.7,119.2a3.761,3.761,0,0,1-.35-1.291.776.776,0,0,1,.438-.767c.286-.1.568.087.833.226,1.229.644,1.685,1.243,4.372,3.319a28.731,28.731,0,0,1-5.482-6.153c-.488-.779-.6-1.358-.418-1.727.2-.411.681-.395,1.1-.266a9.368,9.368,0,0,1,3.144,2.132c1.884,1.6,1.287,1.053,3.171,2.656-1.732-1.873-5.707-6.281-5.205-7.251s2.58.391,3.15.92c2.088,1.939,2.517,2.011,4.6,3.949-2.582-2.705-5.53-5.941-4.7-6.641s6.47,4,8.535,6.532c.505-2.151,1.287-4.507,2.173-3.652,1.021.982,1.88,8.661,1.55,13.482" transform="translate(-299.008 -108.238)"/><path class="j" d="M316.346,119.039c.7,12.307,4.826,29.615,8.911,33.434,8.659,8.1,31.624-13.2,31.624-13.2s27.6,2.242,6.3,17.614c-43.211,31.185-54.144,10.388-58.131-11.963-1.031-5.783-.727-13.414-.484-20.419" transform="translate(-298.681 -107.572)"/><path class="q" d="M330.947,169.691c-.015-2.149-2.739-4.426-6.48-5.277-4.074-.93-7.8.183-8.325,2.483-.016.069-.019.138-.029.207C319.932,169.318,324.876,170.353,330.947,169.691Z" transform="translate(-297.954 -104.795)"/></g><path class="h" d="M411.32,126.5a8.8,8.8,0,0,0-.119,4.536c.491,1.45,2.08,2.65,3.526,2.148a4.425,4.425,0,0,0,2.09-2.193q6.712-11.568,13.422-23.136c2.389-4.118,4.866-8.676,4.082-13.372-.341-2.035-1.893-4.288-3.925-3.928.987-3.107-.308-6.6-2.549-8.969a21.594,21.594,0,0,0-8.345-4.937c-7.491-2.8-15.935-4.482-21.315-10.4a6.386,6.386,0,0,0-2.76-2.22c-2.084-.565-4.076,1.649-4.148,3.806s1.133,4.126,2.294,5.945a4,4,0,0,0-5.168-.015c-1.326,1.344-.733,4.149,1.13,4.461-2.359.165-4.078,2.585-4.19,4.947s.995,4.608,2.28,6.593c3.617,5.582,8.768,9.974,13.061,15.056s7.863,11.39,7.279,18.017" transform="translate(-293.686 -63.939)"/><path class="ao" d="M421.921,88.934l.017.011-.007.031C421.926,88.962,421.925,88.948,421.921,88.934Z" transform="translate(-291.431 -62.398)"/><path class="j" d="M394.592,84.742c2.267.186,25-.031,23.877,10.835-.9,3.325-3.248,6.691-4.153,10.016-.139.513-.139,1.264.385,1.354a.981.981,0,0,0,.757-.358l1.336-1.226c-1.2,1.551-2.961,4.664-1.785,5.487,1.034.724,4-2.19,5.1-4.337a4.972,4.972,0,0,1,1.054.054,5.565,5.565,0,1,1-4.12,10.042l-4.181,16.054a12.754,12.754,0,1,1-24.487-6.27l1.786-6.86c-5.928-3.856-5.2-10.789-2.791-16.49S394.448,85.014,394.592,84.742Z" transform="translate(-293.67 -62.656)"/><path class="ap" d="M419.211,111.336a4.257,4.257,0,0,0-1.555-2.135,1.431,1.431,0,0,1,.9-.236,11.907,11.907,0,0,1,2.069.287,2.931,2.931,0,0,0-3.146-.441,3.117,3.117,0,0,0-1.84,2.586s.92-1.779,1.736-1.959Z" transform="translate(-291.818 -61.19)"/><path class="aq" d="M390,117.512a19.811,19.811,0,0,0,7.081,2.644l-8.944,4.513Z" transform="translate(-293.513 -60.636)"/><g transform="translate(102.061 24.593)"><path class="h" d="M395.143,89.424c-.026-1.835,2.65-2.508,4.08-2.276.78.126,1.859.771,1.894,1.657.039.97-.862,1.151-1.625,1.234l.66-.178a6.668,6.668,0,0,1-2.086.351c-.677.113-1.45.51-2.123.248a1.124,1.124,0,0,1-.8-1.036Z" transform="translate(-395.143 -87.104)"/></g><g transform="translate(115.102 27.919)"><path class="h" d="M411.418,95.009c-.873-.158-1.25-.775-1.885-1.325a6.989,6.989,0,0,1-1.663-1.469l.45.514c-.61-.47-1.237-1.13-.674-1.91a2.231,2.231,0,0,1,2.43-.4c1.385.563,3.294,2.535,2.3,4.121a1.051,1.051,0,0,1-.957.473Z" transform="translate(-407.426 -90.237)"/></g><path class="aq" d="M395.7,105.5l4.623,1.164,1.515-10.222-1.813-.457Z" transform="translate(-293.047 -61.963)"/><path class="ar" d="M404.693,106.946a4.3,4.3,0,1,1,3.119,5.221A4.3,4.3,0,0,1,404.693,106.946Z" transform="translate(-292.501 -61.488)"/><path class="ar" d="M389.14,97.795a4.3,4.3,0,1,1-1.272,8.462,4.261,4.261,0,0,1-1.646-.834,25.149,25.149,0,0,1,1.106-3.185C387.849,101,388.477,99.46,389.14,97.795Z" transform="translate(-293.631 -61.852)"/><path class="d" d="M344.516,170.308c17.283-7.193,25.356-12.023,25.356-12.023l3.887-1.97c2.457-.935,8.818-7.827,10.391-10.188a12.993,12.993,0,0,0-3.532-18.032c-.253-.168-.514-.312-.773-.46l0-.053a10.8,10.8,0,0,0-5.951-1.623,20.564,20.564,0,0,0-2.578-.1c-8.489.843-26.511,14.991-37.362,22.914C333.96,148.777,335.818,156.846,344.516,170.308Z" transform="translate(-296.854 -60.123)"/><path class="as" d="M339.631,142.767a112.59,112.59,0,0,0,11.842,22.46" transform="translate(-296.504 -59.079)"/><path class="d" d="M424.184,212.487l4.062-27.8,4.741-19.46c.858-1.447,11.271,5.257,11.525,3.489.653-4.524,2.976-23.883-.177-26.736-6.733-7.467-19.628-10.088-29.336-12.723a14.928,14.928,0,0,1-25.031-3.662c-10.055-.255-19.385-2.28-29.3,3.985-3.837,1.829,1.461,21.365,1.868,23l-1.739,24.1-3.329,24.491" transform="translate(-295.404 -60.169)"/><path class="as" d="M383.528,127.566c1.548,8.028,10.382,13.77,18.55,13.432" transform="translate(-293.798 -60.016)"/><path class="ab" d="M407.05,100.992c-.187.717-.6,1.23-.915,1.148s-.425-.733-.238-1.449.6-1.229.915-1.147S407.237,100.275,407.05,100.992Z" transform="translate(-292.424 -61.744)"/><path class="ab" d="M394.976,97.84c-.188.717-.6,1.23-.915,1.148s-.425-.731-.239-1.448.6-1.23.916-1.148S395.163,97.123,394.976,97.84Z" transform="translate(-293.169 -61.939)"/><g transform="translate(119.966 32.711)"><path class="p" d="M423.739,124.1l15.245-20.056L426.42,94.75l-14.412,20.407Z" transform="translate(-412.008 -94.75)"/><path class="o" d="M415.758,109.356l7.319-10.3,12.346,9.305L427.141,118.4Z" transform="translate(-411.777 -94.484)"/><path class="at" d="M428.393,107.284a1.3,1.3,0,0,0-1.918-.314,1.575,1.575,0,0,0-.477,2.049,1.305,1.305,0,0,0,1.919.314A1.577,1.577,0,0,0,428.393,107.284Z" transform="translate(-411.158 -94.014)"/></g><g transform="translate(128.996 43.002)"><path class="j" d="M429.346,119.189c-1.6,1.337-2.389,1.994-4.069,1.77-.166-.022,1.325-1.764,2.123-3.008-13.212-11.932-3.926-7.162-.7-5.052-4.928-3.815-8.445-8.786,2.089-2.5-5.54-4.54-5.56-6.773,2.361-2.2-3.02-1.237-7.959-7.749,5.742-.074.89.479,36.961,13.046,41.473,33.854,4.027,18.569-8.543,39.2-57.7,21.9l5.271-24.512s20.843,14.91,30.149,12.837C468.144,149.516,458.341,130.533,429.346,119.189Z" transform="translate(-420.513 -104.444)"/></g><path class="ac" d="M474.946,154.2c-3.15-.124-4.955-4.013-4.853-8.4.083-3.583,1.849-6.564,4.209-7.506.017.086.636,1.549.66,1.634C476.516,145.6,476.514,149.6,474.946,154.2Z" transform="translate(-288.461 -59.355)"/><path class="d" d="M445.394,172.58c-17.379-4.591-28.511-8.665-28.511-8.665-2.46-.57-4.478-33.315-.674-33.488,8.182-.373,24.845,10.278,36.2,16.4A74.682,74.682,0,0,1,445.394,172.58Z" transform="translate(-291.913 -59.84)"/><path class="as" d="M445.461,143.327c-.738,6.746-4.145,19-6.839,26" transform="translate(-290.401 -59.044)"/><path class="f" d="M399.515,107.985c1.389-1.011,3.025-.935,3.444.119a1.722,1.722,0,0,1-.393,1.772,3.481,3.481,0,0,1-1.68.889,3.973,3.973,0,0,1-3.064-.482c-.9-.559-1.715-1.925-1.086-2.774.445-.6,1.517-.282,2.778.477" transform="translate(-292.997 -61.272)"/><path class="h" d="M425.924,91.847a40.969,40.969,0,0,1,4.394-7.873,3.272,3.272,0,0,1,1.458-1.325,1.194,1.194,0,0,1,1.584.753,1.675,1.675,0,0,1-.281,1.012,21.12,21.12,0,0,1-7.527,7.939" transform="translate(-291.207 -62.79)"/><path class="as" d="M407.086,139.572a15.145,15.145,0,0,0,9.646-7.358" transform="translate(-292.345 -59.73)"/></g></g><circle class="o" cx="0.929" cy="0.929" r="0.929" transform="translate(448.913 100.845)"/></g></svg>