<svg xmlns="http://www.w3.org/2000/svg" width="28" height="28.483" viewBox="0 0 28 28.483"><defs><style>.a{fill:#fec9a3;}.b{fill:#fabd91;}.c{fill:#88b337;}.d{fill:#e8594a;}.e{fill:#d65245;}.f{fill:#fdb62f;}.g{fill:#ffa719;}.h{fill:#4398d1;}.i{fill:#3e8fc9;}.j{fill:#80a834;}</style></defs><path class="a" d="M368.342,331.223V325.47a1.932,1.932,0,0,0-.824-1.582l-3.63-2.541a1.448,1.448,0,0,0-.831-.262h-2.923l.048,8.26a2.016,2.016,0,0,0,1.4,1.878Z" transform="translate(-340.342 -303.223)"/><path class="b" d="M365.445,437.76h-3.379a1.931,1.931,0,0,1-1.931-1.931V433.9h3.379Z" transform="translate(-340.342 -409.76)"/><path class="c" d="M16.891,3.379a2.408,2.408,0,0,0-.966.2V0H7.236a2.9,2.9,0,0,0-2.9,2.9v8.69H7.922a2.414,2.414,0,1,1,4.42,0h3.583V8a2.414,2.414,0,1,0,.966-4.624Z" transform="translate(-4.339)"/><path class="d" d="M224.188,2.9a2.9,2.9,0,0,0-2.9-2.9H212.6V3.583a2.414,2.414,0,1,1,0,4.42v3.583h3.583a2.414,2.414,0,1,0,4.42,0h3.583Z" transform="translate(-201.015)"/><path class="e" d="M224.2,57.023c-2.759,3.839-7.741,6.019-11.586,7.193v1.221h3.583a2.414,2.414,0,1,0,4.42,0H224.2Z" transform="translate(-201.024 -53.851)"/><path class="f" d="M14.96,154.676a2.408,2.408,0,0,1,.966.2v-4.066H12.342a2.414,2.414,0,1,0-4.42,0H4.339v8.69a2.9,2.9,0,0,0,2.9,2.9h8.69v-3.1a2.414,2.414,0,1,1-.966-4.624Z" transform="translate(-4.339 -139.227)"/><path class="g" d="M4.338,324.958a2.9,2.9,0,0,0,2.9,2.9h8.69v-3.1a2.4,2.4,0,0,1-3.371-2.124,21.117,21.117,0,0,1-8.216,1.827v.5Z" transform="translate(-4.338 -304.682)"/><path class="h" d="M189.062,251.142l-3.054-8.159-3.355,1.263a2.417,2.417,0,1,1-4.138,1.559l-3.354,1.263,1.429,3.818a2.391,2.391,0,0,0-.975.149,2.421,2.421,0,0,0,1.7,4.534,2.394,2.394,0,0,0,.833-.532l1.089,2.912,8.135-3.064A2.909,2.909,0,0,0,189.062,251.142Z" transform="translate(-164.627 -229.466)"/><path class="i" d="M190.619,314.012c-3.331,4.982-9.576,6.722-13.233,7.321a2.4,2.4,0,0,0,3.89.782l1.089,2.912,8.135-3.064a2.908,2.908,0,0,0,1.693-3.741Z" transform="translate(-167.759 -296.543)"/><path class="j" d="M16.891,52.313a2.408,2.408,0,0,0-.966.2v-.7c-3.615,3.328-8.512,5.165-11.586,6.061V60.52H7.922a2.414,2.414,0,1,1,4.42,0h3.583V56.937a2.414,2.414,0,1,0,.966-4.624Z" transform="translate(-4.339 -48.933)"/><path class="a" d="M368.914,384.58a1.195,1.195,0,0,0-1.707,1.673l.017.017,1.681,1.681a2.9,2.9,0,0,0,2.9,2.9h2.9v-.483Z" transform="translate(-346.698 -362.847)"/></svg>