<svg xmlns="http://www.w3.org/2000/svg" width="30" height="30.457" viewBox="0 0 30 30.457"><defs><style>.a{fill:#4661f2;}</style></defs><path class="a" d="M25.158,0h-18a3.5,3.5,0,0,0-3.5,3.5V21.458a3.5,3.5,0,0,0,3.5,3.5h5.5v-1h-5.5a2.5,2.5,0,0,1-2.5-2.5V13H7.869a.538.538,0,0,0,.458-.742,2,2,0,1,1,3.662,0,.519.519,0,0,0,.458.742h3.211v3a2.927,2.927,0,0,0-.5-.041,3,3,0,0,0-1.2,5.75l.4-.916a2,2,0,0,1,.8-3.834,1.976,1.976,0,0,1,.8.169.5.5,0,0,0,.7-.458V13H19.2a2.927,2.927,0,0,0-.042.5,3.009,3.009,0,0,0,2.4,2.94l.2-.979a2.007,2.007,0,0,1-1.6-1.96,1.976,1.976,0,0,1,.169-.8.5.5,0,0,0-.458-.7H16.658V9.457a2.927,2.927,0,0,0,.5.042,3,3,0,0,0,0-6,2.927,2.927,0,0,0-.5.043V1h8.5a2.5,2.5,0,0,1,2.5,2.5V12H24.447a.5.5,0,0,0-.458.7,1.976,1.976,0,0,1,.169.8h1a2.927,2.927,0,0,0-.042-.5h3.042a.5.5,0,0,0,.5-.5v-9A3.5,3.5,0,0,0,25.158,0Zm-8,4.5a2,2,0,1,1,0,4,1.976,1.976,0,0,1-.8-.169.5.5,0,0,0-.7.458v3.17H13.119a2.92,2.92,0,0,0,.039-.458v-.042a3,3,0,1,0-6,0V11.5a2.919,2.919,0,0,0,.039.458H4.658V3.5A2.5,2.5,0,0,1,7.158,1h8.5V4.211a.5.5,0,0,0,.7.458A1.976,1.976,0,0,1,17.158,4.5Z" transform="translate(-3.658)"/><g transform="translate(9.744 13.957)"><path class="a" d="M178.749,230.85l-4.2-2.894-1.615-4.314a.5.5,0,0,0-.643-.294l-.028.011-3.25,1.438a.5.5,0,0,0-.265.636c.054.14.1.246.158.356a3.819,3.819,0,0,1,.164.375,2,2,0,1,1-3.867.6.5.5,0,0,0-.676-.494l-3.474,1.308a.5.5,0,0,0-.292.643l1.247,3.331a2.821,2.821,0,0,0-.485.134,3.007,3.007,0,1,0,2.563,5.416l.894,2.388a.5.5,0,0,0,.644.293h0l4.954-1.867a2.685,2.685,0,0,0,1.583,1.414l.316-.95a1.686,1.686,0,0,1-.956-.817l1.508-.568a3.489,3.489,0,0,0,3.292,2.32v-1a2.515,2.515,0,0,1-2.5-2.5.5.5,0,0,0-.146-.353l-1.741-1.741a.742.742,0,0,1-.069-.965.728.728,0,0,1,.537-.293.717.717,0,0,1,.574.215l3.491,3.491.707-.707-1.033-1.033a3.488,3.488,0,0,0-.044-2.337l-.937-2.5,3.021,2.081a1.5,1.5,0,0,1,.639,1.229v6.458h1V232.9A2.5,2.5,0,0,0,178.749,230.85Zm-3.591,1.594a2.505,2.505,0,0,1,.146,1.151l-1.623-1.622a1.737,1.737,0,0,0-2.488,2.426l.031.031,1.582,1.582-7.066,2.661-.953-2.547a.5.5,0,0,0-.36-.312.507.507,0,0,0-.108-.012.5.5,0,0,0-.35.143,2,2,0,1,1-2.094-3.32,1.925,1.925,0,0,1,.495-.112,1.776,1.776,0,0,1,.313-.01.5.5,0,0,0,.495-.674l-1.306-3.487,2.381-.9a3,3,0,1,0,5.754-1.629c-.046-.123-.088-.22-.127-.307l2.3-1.019Z" transform="translate(-159.563 -223.316)"/></g></svg>