<svg xmlns="http://www.w3.org/2000/svg" width="30" height="31.756" viewBox="0 0 30 31.756"><defs><style>.a{fill:#4661f2;}</style></defs><path class="a" d="M58.323,25.755h0v3h0v1a2,2,0,0,1-2,2h-26a2,2,0,0,1-2-2h0v-2h0v-2a4,4,0,0,0,.008-8h-.008v-2h0v-2a1.977,1.977,0,0,1,.281-1.006,1.686,1.686,0,0,1,.817-1.349L48.674.23A1.7,1.7,0,0,1,51.01.859l.855,1.488-.7.409H51.3a5.287,5.287,0,0,1,.565-.409l.855,1.488a3.448,3.448,0,0,0-1.252,4.7,3.412,3.412,0,0,0,4.673,1.258L57,11.276a4.477,4.477,0,0,1-.673.311v.079l.673-.39.495.862a1.992,1.992,0,0,1,.832,1.617v1h0v3h-.008a4,4,0,0,0,.008,8ZM49.987,9.389a5.177,5.177,0,0,1,.336-5.664V3.1l-.794-1.382-17.3,10.037h20.78A5.112,5.112,0,0,1,49.987,9.389Zm6.336,6.734v-.368h0v-2h-26v2.367a5.966,5.966,0,0,1,0,11.265v2.367h26v-2h0v-.367a5.966,5.966,0,0,1,0-11.265Zm-12.5,10.633h-1a.5.5,0,0,1-.5-.5v-1a.5.5,0,0,1,.5-.5h1a.5.5,0,0,1,.5.5v1A.5.5,0,0,1,43.823,26.756Zm0-4h-1a.5.5,0,0,1-.5-.5v-1a.5.5,0,0,1,.5-.5h1a.5.5,0,0,1,.5.5v1A.5.5,0,0,1,43.823,22.755Zm0-4h-1a.5.5,0,0,1-.5-.5v-1a.5.5,0,0,1,.5-.5h1a.5.5,0,0,1,.5.5v1A.5.5,0,0,1,43.823,18.755ZM40.815,9.75l.741-.43a.427.427,0,0,1,.584.158l.427.743a.432.432,0,0,1-.156.588l-.741.429a.426.426,0,0,1-.584-.157l-.427-.744A.43.43,0,0,1,40.815,9.75Z" transform="translate(-28.323 0)"/></svg>