<svg xmlns="http://www.w3.org/2000/svg" width="30" height="30" viewBox="0 0 30 30"><defs><style>.a{fill:#4661f2;}</style></defs><g transform="translate(0 0)"><path class="a" d="M.543,6.964A.879.879,0,0,0,1.5,6.773L2.273,6l.4.4A15.048,15.048,0,0,0,.116,13.133a.879.879,0,0,0,.872.988H8.133a.879.879,0,0,0,.851-.659,6.321,6.321,0,0,1,4.479-4.478.879.879,0,0,0,.659-.851V.987a.879.879,0,0,0-.988-.872A15.042,15.042,0,0,0,6.406,2.677l-.4-.4L6.774,1.5A.879.879,0,0,0,6.152,0H.879A.879.879,0,0,0,0,.879V6.152a.879.879,0,0,0,.543.812ZM1.758,1.757H4.046a.88.88,0,0,0,.091,1.137L5.7,4.454a.879.879,0,0,0,1.161.073A13.186,13.186,0,0,1,12.363,2.02V7.484a8.142,8.142,0,0,0-4.879,4.879H2.02A13.19,13.19,0,0,1,4.526,6.857.879.879,0,0,0,4.454,5.7L2.894,4.137a.879.879,0,0,0-1.137-.091Zm0,0" transform="translate(0)"/><path class="a" d="M284.242,0h-5.273a.879.879,0,0,0-.621,1.5l.772.772-.4.4A15.044,15.044,0,0,0,271.988.115.879.879,0,0,0,271,.988V8.132a.879.879,0,0,0,.659.851,6.321,6.321,0,0,1,4.478,4.478.879.879,0,0,0,.851.659h7.145a.879.879,0,0,0,.872-.988,15.042,15.042,0,0,0-2.562-6.728l.4-.4.772.772a.879.879,0,0,0,1.5-.621V.879A.879.879,0,0,0,284.242,0Zm-.879,4.046a.879.879,0,0,0-1.136.091l-1.56,1.56a.879.879,0,0,0-.072,1.161,13.188,13.188,0,0,1,2.506,5.506h-5.464a8.142,8.142,0,0,0-4.879-4.879V2.02a13.186,13.186,0,0,1,5.506,2.506.879.879,0,0,0,1.161-.072l1.56-1.56a.879.879,0,0,0,.091-1.136h2.288Zm0,0" transform="translate(-255.121 0)"/><path class="a" d="M284.579,278.157a.879.879,0,0,0-.958.191l-.772.772-.4-.4a15.043,15.043,0,0,0,2.562-6.728.879.879,0,0,0-.872-.988h-7.145a.879.879,0,0,0-.851.659,6.322,6.322,0,0,1-4.478,4.479.879.879,0,0,0-.659.851v7.145a.879.879,0,0,0,.988.872,15.043,15.043,0,0,0,6.728-2.562l.4.4-.772.772a.879.879,0,0,0,.621,1.5h5.273a.879.879,0,0,0,.879-.879V278.97a.879.879,0,0,0-.542-.812Zm-1.215,5.207h-2.288a.879.879,0,0,0-.091-1.136l-1.56-1.56a.879.879,0,0,0-1.161-.073,13.184,13.184,0,0,1-5.506,2.506v-5.464a8.144,8.144,0,0,0,4.879-4.88H283.1a13.192,13.192,0,0,1-2.506,5.506.879.879,0,0,0,.073,1.161l1.56,1.559a.879.879,0,0,0,1.136.091Zm0,0" transform="translate(-255.121 -255.122)"/><path class="a" d="M13.463,276.138a6.321,6.321,0,0,1-4.479-4.479A.879.879,0,0,0,8.133,271H.988a.879.879,0,0,0-.872.988,15.041,15.041,0,0,0,2.562,6.727l-.4.4-.772-.772a.879.879,0,0,0-1.5.622v5.273a.879.879,0,0,0,.879.879H6.153a.879.879,0,0,0,.621-1.5L6,282.849l.4-.4a15.046,15.046,0,0,0,6.728,2.562.879.879,0,0,0,.988-.872v-7.145a.879.879,0,0,0-.659-.851Zm-1.1,6.964A13.186,13.186,0,0,1,6.858,280.6a.879.879,0,0,0-1.161.073l-1.56,1.56a.879.879,0,0,0-.091,1.136H1.758v-2.288a.879.879,0,0,0,1.137-.091l1.56-1.56a.879.879,0,0,0,.072-1.161,13.188,13.188,0,0,1-2.506-5.506H7.485a8.142,8.142,0,0,0,4.879,4.879Zm0,0" transform="translate(-0.001 -255.122)"/><path class="a" d="M214.045,184.416a2.511,2.511,0,0,0-1.287,2.257.879.879,0,0,0,1.758,0,.789.789,0,0,1,.348-.7A2.637,2.637,0,1,0,211,183.637a.879.879,0,0,0,1.758,0,.879.879,0,1,1,1.287.779Zm0,0" transform="translate(-198.637 -170.395)"/><path class="a" d="M242.758,301.879a.879.879,0,1,1-.879-.879A.879.879,0,0,1,242.758,301.879Zm0,0" transform="translate(-226.879 -283.364)"/></g></svg>