<svg xmlns="http://www.w3.org/2000/svg" width="30" height="27.346" viewBox="0 0 30 27.346"><defs><style>.a{fill:#4661f2;}</style></defs><g transform="translate(0 -22.647)"><path class="a" d="M118.167,95.927v-1.86h1.86V92.309h-1.86v-1.86h-1.758v1.86h-1.86v1.758h1.86v1.86Z" transform="translate(-107.837 -63.829)"/><path class="a" d="M27.2,32.259H18.971v-6.81a2.8,2.8,0,0,0-2.8-2.8H2.8a2.8,2.8,0,0,0-2.8,2.8v8.24a2.8,2.8,0,0,0,2.8,2.8h.459v3.891L9.073,36.49h1.957V43.3a2.8,2.8,0,0,0,2.8,2.8h7.1l5.812,3.891V46.1H27.2A2.8,2.8,0,0,0,30,43.3V35.06a2.8,2.8,0,0,0-2.8-2.8ZM8.539,34.732l-3.52,2.357V34.732H2.8a1.045,1.045,0,0,1-1.044-1.044v-8.24A1.045,1.045,0,0,1,2.8,24.4H16.169a1.045,1.045,0,0,1,1.044,1.044v6.81H13.831a2.805,2.805,0,0,0-2.782,2.474H8.539Zm19.7,8.568A1.045,1.045,0,0,1,27.2,44.344H24.981V46.7l-3.52-2.357h-7.63A1.045,1.045,0,0,1,12.787,43.3V35.06a1.045,1.045,0,0,1,1.044-1.044H27.2a1.045,1.045,0,0,1,1.044,1.044V43.3Z"/><path class="a" d="M303.962,286.232h5.478v1.758h-5.478Z" transform="translate(-286.152 -248.141)"/></g></svg>