<svg xmlns="http://www.w3.org/2000/svg" width="28" height="28" viewBox="0 0 28 28"><defs><style>.a{fill:#7c8388;}.b{fill:#ff637b;}.c{fill:#00c8c8;}.d{fill:#f4d7af;}.e{fill:#fdbf00;}.f{fill:#575f64;}</style></defs><g transform="translate(0 0)"><path class="a" d="M215.922,183.461a2.469,2.469,0,0,1-1.313,2.182.724.724,0,0,0-.328.656.82.82,0,0,1-1.641,0,2.4,2.4,0,0,1,.82-1.854,1.948,1.948,0,0,1,.377-.263.782.782,0,0,0,.443-.722.82.82,0,0,0-1.641,0,.82.82,0,1,1-1.641,0,2.461,2.461,0,0,1,4.922,0Zm0,0" transform="translate(-199.461 -171.102)"/><path class="a" d="M242.641,301.82a.82.82,0,1,1-.82-.82A.812.812,0,0,1,242.641,301.82Zm0,0" transform="translate(-227.821 -284.539)"/><path class="b" d="M1.4,5.162l.721-.721.891.891A14.061,14.061,0,0,0,.124,12.272a.826.826,0,0,0,.827.908h5a.829.829,0,0,0,.8-.685,7.477,7.477,0,0,1,5.74-5.74.829.829,0,0,0,.685-.8v-5a.826.826,0,0,0-.908-.827A14.06,14.06,0,0,0,5.332,3.012l-.891-.891L5.162,1.4A.82.82,0,0,0,4.582,0H.82A.82.82,0,0,0,0,.82V4.582a.82.82,0,0,0,1.4.58Zm0,0" transform="translate(0 0)"/><path class="c" d="M283.359,0H279.6a.82.82,0,0,0-.58,1.4l.721.721-.891.891A14.059,14.059,0,0,0,271.908.124.826.826,0,0,0,271,.951v5a.829.829,0,0,0,.685.8,7.477,7.477,0,0,1,5.74,5.74.829.829,0,0,0,.8.685h5a.826.826,0,0,0,.827-.908,14.06,14.06,0,0,0-2.888-6.939l.891-.891.721.721a.82.82,0,0,0,1.4-.58V.82a.82.82,0,0,0-.82-.82Zm0,0" transform="translate(-256.18 0)"/><path class="d" d="M5.953,271h-5a.826.826,0,0,0-.827.908,14.06,14.06,0,0,0,2.888,6.939l-.891.891-.721-.721a.82.82,0,0,0-1.4.58v3.762a.82.82,0,0,0,.82.82H4.582a.82.82,0,0,0,.58-1.4l-.721-.721.891-.891a14.057,14.057,0,0,0,6.939,2.888.826.826,0,0,0,.908-.827v-5a.829.829,0,0,0-.685-.8,7.476,7.476,0,0,1-5.74-5.74.829.829,0,0,0-.8-.685Zm0,0" transform="translate(0 -256.18)"/><path class="e" d="M282.78,279.017l-.721.721-.891-.891a14.061,14.061,0,0,0,2.888-6.939.826.826,0,0,0-.827-.908h-5a.829.829,0,0,0-.8.685,7.477,7.477,0,0,1-5.74,5.74.829.829,0,0,0-.685.8v5a.826.826,0,0,0,.908.827,14.059,14.059,0,0,0,6.939-2.888l.891.891-.721.721a.82.82,0,0,0,.58,1.4h3.762a.82.82,0,0,0,.82-.82V279.6A.82.82,0,0,0,282.78,279.017Zm0,0" transform="translate(-256.18 -256.179)"/><g transform="translate(14 9.898)"><path class="f" d="M256.82,301.82a.812.812,0,0,1-.82.82V301A.812.812,0,0,1,256.82,301.82Zm0,0" transform="translate(-256 -294.438)"/><path class="f" d="M258.461,183.461a2.469,2.469,0,0,1-1.312,2.182.724.724,0,0,0-.328.656.823.823,0,0,1-.82.82v-2.674a1.948,1.948,0,0,1,.377-.263.782.782,0,0,0,.443-.722.812.812,0,0,0-.82-.82V181A2.457,2.457,0,0,1,258.461,183.461Zm0,0" transform="translate(-256 -181)"/></g></g></svg>