<?xml version="1.0" encoding="utf-8"?>
<!-- Generator: Adobe Illustrator 16.0.0, SVG Export Plug-In . SVG Version: 6.00 Build 0)  -->
<!DOCTYPE svg PUBLIC "-//W3C//DTD SVG 1.1//EN" "http://www.w3.org/Graphics/SVG/1.1/DTD/svg11.dtd">
<svg version="1.1" id="Layer_1" xmlns="http://www.w3.org/2000/svg" xmlns:xlink="http://www.w3.org/1999/xlink" x="0px" y="0px"
	 width="512px" height="512px" viewBox="0 0 512 512" enable-background="new 0 0 512 512" xml:space="preserve">
<path d="M236.836,9.772C160.698,18.246,98.762,79.573,89.58,155.624c-6.715,55.622,13.914,109.661,55.428,146.31v26.206
	c0,28.633,15.852,53.395,39.046,66.727v39.676c0,20.427,16.557,36.995,36.993,36.995h10.688v7.714
	c0,13.276,10.764,24.036,24.031,24.036h0.485c13.267,0,24.018-10.759,24.018-24.036v-7.714h10.688
	c20.436,0,36.997-16.568,36.997-36.995v-39.676c23.208-13.332,39.06-38.094,39.06-66.727v-26.206
	c36.125-31.903,56.655-77.169,56.655-125.553C423.669,77.613,337.828-1.423,236.836,9.772z M287.083,218.396V369.47h-62.143V218.396
	H287.083z M337.864,279.507l-6.782,5.391v43.242c0,17.384-10.813,32.242-26.049,38.328V218.396h6.521
	c14.669,0,26.566-11.888,26.566-26.562v-14.018c0-14.681-11.896-26.568-26.566-26.568H200.437
	c-14.656,0-26.552,11.888-26.552,26.568v14.018c0,14.674,11.896,26.562,26.552,26.562h6.553v148.072
	c-15.236-6.085-26.085-20.943-26.085-38.328v-43.242l-6.777-5.391c-36.188-28.772-54.462-73.484-48.907-119.583
	c7.231-59.682,55.815-107.816,115.585-114.472c5.119-0.566,10.184-0.84,15.19-0.84c72.668,0,131.773,59.1,131.773,131.769
	C387.769,216.692,369.58,254.294,337.864,279.507z"/>
</svg>
