<svg xmlns="http://www.w3.org/2000/svg" width="28" height="27.955" viewBox="0 0 28 27.955"><defs><style>.a{fill:#08d3cf;}.b{fill:#fe5d6d;}.c{fill:#d33c60;}.d{fill:#fec753;}</style></defs><g transform="translate(0.011 -0.221)"><circle class="a" cx="13.977" cy="13.977" r="13.977" transform="translate(-0.011 0.221)"/><path class="b" d="M46.1,26.148H26.068a3.326,3.326,0,0,0-3.326,3.326V40.832a3.326,3.326,0,0,0,3.326,3.326A2.043,2.043,0,0,1,28.111,46.2v2.49a.733.733,0,0,0,1.354.391l1.545-2.451a5.3,5.3,0,0,1,4.481-2.473H46.1a3.326,3.326,0,0,0,3.326-3.326V29.474A3.326,3.326,0,0,0,46.1,26.148Z" transform="translate(-21.435 -24.821)"/><path class="c" d="M29.709,44.158a3.326,3.326,0,0,1-3.326-3.326V29.474a3.326,3.326,0,0,1,3.326-3.326H26.068a3.326,3.326,0,0,0-3.326,3.326V40.833a3.326,3.326,0,0,0,3.326,3.326A2.043,2.043,0,0,1,28.111,46.2v2.49a.733.733,0,0,0,1.354.391l1.545-2.451a5.289,5.289,0,0,1,.692-.874A2.043,2.043,0,0,0,29.709,44.158Z" transform="translate(-21.435 -24.821)"/><path class="d" d="M246.268,82.635a.839.839,0,0,1,.616-.255.87.87,0,0,1,.863.863.839.839,0,0,1-.255.616.829.829,0,0,1-.608.255.87.87,0,0,1-.871-.871A.83.83,0,0,1,246.268,82.635Zm1.159-10.4a.738.738,0,0,1,.222.542v8.093a.772.772,0,0,1-.764.772.751.751,0,0,1-.551-.23.738.738,0,0,1-.222-.542V72.775a.738.738,0,0,1,.222-.542.765.765,0,0,1,.551-.222A.756.756,0,0,1,247.426,72.233Z" transform="translate(-231.957 -68.065)"/></g></svg>