<svg xmlns="http://www.w3.org/2000/svg" width="28" height="28" viewBox="0 0 28 28"><defs><style>.a{fill:#ff637b;}.b{fill:#e63950;}.c{fill:#7c8388;}.d{fill:#575f64;}.e{fill:#faecd8;}.f{fill:#f4d7af;}.g{fill:#64e1dc;}.h{fill:#00c8c8;}</style></defs><g transform="translate(-0.001 0.001)"><path class="a" d="M7.689,189.043a6.381,6.381,0,0,0-5.128,1.9l-2.32,2.32a.82.82,0,0,0,.792,1.373c1.472-.395,3.421-.526,3.9-.16Zm0,0" transform="translate(0 -178.665)"/><path class="b" d="M225.809,371.637l-5.441,2.625c.3.413.279,1.719-.074,4.111a.82.82,0,0,0,1.391.7l2.32-2.32A6.427,6.427,0,0,0,225.809,371.637Zm0,0" transform="translate(-208.237 -351.314)"/><path class="c" d="M72.352,283.98c-1.914,1.032-2.158,1.091-2.448,1.288a.811.811,0,0,1-1.021-.116l-5.8-5.8a.824.824,0,0,1-.116-1.021c.2-.29.22-.476,1.264-2.471l2.3-.023,5.8,5.8Zm0,0" transform="translate(-59.403 -260.752)"/><path class="d" d="M126.67,334.717c-1.914,1.032-2.158,1.091-2.448,1.288a.811.811,0,0,1-1.021-.116l-2.9-2.9,3.48-3.48,2.865,2.865Zm0,0" transform="translate(-113.721 -311.489)"/><path class="e" d="M96.391,38.934,88.27,30.813q6.038-11.4,14.478-14.2l3.944,3.921,3.851,3.852c-1.856,5.592-6.589,10.464-14.153,14.547Zm0,0" transform="translate(-83.442 -15.706)"/><path class="f" d="M166.776,106.712l-4.049-4.049,14.35-14.35,3.851,3.851c-1.856,5.592-6.589,10.464-14.153,14.548Zm0,0" transform="translate(-153.827 -83.484)"/><path class="g" d="M257.269,113.2l-.035-.035a4.1,4.1,0,1,0-5.8,5.8l.035.035a4.1,4.1,0,0,0,5.8-5.8Zm0,0" transform="translate(-236.548 -105.843)"/><path class="h" d="M278.59,140.323a4.114,4.114,0,0,1-5.766.035l5.8-5.8a4.114,4.114,0,0,1-.035,5.765Zm0,0" transform="translate(-257.903 -127.2)"/><path class="a" d="M360.808,8.68a8.444,8.444,0,0,1-5.22-2.483l-.035-.035A8.375,8.375,0,0,1,353.012.908a16.106,16.106,0,0,1,1.624-.464,18.779,18.779,0,0,1,6.218-.325.743.743,0,0,1,.522.29.687.687,0,0,1,.209.441,18.42,18.42,0,0,1-.336,6.206c-.128.545-.267,1.079-.441,1.624Zm0,0" transform="translate(-333.706 0)"/><path class="b" d="M405.326,15.76a8.444,8.444,0,0,1-5.22-2.483l5.789-5.789a.689.689,0,0,1,.209.441,18.426,18.426,0,0,1-.336,6.206c-.128.545-.267,1.079-.441,1.624Zm0,0" transform="translate(-378.225 -7.08)"/><path class="a" d="M65.37,278.564a.773.773,0,0,0-.232-.511.759.759,0,0,0-.592-.313c-3.016-.023-3.689,1.044-3.863,1.218-5.023,5.023-5.081,7.494-5.081,7.749a.849.849,0,0,0,.244.568.061.061,0,0,0,.047.023.7.7,0,0,0,.452.2c.418.046,2.773-.012,7.819-5.058,1.137-1.137,1.218-2.193,1.207-3.875Zm0,0" transform="translate(-52.56 -262.552)"/><path class="b" d="M70.384,283.984c.012,1.682-.069,2.738-1.207,3.875-5.046,5.046-7.4,5.1-7.819,5.058a.7.7,0,0,1-.452-.2l9.246-9.246a.774.774,0,0,1,.232.511Zm0,0" transform="translate(-57.575 -267.972)"/></g></svg>