<svg xmlns="http://www.w3.org/2000/svg" width="50" height="56.178" viewBox="0 0 50 56.178"><defs><style>.a{fill:#4661f2;}.b{fill:#1b2653;}</style></defs><g transform="translate(-25.274)"><g transform="translate(25.274)"><g transform="translate(0)"><path class="a" d="M66.13,282.366a12.217,12.217,0,0,1-9.889,5.046h-5.7a4.552,4.552,0,0,1-4.279-3,14.444,14.444,0,0,1-2.3-.91,15.5,15.5,0,0,1-4.3-3.181A18.351,18.351,0,0,0,25.274,298.24v1.147a2.855,2.855,0,0,0,2.855,2.855H72.419a2.855,2.855,0,0,0,2.855-2.855V298.24A18.338,18.338,0,0,0,66.13,282.366Z" transform="translate(-25.274 -246.064)"/><path class="b" d="M94.859,28.375a3.249,3.249,0,0,0,2.848-1.683l.044.119.013.036a12.687,12.687,0,0,0,7.153,7.532,4.547,4.547,0,0,1,3.853-2.131h5.7a3.19,3.19,0,0,0,1.561-.42A6.439,6.439,0,0,0,117.87,29.7a16.428,16.428,0,0,0,1.425-3.012,3.267,3.267,0,0,0,.9,1.035v1.4a5.732,5.732,0,0,1-5.725,5.725h-5.7a1.95,1.95,0,0,0,0,3.9h5.7a9.637,9.637,0,0,0,9.626-9.626v-1.4a3.246,3.246,0,0,0,1.3-2.6V16.989a3.245,3.245,0,0,0-1.349-2.636,15.593,15.593,0,0,0-31.087,0,3.245,3.245,0,0,0-1.349,2.636v8.136A3.252,3.252,0,0,0,94.859,28.375ZM108.5,3.9a11.708,11.708,0,0,1,11.635,10.533,3.262,3.262,0,0,0-.914,1.129c-1.84-4.8-5.948-8.144-10.721-8.144-4.876,0-8.918,3.458-10.714,8.125l-.007.019a3.262,3.262,0,0,0-.914-1.129A11.709,11.709,0,0,1,108.5,3.9Z" transform="translate(-83.501)"/></g></g></g></svg>