<svg xmlns="http://www.w3.org/2000/svg" width="14.339" height="16" viewBox="0 0 14.339 16"><defs><style>.a{fill:#fff;}</style></defs><path class="a" d="M6.09,14.75H2.5A1.254,1.254,0,0,1,1.247,13.5V4.062A1.254,1.254,0,0,1,2.5,2.812H4.465v.312a1.875,1.875,0,0,0,3.75,0V2.812h1.969a1.251,1.251,0,0,1,1.25,1.25V8.875a.625.625,0,0,0,1.25,0V4.062a2.5,2.5,0,0,0-2.5-2.5H8.215V.625A.625.625,0,0,0,7.59,0H5.09a.625.625,0,0,0-.625.625v.937H2.5A2.5,2.5,0,0,0,0,4.062V13.5A2.5,2.5,0,0,0,2.5,16H6.09a.625.625,0,1,0,0-1.25ZM5.715,1.25h1.25V3.125a.625.625,0,1,1-1.25,0Zm8.507,9.8-3.093,4.321-.021.028a1.611,1.611,0,0,1-1.146.6q-.053,0-.106,0a1.611,1.611,0,0,1-1.109-.443l-2-1.917a.625.625,0,0,1,.866-.9l1.994,1.915a.357.357,0,0,0,.514-.027l3.081-4.3a.625.625,0,1,1,1.016.728ZM4.309,7.469a.625.625,0,0,1-.625.625H3.372a.625.625,0,1,1,0-1.25h.312A.625.625,0,0,1,4.309,7.469Zm5.687,0a.625.625,0,0,1-.625.625h-3.5a.625.625,0,1,1,0-1.25h3.5A.625.625,0,0,1,10,7.469Zm-5.687,2.5a.625.625,0,0,1-.625.625H3.372a.625.625,0,1,1,0-1.25h.312A.625.625,0,0,1,4.309,9.969Zm5.687,0a.625.625,0,0,1-.625.625h-3.5a.625.625,0,1,1,0-1.25h3.5A.625.625,0,0,1,10,9.969Zm0,0" transform="translate(0)"/></svg>