<svg xmlns="http://www.w3.org/2000/svg" width="13.17" height="13.72" viewBox="0 0 13.17 13.72"><defs><style>.a{fill:#d6001c;fill-rule:evenodd;}</style></defs><g transform="translate(-3.2 -1.999)"><path class="a" d="M13.9,7.288a.686.686,0,0,0,0-.971L9.787,2.2a.686.686,0,0,0-.971,0L4.7,6.316a.687.687,0,0,0,.971.971L9.3,3.656l3.63,3.631a.686.686,0,0,0,.971,0Z" transform="translate(0.483 0)"/><path class="a" d="M9.785,12.789a.686.686,0,0,0,.686-.686V3.186a.686.686,0,0,0-1.372,0V12.1A.686.686,0,0,0,9.785,12.789ZM3.2,14.984a.55.55,0,0,1,.549-.549H15.821a.549.549,0,1,1,0,1.1H3.749a.549.549,0,0,1-.549-.549Z" transform="translate(0 0.186)"/></g></svg>