<svg xmlns="http://www.w3.org/2000/svg" width="194.09" height="20.048" viewBox="0 0 194.09 20.048"><defs><style>.a{fill:#fff;}</style></defs><g transform="translate(0 -0.019)"><path class="a" d="M21.4,144.462q0,4.58-3.631,5.918l4.828,6.82H17.344l-4.226-6.085H10.183V157.2H5.93V138.13h7.228q4.447,0,6.346,1.5T21.4,144.462Zm-5.129,2.273a2.869,2.869,0,0,0,.789-2.247,2.4,2.4,0,0,0-.816-2.113,5.236,5.236,0,0,0-2.862-.575h-3.2v5.6h3.109A4.687,4.687,0,0,0,16.268,146.736Z" transform="translate(-5.93 -137.716)"/><path class="a" d="M45.643,157.127a8.225,8.225,0,0,1-5.824,2.34,7.717,7.717,0,0,1-5.523-2.06,7.235,7.235,0,0,1-2.18-5.523,7.141,7.141,0,0,1,2.22-5.51,7.509,7.509,0,0,1,5.256-2.046,7.589,7.589,0,0,1,5.149,1.832,6.279,6.279,0,0,1,2.12,5.015v2.187h-10.7a2.909,2.909,0,0,0,1.224,1.959,4.012,4.012,0,0,0,2.4.769,4.681,4.681,0,0,0,3.544-1.451Zm-3.925-8.693a3.129,3.129,0,0,0-2.06-.709,3.718,3.718,0,0,0-2.227.736,2.835,2.835,0,0,0-1.17,2.006h6.473a2.935,2.935,0,0,0-1.016-2.046Z" transform="translate(-14.603 -139.769)"/><path class="a" d="M69,154.678a4.259,4.259,0,0,1-1.6,3.477,6.185,6.185,0,0,1-4.045,1.324,10.94,10.94,0,0,1-3.41-.582,10.1,10.1,0,0,1-3.19-1.732l1.8-2.568a7.823,7.823,0,0,0,4.881,1.772,2.187,2.187,0,0,0,1.257-.314.956.956,0,0,0,.461-.829,1.2,1.2,0,0,0-.669-.956,7.356,7.356,0,0,0-1.825-.809,17.618,17.618,0,0,1-1.859-.669A10.867,10.867,0,0,1,59.348,152a3.4,3.4,0,0,1-1.665-3.069,4.012,4.012,0,0,1,1.638-3.343,6.647,6.647,0,0,1,4.226-1.284,9.168,9.168,0,0,1,5.182,1.8L67.2,148.78a6.727,6.727,0,0,0-3.8-1.337c-1.264,0-1.9.341-1.9,1.036a.99.99,0,0,0,.6.9,12.116,12.116,0,0,0,2.006.769c.929.288,1.585.508,2.006.669a11.1,11.1,0,0,1,1.4.729A3.343,3.343,0,0,1,69,154.678Z" transform="translate(-22.771 -139.76)"/><path class="a" d="M84.008,145.472v6.573a1.912,1.912,0,0,0,.435,1.337,1.371,1.371,0,0,0,1.036.475,2.374,2.374,0,0,0,1.939-1.036l1.525,2.862a5.9,5.9,0,0,1-4.012,1.745,4.881,4.881,0,0,1-5.035-5.182v-6.774H78.17v-2.949h1.718V138.13h4.119v4.393h3.544v2.949Z" transform="translate(-29.865 -137.716)"/><path class="a" d="M109.617,159.268h-3.845V157.5a4.828,4.828,0,0,1-3.918,2.006,5.811,5.811,0,0,1-3.912-1.337,4.487,4.487,0,0,1-1.585-3.6A3.818,3.818,0,0,1,98,151.224a7.85,7.85,0,0,1,4.473-1.117h3.056v-.08q0-2.347-2.481-2.347a6.774,6.774,0,0,0-2.253.421,7.449,7.449,0,0,0-2.006,1.05l-1.825-2.675a10.953,10.953,0,0,1,6.6-2.1,6.84,6.84,0,0,1,4.366,1.337,5.084,5.084,0,0,1,1.692,4.233Zm-4.139-5.59v-.715H102.91c-1.632,0-2.454.515-2.454,1.531a1.391,1.391,0,0,0,.588,1.21,2.788,2.788,0,0,0,1.678.428,3,3,0,0,0,1.919-.669,2.18,2.18,0,0,0,.836-1.785Z" transform="translate(-35.889 -139.784)"/><path class="a" d="M131.146,152.61V144.7h4.119v14.711h-4.119v-1.939a4.634,4.634,0,0,1-3.965,2.14,5.737,5.737,0,0,1-4.052-1.511,5.82,5.82,0,0,1-1.638-4.487V144.7h4.119v8.024c0,2.26.829,3.384,2.481,3.384a2.922,2.922,0,0,0,2.126-.883,3.464,3.464,0,0,0,.929-2.614Z" transform="translate(-44.218 -139.893)"/><path class="a" d="M155.6,148.158a3.089,3.089,0,0,0-2.728,1.291,5.891,5.891,0,0,0-.9,3.424v6.359H147.88V144.521h4.092v1.939a6.954,6.954,0,0,1,2.006-1.531,5.423,5.423,0,0,1,2.414-.669v3.852Z" transform="translate(-52.961 -139.747)"/><path class="a" d="M176.51,159.268h-3.845V157.5a4.808,4.808,0,0,1-3.912,2.006,5.8,5.8,0,0,1-3.912-1.337,4.487,4.487,0,0,1-1.585-3.6,3.818,3.818,0,0,1,1.638-3.343,7.85,7.85,0,0,1,4.473-1.117h3.076v-.08q0-2.347-2.487-2.347a6.687,6.687,0,0,0-2.247.421,7.449,7.449,0,0,0-2.006,1.05l-1.826-2.675a10.953,10.953,0,0,1,6.6-2.1,6.854,6.854,0,0,1,4.366,1.337,5.08,5.08,0,0,1,1.685,4.233Zm-4.112-5.59v-.715H169.83c-1.638,0-2.454.515-2.454,1.531a1.391,1.391,0,0,0,.588,1.21,2.788,2.788,0,0,0,1.678.428,3.009,3.009,0,0,0,1.919-.669A2.18,2.18,0,0,0,172.4,153.678Z" transform="translate(-58.054 -139.784)"/><path class="a" d="M192.762,151.053v8.185H188.67V144.527h4.092v1.638a5.724,5.724,0,0,1,4.173-1.886,5.182,5.182,0,0,1,3.892,1.638,6.058,6.058,0,0,1,1.565,4.366v8.92H198.3v-8.292c0-2.26-.822-3.383-2.481-3.383a2.982,2.982,0,0,0-2.14.883A3.491,3.491,0,0,0,192.762,151.053Z" transform="translate(-66.476 -139.753)"/><path class="a" d="M218.824,145.472v6.573a1.886,1.886,0,0,0,.441,1.337,1.337,1.337,0,0,0,1.036.475,2.367,2.367,0,0,0,1.932-1.036l1.531,2.862a5.918,5.918,0,0,1-4.012,1.745,4.895,4.895,0,0,1-5.035-5.182v-6.774H213v-2.949h1.712V138.13h4.119v4.393h3.531v2.949Z" transform="translate(-74.537 -137.716)"/><path class="a" d="M241.756,147.021l.114-.067a4.748,4.748,0,0,0,1.277-1.043,4.413,4.413,0,0,0,.809-1.411,5.149,5.149,0,0,0,.274-1.685,4.929,4.929,0,0,0-.448-2.126,5.076,5.076,0,0,0-1.25-1.658,5.6,5.6,0,0,0-1.872-1.063,7.623,7.623,0,0,0-4.246-.127,6.954,6.954,0,0,0-1.7.669,5.964,5.964,0,0,0-1.337,1.09,5.028,5.028,0,0,0-.943,1.424l-.154.334,1.665,1.371.261-.582a3.812,3.812,0,0,1,1.545-1.739,5.129,5.129,0,0,1,4.012-.428,3.344,3.344,0,0,1,1.15.629,2.936,2.936,0,0,1,.749.983,3.19,3.19,0,0,1,.267,1.337,2.715,2.715,0,0,1-.963,2.2,4.467,4.467,0,0,1-2.949.843h-1.163v2.12h1.11a4.681,4.681,0,0,1,3.216,1.01,3.41,3.41,0,0,1,1.09,2.675,3.343,3.343,0,0,1-1.05,2.635,4.313,4.313,0,0,1-2.962.956,5.175,5.175,0,0,1-2.722-.669,3.678,3.678,0,0,1-1.545-1.772l-.247-.6-1.765,1.431.16.341a5.55,5.55,0,0,0,2.38,2.534,7.455,7.455,0,0,0,3.711.9,7.782,7.782,0,0,0,2.554-.408,6.019,6.019,0,0,0,2.006-1.157,5.309,5.309,0,0,0,1.337-1.805,5.6,5.6,0,0,0,.481-2.347,5.423,5.423,0,0,0-1.19-3.537,4.855,4.855,0,0,0-1.665-1.264Z" transform="translate(-80.826 -137.54)"/><path class="a" d="M265.559,145.871a6.934,6.934,0,0,0-2.173-1.471,6.854,6.854,0,0,0-4.681-.241,6.419,6.419,0,0,0-1.719.843,6.607,6.607,0,0,0-1.264,1.143,13.366,13.366,0,0,1,.294-1.685,9.4,9.4,0,0,1,1.057-2.675,4.607,4.607,0,0,1,1.558-1.571,3.925,3.925,0,0,1,2.006-.528,4.386,4.386,0,0,1,2.541.782,4.2,4.2,0,0,1,1.6,2.06l.227.615,1.739-1.337-.147-.341a6.286,6.286,0,0,0-2.347-2.869,6.386,6.386,0,0,0-3.618-1.057,6.125,6.125,0,0,0-2.982.742,6.432,6.432,0,0,0-2.32,2.274,12.123,12.123,0,0,0-1.451,3.718,23.315,23.315,0,0,0-.515,5.216,10.031,10.031,0,0,0,.528,3.343,7.469,7.469,0,0,0,1.478,2.548A6.513,6.513,0,0,0,257.648,157a7.235,7.235,0,0,0,7.844-1.438,6.881,6.881,0,0,0,1.5-7.549A6.933,6.933,0,0,0,265.559,145.871Zm-6.841.468a4.681,4.681,0,0,1,3.691,0,4.942,4.942,0,0,1,1.525,1.03,5.082,5.082,0,0,1,1.03,1.511,4.681,4.681,0,0,1,0,3.658,5.081,5.081,0,0,1-1.03,1.511,4.788,4.788,0,0,1-5.216,1.016,4.62,4.62,0,0,1-1.518-1.016,4.814,4.814,0,0,1-1.03-1.511,4.453,4.453,0,0,1-.381-1.832,4.4,4.4,0,0,1,.381-1.825,4.895,4.895,0,0,1,2.548-2.541Z" transform="translate(-87.911 -137.52)"/><path class="a" d="M289.016,148.4a6.064,6.064,0,0,0-1.411-2.006,6.339,6.339,0,0,0-2.086-1.337,7.015,7.015,0,0,0-5.1,0,6.681,6.681,0,0,0-.97.508l1.13-5.664h8.024v-2.2h-9.816l-.074.388c-.354,1.752-.669,3.343-.976,4.781l-.374,1.852c-.12.622-.234,1.184-.328,1.692s-.181.936-.261,1.337-.134.635-.154.769l-.08.548h2.073l.147-.207a4.6,4.6,0,0,1,1.765-1.538,5.142,5.142,0,0,1,4.012-.234,4.126,4.126,0,0,1,1.377.869,4.272,4.272,0,0,1,.929,1.337,4.226,4.226,0,0,1,.341,1.725,4.427,4.427,0,0,1-.348,1.8,4.52,4.52,0,0,1-.963,1.4,4.219,4.219,0,0,1-1.431.909,4.968,4.968,0,0,1-1.8.321,5.055,5.055,0,0,1-2.675-.756,5.2,5.2,0,0,1-1.879-2.006l-.227-.448-1.779,1.036.194.4a6.861,6.861,0,0,0,2.554,2.869,7.048,7.048,0,0,0,3.845,1.09,7.276,7.276,0,0,0,2.615-.468,6.479,6.479,0,0,0,2.187-1.337,6.761,6.761,0,0,0,1.491-2.086,6.854,6.854,0,0,0,.04-5.309Z" transform="translate(-95.44 -137.573)"/></g></svg>