<svg xmlns="http://www.w3.org/2000/svg" width="78.753" height="100.577" viewBox="0 0 78.753 100.577"><defs><style>.a,.d{fill:#fff;}.b{fill:#f7485e;}.c{fill:rgba(247,72,94,0.5);}.d,.e{stroke:#fba3ae;stroke-width:3px;}.e,.g{fill:none;}.e{stroke-linecap:round;}.f{stroke:none;}</style></defs><g transform="translate(-8 -401)"><g transform="translate(8 401)"><g transform="translate(16.91 1.28)"><path class="a" d="M85.032,325.853a1.1,1.1,0,0,0-1.312.633,7.844,7.844,0,0,1-15.036-4.048,1.1,1.1,0,0,0-.814-1.207l-10.531-2.837a1.122,1.122,0,0,0-1.374.79l-19.131,71.04a1.119,1.119,0,0,0,.79,1.373l10.531,2.836a1.1,1.1,0,0,0,1.312-.633A7.843,7.843,0,0,1,64.5,397.848a1.1,1.1,0,0,0,.816,1.207l10.531,2.837a1.12,1.12,0,0,0,1.373-.791l19.132-71.04a1.121,1.121,0,0,0-.79-1.373Z" transform="translate(-35.672 -317.232)"/><path class="b" d="M76.512,403.426a2.234,2.234,0,0,1-.582-.078L65.4,400.511a2.221,2.221,0,0,1-1.635-2.451,6.721,6.721,0,0,0-12.883-3.467,2.217,2.217,0,0,1-2.644,1.3l-10.531-2.837a2.242,2.242,0,0,1-1.582-2.749l19.131-71.04A2.246,2.246,0,0,1,58,317.683l10.532,2.837a2.219,2.219,0,0,1,1.633,2.451,6.721,6.721,0,0,0,12.883,3.467,2.224,2.224,0,0,1,2.644-1.3l10.532,2.836a2.242,2.242,0,0,1,1.582,2.749l-19.132,71.04A2.246,2.246,0,0,1,76.512,403.426Zm-19.4-15.275a8.972,8.972,0,0,1,8.878,10.23l10.528,2.8,19.129-71.038-10.531-2.833h0a8.959,8.959,0,0,1-17.162-4.658l-10.526-2.8L38.291,390.889l10.529,2.833A8.93,8.93,0,0,1,57.107,388.151Z" transform="translate(-36.045 -317.605)"/><g transform="translate(20.799 32.67)"><path class="c" d="M63.143,339.852l.383,7.484a.451.451,0,0,0,.331.41l7.236,1.948a.447.447,0,0,1,.043.85l-7,2.677a.447.447,0,0,0-.287.442l.383,7.484a.449.449,0,0,1-.8.3l-4.709-5.83a.444.444,0,0,0-.508-.136l-7,2.675a.447.447,0,0,1-.534-.662l4.09-6.281a.45.45,0,0,0-.027-.526l-4.71-5.83a.447.447,0,0,1,.466-.713L57.74,346.1a.447.447,0,0,0,.491-.187l4.09-6.281A.448.448,0,0,1,63.143,339.852Z" transform="translate(-49.937 -339.427)"/></g><g transform="translate(21.694 16.591)"><g transform="translate(1.123 1.124)"><line class="a" x2="26.504" y2="7.138"/></g><path class="b" d="M54.549,331.713a1.094,1.094,0,0,1-.292-.039l-2.891-.779a1.122,1.122,0,0,1,.582-2.168l2.892.779a1.123,1.123,0,0,1-.292,2.207Z" transform="translate(-50.535 -328.687)"/><g transform="translate(9.798 2.639)"><path class="b" d="M65.111,334.557a1.077,1.077,0,0,1-.292-.039l-6.908-1.859a1.122,1.122,0,1,1,.582-2.168L65.4,332.35a1.123,1.123,0,0,1-.29,2.207Z" transform="translate(-57.079 -330.45)"/></g><g transform="translate(23.613 6.36)"><path class="b" d="M70.321,335.961a1.159,1.159,0,0,1-.292-.039l-2.891-.778a1.123,1.123,0,0,1,.582-2.169l2.893.779a1.124,1.124,0,0,1-.292,2.208Z" transform="translate(-66.307 -332.935)"/></g></g><g transform="translate(10.476 58.242)"><g transform="translate(1.124 1.123)"><line class="a" x2="26.504" y2="7.138"/></g><path class="b" d="M47.057,359.531a1.094,1.094,0,0,1-.292-.039l-2.891-.779a1.122,1.122,0,1,1,.582-2.168l2.891.779a1.123,1.123,0,0,1-.29,2.207Z" transform="translate(-43.042 -356.507)"/><g transform="translate(9.799 2.639)"><path class="b" d="M57.619,362.377a1.161,1.161,0,0,1-.293-.039l-6.906-1.861A1.122,1.122,0,1,1,51,358.309l6.908,1.861a1.123,1.123,0,0,1-.29,2.207Z" transform="translate(-49.587 -358.27)"/></g><g transform="translate(23.615 6.359)"><path class="b" d="M62.83,363.779a1.1,1.1,0,0,1-.293-.039l-2.891-.779a1.123,1.123,0,0,1,.584-2.168l2.891.779a1.123,1.123,0,0,1-.29,2.207Z" transform="translate(-58.815 -360.755)"/></g></g></g><path class="a" d="M59.634,317.5a1.261,1.261,0,0,0-1.262,1.091,8.984,8.984,0,0,1-17.834,0,1.261,1.261,0,0,0-1.262-1.091H26.783a1.284,1.284,0,0,0-1.283,1.283v84.269a1.284,1.284,0,0,0,1.283,1.283H39.275a1.261,1.261,0,0,0,1.262-1.091,8.984,8.984,0,0,1,17.834,0,1.261,1.261,0,0,0,1.262,1.091H72.126a1.284,1.284,0,0,0,1.283-1.283V318.783a1.284,1.284,0,0,0-1.283-1.283Z" transform="translate(-24.377 -316.377)"/><path class="b" d="M72.5,405.83H60.006a2.384,2.384,0,0,1-2.377-2.081,7.86,7.86,0,0,0-15.6,0,2.384,2.384,0,0,1-2.377,2.08H27.156a2.409,2.409,0,0,1-2.406-2.406V319.156a2.409,2.409,0,0,1,2.406-2.406H39.648a2.384,2.384,0,0,1,2.377,2.081,7.86,7.86,0,0,0,15.6,0,2.384,2.384,0,0,1,2.377-2.08H72.5a2.409,2.409,0,0,1,2.406,2.406v84.269A2.409,2.409,0,0,1,72.5,405.83ZM49.827,394.6A10.109,10.109,0,0,1,59.86,403.48a.142.142,0,0,0,.147.1H72.5a.16.16,0,0,0,.16-.16V319.156a.16.16,0,0,0-.16-.16H60.006a.143.143,0,0,0-.147.1,10.107,10.107,0,0,1-20.065,0,.142.142,0,0,0-.147-.1H27.156a.16.16,0,0,0-.16.16v84.269a.16.16,0,0,0,.16.16H39.648a.142.142,0,0,0,.147-.1A10.109,10.109,0,0,1,49.827,394.6Z" transform="translate(-24.75 -316.75)"/><g transform="translate(12.351 32.412)"><path class="c" d="M46.214,338.754l2.653,8.164a.51.51,0,0,0,.487.353h8.585a.513.513,0,0,1,.3.928L51.3,353.245a.513.513,0,0,0-.187.573l2.653,8.164a.513.513,0,0,1-.789.573l-6.945-5.045a.512.512,0,0,0-.6,0l-6.945,5.045a.513.513,0,0,1-.789-.573l2.653-8.164a.513.513,0,0,0-.187-.573L33.213,348.2a.513.513,0,0,1,.3-.928H42.1a.51.51,0,0,0,.487-.353l2.653-8.164A.513.513,0,0,1,46.214,338.754Z" transform="translate(-33 -338.399)"/></g><g transform="translate(7.486 17.966)"><g transform="translate(1.123 1.123)"><line class="a" x2="31.44"/></g><path class="b" d="M36.861,331H30.873a1.123,1.123,0,1,1,0-2.246h5.989a1.123,1.123,0,1,1,0,2.246Z" transform="translate(-29.75 -328.75)"/><g transform="translate(12.476)"><path class="b" d="M45.695,331H39.206a1.123,1.123,0,1,1,0-2.246h6.489a1.123,1.123,0,1,1,0,2.246Z" transform="translate(-38.083 -328.75)"/></g><g transform="translate(25.452)"><path class="b" d="M53.861,331H47.873a1.123,1.123,0,1,1,0-2.246h5.989a1.123,1.123,0,1,1,0,2.246Z" transform="translate(-46.75 -328.75)"/></g></g><g transform="translate(7.486 67.372)"><g transform="translate(1.123 1.123)"><line class="a" x2="31.44"/></g><path class="b" d="M36.861,364H30.873a1.123,1.123,0,1,1,0-2.246h5.989a1.123,1.123,0,1,1,0,2.246Z" transform="translate(-29.75 -361.75)"/><g transform="translate(12.476)"><path class="b" d="M45.695,364H39.206a1.123,1.123,0,1,1,0-2.246h6.489a1.123,1.123,0,1,1,0,2.246Z" transform="translate(-38.083 -361.75)"/></g><g transform="translate(25.452)"><path class="b" d="M53.861,364H47.873a1.123,1.123,0,1,1,0-2.246h5.989a1.123,1.123,0,1,1,0,2.246Z" transform="translate(-46.75 -361.75)"/></g></g></g><g class="d" transform="translate(47.746 464.577)"><circle class="f" cx="18.5" cy="18.5" r="18.5"/><circle class="g" cx="18.5" cy="18.5" r="17"/></g><g transform="translate(57.326 473.447)"><line class="e" y2="19.15" transform="translate(9.575)"/><line class="e" x2="19.15" transform="translate(0 9.575)"/></g></g></svg>