<svg xmlns="http://www.w3.org/2000/svg" xmlns:xlink="http://www.w3.org/1999/xlink" width="70" height="70" viewBox="0 0 70 70"><defs><style>.a{fill:#fff;stroke:#707070;}.b{clip-path:url(#a);}.c{fill:#d6001c;}.d{fill:#aaa;}</style><clipPath id="a"><rect class="a" width="70" height="70"/></clipPath></defs><g transform="translate(-1015 -440)"><g class="b" transform="translate(1015 440)"><g transform="translate(3 6)"><path class="c" d="M42,0C30.747,0,21.51,7.758,20.8,17.531c10.121,2.577,19.5,4.634,22.408,19.94A28.108,28.108,0,0,0,50.7,36.138,13.788,13.788,0,0,0,60.25,40a1.25,1.25,0,0,0,.884-2.134A7.6,7.6,0,0,1,59.125,30.7,17.467,17.467,0,0,0,64,18.75C64,7.889,53.145,0,42,0ZM57.1,29.2a1.253,1.253,0,0,0-.306.528,10.109,10.109,0,0,0,.762,7.44,11.275,11.275,0,0,1-5.61-3.329,1.251,1.251,0,0,0-1.385-.317A24.624,24.624,0,0,1,43.2,34.968c-2.223-4.343-11.711-16.689-19.9-17.432C24.021,9.141,32.132,2.5,42,2.5c10.57,0,19.5,7.441,19.5,16.25A15.022,15.022,0,0,1,57.1,29.2Zm0,0" transform="translate(0 0)"/></g></g><path class="d" d="M20.8,17.531C10.079,18.069,0,25.8,0,36.25A17.467,17.467,0,0,0,4.875,48.2a7.6,7.6,0,0,1-2.009,7.162A1.25,1.25,0,0,0,3.75,57.5,13.788,13.788,0,0,0,13.3,53.638,28.485,28.485,0,0,0,22,55c11.252,0,20.487-7.757,21.2-17.528.046-1.276.077-1.245,0-1.222s-.116-14.6,1.747-15.232c2.193,2.116-16.663-3.743-22.592-3.486C21.238,17.548,20.819,17.53,20.8,17.531ZM22,52.5a25.269,25.269,0,0,1-8.564-1.475,1.25,1.25,0,0,0-1.385.317,11.279,11.279,0,0,1-5.61,3.329,10.109,10.109,0,0,0,.762-7.44A1.247,1.247,0,0,0,6.9,46.7,15.022,15.022,0,0,1,2.5,36.25C2.5,27.441,11.43,20,22,20c9.981,0,18.75,6.941,18.75,16.25,0,8.96-8.411,16.25-18.75,16.25ZM44.951,21.018c-1.024.094-1.856,5.358-1.751,13.951A17.892,17.892,0,0,0,36.445,22.5,16.948,16.948,0,0,0,32.6,20a23.313,23.313,0,0,0-9.3-2.463C36.209,19.031,46.46,22.668,44.951,21.018Z" transform="translate(1018 446)"/></g></svg>