<svg xmlns="http://www.w3.org/2000/svg" width="87.524" height="94.872" viewBox="0 0 87.524 94.872"><defs><style>.a,.d{fill:#fff;}.b{fill:#f7485e;}.c,.f{fill:rgba(247,72,94,0.5);}.d,.e,.f{stroke:#fba3ae;}.e{fill:#fba3ae;}</style></defs><g transform="translate(-225.045 -411.25)"><g transform="translate(225.045 411.25)"><g transform="translate(6.645)"><g transform="translate(57.157)"><path class="a" d="M278.813,419.026A7.026,7.026,0,0,0,271.787,412H266.85v13.292h11.963Z" transform="translate(-265.685 -410.835)"/><path class="b" d="M280.394,426.873H266.1V411.25h6.1a8.2,8.2,0,0,1,8.192,8.191Zm-11.963-2.331h9.632v-5.1a5.867,5.867,0,0,0-5.86-5.86h-3.772Z" transform="translate(-266.1 -411.25)"/></g><path class="a" d="M248.681,412H236.907a6.836,6.836,0,0,0-6.836,6.836v74.246h59.816V412Z" transform="translate(-228.905 -410.835)"/><path class="b" d="M291.468,494.663H229.321V419.25a8.011,8.011,0,0,1,8-8h54.145Zm-59.816-2.331h57.485V413.581H237.323a5.677,5.677,0,0,0-5.671,5.669Z" transform="translate(-229.321 -411.25)"/></g><g transform="translate(0 67.79)"><path class="a" d="M285.61,468.913H232.251a6.456,6.456,0,0,1-6.456-6.456v-6.836h53.168S276.305,464.925,285.61,468.913Z" transform="translate(-224.629 -454.456)"/><path class="b" d="M291.705,470.494H232.666a7.63,7.63,0,0,1-7.621-7.621v-8h55.878l-.423,1.486c-.095.337-2.236,8.378,5.985,11.9ZM227.376,457.2v5.671a5.3,5.3,0,0,0,5.29,5.29H281.9c-4.165-3.57-4.2-8.518-3.905-10.961Z" transform="translate(-225.045 -454.871)"/></g></g><g transform="translate(243.847 431.841)"><g transform="translate(0)"><ellipse class="c" cx="2.483" cy="2.483" rx="2.483" ry="2.483"/></g><g transform="translate(11.172 1.241)"><path class="c" d="M267.663,427.733H244.491a1.241,1.241,0,0,1,0-2.483h23.172a1.241,1.241,0,1,1,0,2.483Z" transform="translate(-243.25 -425.25)"/></g></g><g transform="translate(243.847 445.082)"><g transform="translate(0)"><ellipse class="c" cx="2.483" cy="2.483" rx="2.483" ry="2.483"/></g><g transform="translate(11.172 1.241)"><path class="c" d="M267.663,435.733H244.491a1.241,1.241,0,0,1,0-2.483h23.172a1.241,1.241,0,1,1,0,2.483Z" transform="translate(-243.25 -433.25)"/></g></g><g transform="translate(243.847 458.323)"><g transform="translate(0)"><ellipse class="c" cx="2.483" cy="2.483" rx="2.483" ry="2.483"/></g><g transform="translate(11.172 1.241)"><path class="c" d="M267.663,443.733H244.491a1.241,1.241,0,0,1,0-2.483h23.172a1.241,1.241,0,1,1,0,2.483Z" transform="translate(-243.25 -441.25)"/></g></g><g transform="translate(267.886 461.755)"><path class="d" d="M276.909,464.846a14.982,14.982,0,0,0,1.945-2.629.843.843,0,0,1,.912-.4l4.632,1.056a.842.842,0,0,0,1.009-.634l1.45-6.36a.843.843,0,0,0-.635-1.009l-4.624-1.054a.842.842,0,0,1-.646-.757,15.366,15.366,0,0,0-1.924-6.216.841.841,0,0,1,.106-.99l3.23-3.482a.843.843,0,0,0-.045-1.191l-4.782-4.436a.843.843,0,0,0-1.191.045l-3.23,3.483a.841.841,0,0,1-.979.18A15.368,15.368,0,0,0,265.795,439a.839.839,0,0,1-.8-.588l-1.4-4.531a.843.843,0,0,0-1.054-.557l-6.232,1.924a.843.843,0,0,0-.557,1.054l1.4,4.539a.838.838,0,0,1-.333.939,14.791,14.791,0,0,0-4.42,4.766.839.839,0,0,1-.911.4l-4.633-1.056a.842.842,0,0,0-1.008.635l-1.451,6.358a.844.844,0,0,0,.635,1.009l4.624,1.055a.838.838,0,0,1,.646.756,15.361,15.361,0,0,0,1.925,6.217.841.841,0,0,1-.106.989l-3.231,3.483a.843.843,0,0,0,.045,1.191l4.782,4.436a.844.844,0,0,0,1.191-.046l3.23-3.482a.841.841,0,0,1,.979-.181,15.353,15.353,0,0,0,6.343,1.453.838.838,0,0,1,.8.587l1.4,4.531a.844.844,0,0,0,1.054.558l6.232-1.924a.841.841,0,0,0,.556-1.054l-1.4-4.54a.841.841,0,0,1,.334-.939A15.06,15.06,0,0,0,276.909,464.846Z" transform="translate(-243.537 -432.448)"/><path class="e" d="M268.549,476.4a1.68,1.68,0,0,1-1.6-1.185l-1.4-4.53a16.068,16.068,0,0,1-6.7-1.53l-3.241,3.474a1.681,1.681,0,0,1-2.372.09l-4.784-4.437a1.68,1.68,0,0,1-.088-2.373l3.23-3.482a16.057,16.057,0,0,1-2.039-6.565l-4.623-1.068a1.676,1.676,0,0,1-1.263-2.011l1.449-6.358a1.682,1.682,0,0,1,2.011-1.265l4.632,1.057a15.617,15.617,0,0,1,4.67-5.04l-1.391-4.545a1.681,1.681,0,0,1,1.11-2.1l6.231-1.923a1.681,1.681,0,0,1,2.1,1.11l1.4,4.531a16.079,16.079,0,0,1,6.7,1.527l3.242-3.473a1.681,1.681,0,0,1,2.372-.09l4.783,4.438a1.676,1.676,0,0,1,.089,2.371l-3.231,3.484a16.039,16.039,0,0,1,2.039,6.564l4.623,1.068a1.678,1.678,0,0,1,1.264,2.011l-1.45,6.36a1.679,1.679,0,0,1-2.011,1.264l-4.633-1.056a16.025,16.025,0,0,1-2.055,2.784h0A15.9,15.9,0,0,1,275,467.757l1.391,4.545a1.678,1.678,0,0,1-1.11,2.1l-6.232,1.925A1.683,1.683,0,0,1,268.549,476.4Zm-9.72-8.924a1.7,1.7,0,0,1,.727.164,14.4,14.4,0,0,0,6,1.372,1.678,1.678,0,0,1,1.594,1.179l1.4,4.529,6.24-1.918-1.4-4.547a1.675,1.675,0,0,1,.655-1.874,14.22,14.22,0,0,0,2.339-2.019h0a14.459,14.459,0,0,0,1.837-2.483,1.674,1.674,0,0,1,1.817-.8l4.634,1.056,1.457-6.364-4.629-1.062a1.676,1.676,0,0,1-1.293-1.5,14.433,14.433,0,0,0-1.82-5.875,1.678,1.678,0,0,1,.222-1.971l3.23-3.482-4.782-4.445-3.239,3.483a1.677,1.677,0,0,1-1.947.368,14.442,14.442,0,0,0-6-1.373,1.675,1.675,0,0,1-1.593-1.176l-1.4-4.534-6.24,1.921,1.4,4.546a1.679,1.679,0,0,1-.656,1.875,13.952,13.952,0,0,0-4.177,4.5,1.678,1.678,0,0,1-1.819.8l-4.632-1.057-1.457,6.364,4.629,1.063a1.673,1.673,0,0,1,1.293,1.5,14.453,14.453,0,0,0,1.82,5.878,1.672,1.672,0,0,1-.222,1.969l-3.23,3.482,4.782,4.446,3.24-3.483A1.656,1.656,0,0,1,258.829,467.478Z" transform="translate(-243.623 -432.535)"/><g transform="translate(14.417 14.26)"><path class="f" d="M264.219,460.665a7.671,7.671,0,1,1,5.631-2.453h0A7.657,7.657,0,0,1,264.219,460.665Zm.006-13.674a6,6,0,1,0,4.4,10.084h0a6,6,0,0,0-4.4-10.084Z" transform="translate(-256.549 -445.32)"/></g></g></g></svg>