<svg xmlns="http://www.w3.org/2000/svg" xmlns:xlink="http://www.w3.org/1999/xlink" width="70" height="70" viewBox="0 0 70 70"><defs><style>.a{fill:#fff;stroke:#707070;}.b{clip-path:url(#a);}.c{fill:#d6001c;}</style><clipPath id="a"><rect class="a" width="70" height="70"/></clipPath></defs><g class="b"><g transform="translate(3 6)"><path class="c" d="M42,0C30.747,0,21.51,7.758,20.8,17.531c10.121,2.577,19.5,4.634,22.408,19.94A28.108,28.108,0,0,0,50.7,36.138,13.788,13.788,0,0,0,60.25,40a1.25,1.25,0,0,0,.884-2.134A7.6,7.6,0,0,1,59.125,30.7,17.467,17.467,0,0,0,64,18.75C64,7.889,53.145,0,42,0ZM57.1,29.2a1.253,1.253,0,0,0-.306.528,10.109,10.109,0,0,0,.762,7.44,11.275,11.275,0,0,1-5.61-3.329,1.251,1.251,0,0,0-1.385-.317A24.624,24.624,0,0,1,43.2,34.968c-2.223-4.343-11.711-16.689-19.9-17.432C24.021,9.141,32.132,2.5,42,2.5c10.57,0,19.5,7.441,19.5,16.25A15.022,15.022,0,0,1,57.1,29.2Zm0,0" transform="translate(0 0)"/></g></g></svg>