<svg xmlns="http://www.w3.org/2000/svg" width="36.833" height="65" viewBox="0 0 36.833 65"><defs><style>.a{fill:#d6001c;}.b{fill:#98999b;}</style></defs><g transform="translate(-110.933)"><g transform="translate(122.85 3.25)"><path class="a" d="M216.718,25.6H205.884a1.083,1.083,0,1,0,0,2.167h10.833a1.083,1.083,0,0,0,0-2.167Z" transform="translate(-204.801 -25.6)"/></g><g transform="translate(140.183 3.25)"><path class="a" d="M343.5,25.6h-1.083a1.083,1.083,0,0,0,0,2.167H343.5a1.083,1.083,0,0,0,0-2.167Z" transform="translate(-341.334 -25.6)"/></g><g transform="translate(125.016 55.25)"><g transform="translate(0)"><path class="a" d="M227.546,435.2h-2.69a2.993,2.993,0,0,0-2.989,2.989v.523a2.992,2.992,0,0,0,2.988,2.988h2.69a2.992,2.992,0,0,0,2.989-2.988v-.523A2.992,2.992,0,0,0,227.546,435.2Zm.821,3.512a.822.822,0,0,1-.821.821h-2.69a.822.822,0,0,1-.822-.821v-.523a.823.823,0,0,1,.822-.822h2.689a.822.822,0,0,1,.822.822Z" transform="translate(-221.867 -435.2)"/></g></g><g transform="translate(110.933)"><g transform="translate(0)"><path class="b" d="M143.851,0h-29a3.921,3.921,0,0,0-3.916,3.916V61.084A3.921,3.921,0,0,0,114.849,65h29a3.921,3.921,0,0,0,3.916-3.915V3.916A3.921,3.921,0,0,0,143.851,0ZM145.6,61.084a1.751,1.751,0,0,1-1.749,1.75h-29a1.751,1.751,0,0,1-1.75-1.749V3.916a1.752,1.752,0,0,1,1.75-1.75h29a1.752,1.752,0,0,1,1.75,1.75V61.084Z" transform="translate(-110.933)"/></g></g><g transform="translate(110.933 6.5)"><g transform="translate(0)"><path class="b" d="M146.684,51.2H112.017a1.084,1.084,0,0,0-1.083,1.083v45.5a1.084,1.084,0,0,0,1.083,1.083h34.667a1.084,1.084,0,0,0,1.083-1.083v-45.5A1.084,1.084,0,0,0,146.684,51.2ZM145.6,96.7H113.1V53.367h32.5Z" transform="translate(-110.934 -51.2)"/></g></g></g></svg>