<svg xmlns="http://www.w3.org/2000/svg" width="48.475" height="51.294" viewBox="0 0 48.475 51.294"><defs><style>.a{fill:#274186;}.b{fill:#15c1f3;}</style></defs><g transform="translate(0 0.044)"><path class="a" d="M47.183,19.579l-.808-1.454-1.131.808v-.162c.323-.162.808-.323,1.131-.485l-1.454-2.424h0a5.572,5.572,0,0,1-5.494-9.7L37.972,3.744c-.323.162-.646.485-.97.646h-.162l1.131-.646L36.518,1.32h0A2.686,2.686,0,0,0,32.8.351L1.777,18.448a2.522,2.522,0,0,0-1.293,2.1A3.118,3.118,0,0,0,0,22.164v6.463H0a6.482,6.482,0,0,1,6.463,6.463A6.482,6.482,0,0,1,0,41.555v6.463A3.241,3.241,0,0,0,3.232,51.25H45.244a3.241,3.241,0,0,0,3.232-3.232V41.555h0a6.463,6.463,0,1,1,0-12.927h0V22.164A3.373,3.373,0,0,0,47.183,19.579ZM34.256,2.774l1.293,2.262v.97a8.32,8.32,0,0,0-.485,9.21,8.256,8.256,0,0,0,4.848,3.878H6.3ZM45.244,25.558V26.2a9.56,9.56,0,0,0-5.979,5.979,9.682,9.682,0,0,0,5.979,12.28v3.878H3.232V44.463A9.56,9.56,0,0,0,9.21,38.485,9.682,9.682,0,0,0,3.232,26.2V22.326H45.244Z" transform="translate(0 0)"/><path class="b" d="M16.424,28.032H14.808A.763.763,0,0,1,14,27.224V25.608a.763.763,0,0,1,.808-.808h1.616a.763.763,0,0,1,.808.808v1.616A.866.866,0,0,1,16.424,28.032Z" transform="translate(8.622 15.3)"/><path class="b" d="M16.424,24.032H14.808A.763.763,0,0,1,14,23.224V21.608a.763.763,0,0,1,.808-.808h1.616a.763.763,0,0,1,.808.808v1.616a.866.866,0,0,1-.808.808Z" transform="translate(8.622 12.837)"/><path class="b" d="M16.424,20.032H14.808A.763.763,0,0,1,14,19.224V17.608a.763.763,0,0,1,.808-.808h1.616a.763.763,0,0,1,.808.808v1.616a.866.866,0,0,1-.808.808Z" transform="translate(8.622 10.374)"/><path class="b" d="M12.647,10.07l1.131-.646a.777.777,0,0,1,.97.323h0l.646,1.131a.777.777,0,0,1-.323.97l-1.131.646a.777.777,0,0,1-.97-.323h0l-.646-1.131A.719.719,0,0,1,12.647,10.07Z" transform="translate(7.551 5.792)"/></g></svg>