<svg xmlns="http://www.w3.org/2000/svg" width="55.388" height="61.368" viewBox="0 0 55.388 61.368"><defs><style>.a{fill:#274186;}.b{fill:#15c1f3;}</style></defs><g transform="translate(0 44.085) rotate(-60)"><path class="a" d="M49.547,1.311,47.731.226,26.073.127,4.547,0A8.108,8.108,0,0,0,1.018,1.319,3.159,3.159,0,0,0,0,4.026v6.787H0A6.807,6.807,0,0,1,6.791,17.6,6.807,6.807,0,0,1,0,24.386v6.787A3.4,3.4,0,0,0,3.4,34.566H47.511A3.4,3.4,0,0,0,50.9,31.173V24.386h0a6.787,6.787,0,0,1,0-13.574h0V4.026A3.542,3.542,0,0,0,49.547,1.311ZM47.511,7.589v.679a10.038,10.038,0,0,0-6.278,6.278A10.167,10.167,0,0,0,47.511,27.44v4.072H3.4V27.44a10.038,10.038,0,0,0,6.278-6.278A10.167,10.167,0,0,0,3.4,8.268V4.2H47.511Z" transform="translate(0 0)"/><path class="b" d="M2.545,3.393H.848A.8.8,0,0,1,0,2.545V.848A.8.8,0,0,1,.848,0h1.7a.8.8,0,0,1,.848.848v1.7A.909.909,0,0,1,2.545,3.393Z" transform="translate(23.758 22.859)"/><path class="b" d="M2.545,3.393H.848A.8.8,0,0,1,0,2.545V.848A.8.8,0,0,1,.848,0h1.7a.8.8,0,0,1,.848.848v1.7a.909.909,0,0,1-.848.848Z" transform="translate(23.758 16.072)"/><path class="b" d="M2.545,3.393H.848A.8.8,0,0,1,0,2.545V.848A.8.8,0,0,1,.848,0h1.7a.8.8,0,0,1,.848.848v1.7a.909.909,0,0,1-.848.848Z" transform="translate(23.758 9.286)"/></g></svg>