<svg xmlns="http://www.w3.org/2000/svg" width="57.075" height="57.94" viewBox="0 0 57.075 57.94"><defs><style>.a{fill:#274186;}.b{fill:#15c1f3;}</style></defs><path class="a" d="M44.56,0H10.317A6.659,6.659,0,0,0,3.658,6.659V40.822a6.659,6.659,0,0,0,6.659,6.659H20.78v-1.9H10.317A4.756,4.756,0,0,1,5.56,40.822V24.732h6.109a1.024,1.024,0,0,0,.871-1.412,3.8,3.8,0,1,1,6.967,0,.987.987,0,0,0,.871,1.412h6.109v5.707a5.568,5.568,0,0,0-.951-.078A5.707,5.707,0,0,0,23.253,41.3l.761-1.743a3.8,3.8,0,0,1,1.522-7.294,3.76,3.76,0,0,1,1.523.322.951.951,0,0,0,1.331-.872V24.732h4.836a5.568,5.568,0,0,0-.08.951,5.724,5.724,0,0,0,4.566,5.593l.38-1.862a3.818,3.818,0,0,1-3.044-3.729,3.76,3.76,0,0,1,.322-1.523.951.951,0,0,0-.872-1.331H28.39v-4.84a5.568,5.568,0,0,0,.951.08,5.707,5.707,0,1,0,0-11.415,5.569,5.569,0,0,0-.951.082V1.9H44.56a4.756,4.756,0,0,1,4.756,4.756V22.829H43.208a.951.951,0,0,0-.871,1.332,3.759,3.759,0,0,1,.322,1.522h1.9a5.568,5.568,0,0,0-.08-.951h5.787a.951.951,0,0,0,.951-.951V6.659A6.659,6.659,0,0,0,44.56,0ZM29.341,8.561a3.8,3.8,0,1,1,0,7.61,3.76,3.76,0,0,1-1.523-.322.951.951,0,0,0-1.331.872v6.031h-4.83a5.556,5.556,0,0,0,.074-.871V21.8a5.707,5.707,0,1,0-11.415,0v.078a5.553,5.553,0,0,0,.074.871H5.56V6.659A4.756,4.756,0,0,1,10.317,1.9H26.487V8.011a.951.951,0,0,0,1.332.871A3.759,3.759,0,0,1,29.341,8.561Z" transform="translate(-3.658)"/><g transform="translate(18.54 26.553)"><path class="b" d="M196.062,237.649l-7.99-5.506L185,223.936a.951.951,0,0,0-1.223-.559l-.053.021-6.183,2.736a.951.951,0,0,0-.5,1.21,6.072,6.072,0,0,0,.3.677,7.272,7.272,0,0,1,.312.713,3.8,3.8,0,1,1-7.357,1.141.951.951,0,0,0-1.286-.94l-6.609,2.488a.951.951,0,0,0-.556,1.223l2.372,6.337a5.368,5.368,0,0,0-.923.255,5.721,5.721,0,1,0,4.876,10.3l1.7,4.543a.951.951,0,0,0,1.225.557h0l9.425-3.552a5.108,5.108,0,0,0,3.012,2.69l.6-1.807a3.207,3.207,0,0,1-1.819-1.554l2.869-1.081a6.638,6.638,0,0,0,6.263,4.414v-1.9a4.785,4.785,0,0,1-4.756-4.756.951.951,0,0,0-.278-.671l-3.312-3.312a1.412,1.412,0,0,1-.131-1.836,1.385,1.385,0,0,1,1.022-.557,1.364,1.364,0,0,1,1.092.409l6.641,6.641,1.345-1.345-1.965-1.965a6.636,6.636,0,0,0-.084-4.446l-1.783-4.756,5.747,3.959a2.854,2.854,0,0,1,1.216,2.338v12.286h1.9v-12.29a4.756,4.756,0,0,0-2.038-3.9Zm-6.832,3.032a4.766,4.766,0,0,1,.278,2.19l-3.088-3.086a3.305,3.305,0,0,0-4.733,4.615l.059.059,3.01,3.01-13.443,5.062-1.813-4.845a.951.951,0,0,0-.685-.594.968.968,0,0,0-.205-.023.951.951,0,0,0-.666.272,3.8,3.8,0,1,1-3.984-6.316,3.663,3.663,0,0,1,.942-.213,3.382,3.382,0,0,1,.6-.019.951.951,0,0,0,.942-1.282l-2.485-6.634,4.53-1.712a5.707,5.707,0,1,0,10.947-3.1c-.088-.234-.167-.419-.242-.584l4.376-1.939Z" transform="translate(-159.564 -223.316)"/></g></svg>