<svg xmlns="http://www.w3.org/2000/svg" width="45.126" height="41.128" viewBox="0 0 45.126 41.128"><defs><style>.a{fill:#15c1f3;}.b{fill:#274186;}</style></defs><g transform="translate(0 -22.649)"><path class="a" d="M119.991,98.689v-2.8h2.8V93.247h-2.8v-2.8h-2.644v2.8h-2.8v2.644h2.8v2.8Z" transform="translate(-104.453 -61.827)"/><path class="b" d="M40.914,37.1H28.536V26.861a4.212,4.212,0,0,0-4.212-4.212H4.212A4.212,4.212,0,0,0,0,26.861V39.255a4.212,4.212,0,0,0,4.212,4.212H4.9V49.32l8.745-5.851h2.944V53.712A4.212,4.212,0,0,0,20.8,57.924h10.68l8.742,5.853V57.924h.689a4.212,4.212,0,0,0,4.212-4.212V41.318a4.212,4.212,0,0,0-4.212-4.212Zm-28.07,3.72L7.55,44.37V40.824H4.212a1.572,1.572,0,0,1-1.57-1.57V26.859a1.572,1.572,0,0,1,1.57-1.576h20.11a1.572,1.572,0,0,1,1.57,1.57V37.1H20.8a4.219,4.219,0,0,0-4.185,3.721H12.844ZM42.477,53.712a1.572,1.572,0,0,1-1.563,1.57H37.576v3.544l-5.295-3.545H20.8a1.572,1.572,0,0,1-1.57-1.569V41.318a1.572,1.572,0,0,1,1.57-1.57h20.11a1.572,1.572,0,0,1,1.57,1.57V53.712Z"/><path class="a" d="M303.962,286.232h8.24v2.644h-8.24Z" transform="translate(-277.172 -240.355)"/></g></svg>