<svg xmlns="http://www.w3.org/2000/svg" xmlns:xlink="http://www.w3.org/1999/xlink" width="133.355" height="150.091" viewBox="0 0 133.355 150.091"><defs><style>.a{clip-path:url(#a);}.b{fill:#002d59;}.c{fill:#fff;}.d{clip-path:url(#ba);}.e{clip-path:url(#eu);}</style><clipPath id="a"><rect width="133.355" height="150.091"/></clipPath><clipPath id="ba"><rect width="133.355" height="150.091" transform="translate(0)"/></clipPath><clipPath id="eu"><rect width="133.355" height="98.076"/></clipPath></defs><g transform="translate(-106.895 20.816)"><g transform="translate(106.895 -20.816)"><g transform="translate(0 0)"><g class="a"><path class="b" d="M125.693,77.759a1.236,1.236,0,0,0,.269-.358h0v-.358l-7.429-22.2a.673.673,0,0,0-.626-.448H93.831a.673.673,0,0,0-.626.448l-7.518,22.2h0a.553.553,0,0,0,.448.716.681.681,0,0,0,.806-.448h0l7.518-22.2-.626-.179v.627h23.717L124.887,77.4l.448-.09-.626-.179h0l.626.179-.358-.448L105.466,90.558l.358.448.089-.626h0a.573.573,0,0,0-.358,1.074h0a.583.583,0,0,0,.627-.984l-19.6-13.694a.823.823,0,0,0-.9.089.519.519,0,0,0,.179.806l19.6,13.783.358-.447.358-.537h0l-.358.537-.09.626h0a.807.807,0,0,0,.448-.09" transform="translate(-9.88 10.13)"/></g></g><g transform="translate(0 0)"><g class="a"><path class="c" d="M93.818,55.1,86.3,77.3l19.6,13.783,19.511-13.694-7.429-22.2Z" transform="translate(-9.957 10.056)"/></g></g><g transform="translate(0 0)"><g class="a"><path class="c" d="M53.958,107.946v-.179l.089-3.58a4.272,4.272,0,0,0-.179-1.88c-.447-1.164-1.7-1.88-3.58-1.88a7.721,7.721,0,0,0-3.043.627,8.352,8.352,0,0,0-1.79.895l1.253,1.969a5.673,5.673,0,0,1,3.132-1.163c1.074,0,1.253.358,1.253,1.611v.448h-.626c-3.491,0-5.281,1.163-5.281,3.669,0,2.148,1.342,3.312,3.759,3.312a4.14,4.14,0,0,0,2.237-.537c.179-.179.447-.358.626-.537a3.055,3.055,0,0,0,1.521,1.253l1.522-1.7a2.65,2.65,0,0,1-.9-2.327m-2.864.984a2.206,2.206,0,0,1-1.521.716,1.277,1.277,0,0,1-1.253-1.432c0-1.253.716-1.611,2.685-1.611h.089Zm-14.588.626c-.985,0-1.253-.358-1.253-1.7v-5.37h1.879l.716-1.88h-2.6a17.245,17.245,0,0,1,.09-2.148H32.478a15.2,15.2,0,0,0-.09,2.148H31.314v1.88h1.074v5.728a3.533,3.533,0,0,0,.179,1.611,3.063,3.063,0,0,0,2.953,1.521,7.617,7.617,0,0,0,2.327-.448l-.358-1.7a1.327,1.327,0,0,1-.984.358m7.876-9.129a3.217,3.217,0,0,0-.985.179,4.628,4.628,0,0,0-1.611,1.342,2.774,2.774,0,0,0-.447-1.521l-2.6.627a8.581,8.581,0,0,1,.447,3.132v7.07h2.864v-7.518a2.2,2.2,0,0,1,1.79-.895,2.137,2.137,0,0,1,.806.179l.806-2.416a2.27,2.27,0,0,0-1.074-.179M26.928,102.4l-1.79-.448c-1.253-.358-1.611-.716-1.611-1.432a1.859,1.859,0,0,1,2.058-1.7,7.392,7.392,0,0,1,3.491,1.074l1.432-2.059A9.16,9.16,0,0,0,25.5,96.4c-3.133,0-5.37,1.79-5.37,4.475a4.04,4.04,0,0,0,.627,2.238,4.226,4.226,0,0,0,2.953,1.79l1.611.447c1.342.358,1.969.9,1.969,1.88,0,1.253-.9,1.969-2.6,1.969a8.683,8.683,0,0,1-4.117-1.163L19.5,110.272a11.4,11.4,0,0,0,5.1,1.343c3.67,0,6.176-1.969,6.176-4.833-.089-2.148-1.432-3.669-3.848-4.385m33.473,7.16c-.984,0-1.253-.358-1.253-1.7v-5.37h1.879l.716-1.88h-2.6a17.245,17.245,0,0,1,.09-2.148H56.374a15.2,15.2,0,0,0-.089,2.148H55.21v1.88h1.074v5.728a3.533,3.533,0,0,0,.179,1.611,3.063,3.063,0,0,0,2.954,1.521,7.617,7.617,0,0,0,2.327-.448l-.358-1.7a1.327,1.327,0,0,1-.984.358m26.582.09a.541.541,0,0,1-.537-.269c-.179-.269-.179-.537-.179-2.327V97.116H83.313c0,.626.09,1.88.09,2.685v7.966c0,1.521,0,1.879.269,2.416a2.572,2.572,0,0,0,2.506,1.432,4.844,4.844,0,0,0,1.7-.269l-.537-1.7h-.358m21.033-12.619h-2.864v2.506a7.753,7.753,0,0,0,.09,1.611,2.893,2.893,0,0,0-1.969-.626c-2.774,0-4.654,2.327-4.654,5.639s1.79,5.37,4.564,5.37a3.6,3.6,0,0,0,2.506-.9,5.7,5.7,0,0,0,.179.626h2.6a9.9,9.9,0,0,1-.448-3.849V97.026Zm-2.774,11.456a2.021,2.021,0,0,1-1.432.716c-1.521,0-1.969-.716-1.969-3.043s.537-3.4,1.88-3.4a2.6,2.6,0,0,1,1.611.716l-.09,5.012Zm-36.158-8.144a5.011,5.011,0,0,0-3.132,1.163c0-.089.09-.537.09-.895V97.116H63.086v14.141H66.04v-7.607a3.868,3.868,0,0,1,2.237-.984c.806,0,1.074.358,1.074,1.432v7.16h2.774v-7.428a5.784,5.784,0,0,0-.269-1.969c-.268-.895-1.342-1.521-2.774-1.521m50.3,6.533v-.626c0-2.238-.448-3.67-1.432-4.654a4.889,4.889,0,0,0-6.623.268,5.684,5.684,0,0,0-1.342,4.206c0,3.312,2.059,5.549,5.191,5.549a6.411,6.411,0,0,0,4.117-1.432l-1.074-1.7a4.338,4.338,0,0,1-2.774,1.074c-1.432,0-2.327-.895-2.327-2.6v-.09Zm-6.355-2.148c0-1.521.626-2.327,1.7-2.327a1.354,1.354,0,0,1,1.253.626,2.524,2.524,0,0,1,.358,1.611v.09Zm-32.22,3.849a2.986,2.986,0,0,1-1.969.9,1.566,1.566,0,0,1-1.253-.627,4.432,4.432,0,0,1-.537-2.685c0-2.506.537-3.58,1.88-3.58a2.5,2.5,0,0,1,1.7.806l1.432-1.79a3.745,3.745,0,0,0-1.074-.716,5.76,5.76,0,0,0-2.148-.448,5.546,5.546,0,0,0-2.685.806,5.767,5.767,0,0,0-2.238,4.923c0,3.4,1.79,5.459,4.744,5.459a5.184,5.184,0,0,0,2.685-.626,6.528,6.528,0,0,0,.984-.806l-1.342-1.7Zm14.768-7.965-1.611,5.1c-.179.537-.358,1.074-.448,1.432-.09.537-.358,1.7-.358,1.7s-.358-1.521-.626-2.237l-1.88-6.175-2.953.358,2.6,7.518c.09.358.716,1.969,1.074,2.953h.716a8.128,8.128,0,0,1-.626,1.253,3.847,3.847,0,0,1-.806.895,8.289,8.289,0,0,1-1.79.716l.985,1.79a5.411,5.411,0,0,0,2.685-.984c.806-.537,1.342-1.432,2.059-3.491l4.027-10.829Z" transform="translate(-2.942 5.72)"/></g></g><g transform="translate(0 0)"><g class="a"><path class="c" d="M22.521,84.6v4.833a2.245,2.245,0,0,0,.09.9,1.028,1.028,0,0,0,.985.537,1.11,1.11,0,0,0,1.163-.805v-5.28H26.37V89.7a3.717,3.717,0,0,1-.09,1.163,2.423,2.423,0,0,1-2.506,1.342,2.793,2.793,0,0,1-2.417-.984A1.858,1.858,0,0,1,21,89.881V84.868l1.521-.269Z" transform="translate(-3.1 6.959)"/></g></g><g transform="translate(0 0)"><g class="a"><path class="c" d="M29.553,86.6a1.659,1.659,0,0,1,.179.626,1.443,1.443,0,0,1,.627-.358,1.8,1.8,0,0,1,.985-.269,1.31,1.31,0,0,1,1.342.806,1.987,1.987,0,0,1,.09.806v3.938H31.343V88.658c0-.626-.09-.805-.448-.805a1.886,1.886,0,0,0-.985.447v3.759H28.479V88.211a5.282,5.282,0,0,0-.179-1.253Z" transform="translate(-3.867 6.749)"/></g></g><g transform="translate(0 0)"><g class="a"><path class="c" d="M36.49,84.995a.9.9,0,1,1-.9-.895,1.043,1.043,0,0,1,.9.895m-.179,1.342V91.8H34.879v-5.28Z" transform="translate(-4.539 7.011)"/></g></g><g transform="translate(0 0)"><g class="a"><path class="c" d="M38.532,86.7l.806,2.416c.09.358.268.984.358,1.253a5.027,5.027,0,0,1,.358-1.342l.716-2.237h1.521l-2.058,5.37H39.069L37.1,86.879Z" transform="translate(-4.791 6.738)"/></g></g><g transform="translate(0 0)"><g class="a"><path class="c" d="M47.654,91.522a3.049,3.049,0,0,1-2.058.716A2.5,2.5,0,0,1,43,89.464a2.73,2.73,0,0,1,.716-2.148,2.292,2.292,0,0,1,1.7-.716,2.336,2.336,0,0,1,1.611.537,3.037,3.037,0,0,1,.716,2.327v.358H44.521a1.108,1.108,0,0,0,1.163,1.253,2.194,2.194,0,0,0,1.432-.537Zm-1.432-2.685h0a2.246,2.246,0,0,0-.179-.9.813.813,0,0,0-.626-.269c-.537,0-.9.448-.9,1.164h1.7Z" transform="translate(-5.41 6.749)"/></g></g><g transform="translate(0 0)"><g class="a"><path class="c" d="M50.453,86.589a6.167,6.167,0,0,1,.268.716,3.088,3.088,0,0,1,.806-.716.671.671,0,0,1,.447-.089,1.33,1.33,0,0,1,.537.089l-.358,1.253c-.179.089-.268,0-.447,0a1.243,1.243,0,0,0-.9.447v3.759H49.379v-3.58a6.667,6.667,0,0,0-.179-1.611Z" transform="translate(-6.061 6.759)"/></g></g><g transform="translate(0 0)"><g class="a"><path class="c" d="M56.938,88.053a3.007,3.007,0,0,0-1.343-.358c-.447,0-.716.179-.716.537,0,.269.179.447.716.537l.627.179c.716.179.9.358,1.074.626a1.512,1.512,0,0,1,.268.895,2.08,2.08,0,0,1-2.327,1.88A4.481,4.481,0,0,1,53,91.722l.537-.985a3.89,3.89,0,0,0,1.79.627.638.638,0,0,0,.716-.627c0-.358-.269-.537-.895-.626l-.627-.09a2.568,2.568,0,0,1-.984-.537,1.877,1.877,0,0,1-.358-.984c0-1.074.895-1.7,2.148-1.7a3.958,3.958,0,0,1,1.969.537Z" transform="translate(-6.46 6.728)"/></g></g><g transform="translate(0 0)"><g class="a"><path class="c" d="M60.89,84.995a.9.9,0,1,1-.9-.895.959.959,0,0,1,.9.895m-.179,1.342V91.8H59.279v-5.28Z" transform="translate(-7.1 7.011)"/></g></g><g transform="translate(0 0)"><g class="a"><path class="c" d="M64.864,87.506h-.9v2.685c0,.716.09.9.627.9a1.575,1.575,0,0,0,.537-.09l.179.806a3.09,3.09,0,0,1-1.164.269,1.487,1.487,0,0,1-1.522-.806,1.987,1.987,0,0,1-.089-.806V87.6H62v-.985h.537a5.121,5.121,0,0,1,.089-1.253L64.058,85a9.2,9.2,0,0,0-.09,1.611h1.253Z" transform="translate(-7.405 6.917)"/></g></g><g transform="translate(0 0)"><g class="a"><path class="c" d="M67.521,86.7l.985,3.132.269,1.074a7.5,7.5,0,0,1,.179-.9,2.767,2.767,0,0,1,.179-.716l.805-2.506h1.521L69.49,92.249c-.358,1.074-.627,1.521-1.074,1.79a2.2,2.2,0,0,1-1.342.448l-.537-.9a2.68,2.68,0,0,0,.9-.358c.179-.089.269-.269.447-.447s.179-.269.269-.627H67.79c-.179-.537-.448-1.342-.537-1.521L66,86.879Z" transform="translate(-7.825 6.738)"/></g></g><g transform="translate(0 0)"><g class="a"><path class="c" d="M78.085,87.506a2.747,2.747,0,0,1,.626,1.969A2.644,2.644,0,0,1,78,91.533a2.353,2.353,0,0,1-1.79.716,2.789,2.789,0,0,1,0-5.549,2.077,2.077,0,0,1,1.88.805m-2.6.716a3.507,3.507,0,0,0-.179,1.164,4.361,4.361,0,0,0,.179,1.342.8.8,0,0,0,.716.448c.626,0,.9-.537.9-1.79a2.671,2.671,0,0,0-.269-1.432.813.813,0,0,0-.626-.269.681.681,0,0,0-.716.537" transform="translate(-8.633 6.738)"/></g></g><g transform="translate(0 0)"><g class="a"><path class="c" d="M82.406,85.084a.565.565,0,0,0-.626.626v.806h1.432l-.358.984h-.984v4.385H80.437V87.5H79.9v-.984h.537c0-.179-.09-.537-.09-.716a1.581,1.581,0,0,1,1.79-1.7,2.526,2.526,0,0,1,1.342.358l-.448.895c-.358-.179-.447-.268-.627-.268" transform="translate(-9.285 7.011)"/></g></g><g transform="translate(0 0)"><g class="a"><path class="b" d="M106.813,66.29,92.4,66.2l-3.132,8.95s-1.164,2.059,1.521,4.564c2.685,2.416,14.678,10.74,15.215,9.756l3.58-3.849Z" transform="translate(-10.242 8.891)"/></g></g><g class="a"><rect class="b" width="0.179" height="23.091" transform="translate(95.765 75.27)"/></g><g transform="translate(0 0)"><g class="a"><path class="b" d="M107.7,66.4h13.157l-11.546,7.249Z" transform="translate(-12.203 8.87)"/></g></g><g transform="translate(0 0)"><g class="a"><path class="c" d="M106.41,78.472l8.771,5.818,3.311-2.238-8.771-5.817,11.367-7.876-.716-2.058H117.6l-11.1,7.607L95.311,66.3h-2.6L92,68.358l10.919,7.787-8.5,5.907,3.222,2.238Z" transform="translate(-10.555 8.88)"/></g></g><g transform="translate(0 0)"><g class="a"><path class="b" d="M94.2,61.59h8.771l.179-.089.179-.09-.09-.089.09.089a3.569,3.569,0,0,0,.269-.358h0v0h0v0h0v0h0a.392.392,0,0,1,.09.269h0l.089.447h0v.179l.09.09.09-.09c.09-.089.09-.179.179-.447a10.126,10.126,0,0,1,.179-1.074h-.09l.09.09.09-.09.09-.09h0v0h0v-.089l-.09.089h.09v-.089l-.09.089h0v.179h0v2.417h0v.358a.329.329,0,0,0,.09.269l.089.089.179.09h.09c.089,0,.179,0,.179-.09.09-.089.09-.179.09-.358V59.353h0v-.268l.09-.09v0h0v0h0a.392.392,0,0,1,.089.269v4.654h0a.277.277,0,0,0,.09.179.465.465,0,0,0,.358.179v0h.09l.179-.089c.09-.09.09-.179.09-.358h0V58.637h0l.09-.089v-.09h.09l.089.179.09-.089h-.09v5.638h0v.09a.329.329,0,0,0,.09.269.4.4,0,0,0,.358.269v-.537l-.09-.09v-.179h0V58.369h0a.48.48,0,0,0-.358-.269c-.089,0-.179,0-.179.09a.678.678,0,0,0-.179.358h0v5.191h0c0,.179,0,.179-.089.179h0v0h0v0h0c-.09,0-.179,0-.179-.09v-.089h0V58.906a.684.684,0,0,0-.179-.448.277.277,0,0,0-.179-.089h0a.465.465,0,0,0-.358.179.329.329,0,0,0-.09.268v.09h-.179v4.207h-.089V63.2l.089-.089h-.089V63.2l.089-.089h0a.9.9,0,0,1-.089-.269v-.268h0V60.159h0V59.89a.192.192,0,0,0-.179-.179l-.179.089-.179.179h0a6.186,6.186,0,0,0-.179,1.074c0,.179-.089.269-.089.358h0l.089.09v.089h-.089l.089.09v0l.09-.09h-.09v.09l.09-.09h0V61.5l-.09-.448h0c0-.089-.089-.179-.089-.268s-.09-.09-.179-.09a.312.312,0,0,0-.179.09v.089h.089l-.089-.089a3.568,3.568,0,0,1-.269.358h0l-.179.089h-.09v0H94.379l-.179.358Z" transform="translate(-10.786 9.741)"/></g></g><g transform="translate(0 0)"><g class="a"><path class="b" d="M120.709,61.312h-8.771v0h-.268a3.568,3.568,0,0,1-.269-.358l-.09.089h.09v-.089a.224.224,0,0,0-.358,0c0,.089-.09.179-.09.268h0l-.09.448h0v.089h0l.09.09V61.58h-.09l.09.09v0l.09-.09h-.09v.09l.09-.09v-.089a.329.329,0,0,0-.09-.269,10.126,10.126,0,0,0-.179-1.074h0l-.09-.089-.089-.09-.179-.089a.192.192,0,0,0-.179.179v.268h0v2.417h0v.448h0l.089.089v-.089h-.089l.089.089v-.089h-.089V58.985h-.358V58.9a.329.329,0,0,0-.09-.268.465.465,0,0,0-.358-.179h0a.277.277,0,0,0-.179.09.526.526,0,0,0-.179.447v4.654h0v.09a.312.312,0,0,1-.179.089h0v0h0v0h0v0h0a.312.312,0,0,1-.09-.179h0V58.448h0a.277.277,0,0,0-.09-.179l-.09-.179a.312.312,0,0,0-.179-.089c-.179,0-.269.089-.358.268h0v5.639h0v.179l-.09.089v.269c.179,0,.269-.09.358-.269a.442.442,0,0,0,.09-.269h0V58.268h-.09l.09.09.09-.179h.089l.09.089v.09h0v5.191h0c0,.179.09.269.09.358l.179.089h0v0a.465.465,0,0,0,.358-.179.277.277,0,0,0,.09-.179h0V58.9a.392.392,0,0,1,.09-.269h0v0h0v0l.09.09v.268h0v3.938c0,.179,0,.268.089.358a.171.171,0,0,0,.269.09h.089l.179-.09a.538.538,0,0,0,.09-.358V60.237h0v-.179h-.09v.09h0v.089h0v0h0l.09.09h0l.089-.09h-.089a6.187,6.187,0,0,1,.179,1.074c0,.179.09.268.09.358l.09.089.089.09c.09,0,.09-.09.179-.09l.09-.179h0l.089-.447h0a.312.312,0,0,1,.09-.179h0v.089h0v0l-.09.09h.09v-.09l-.09.09h0a3.568,3.568,0,0,0,.269.358h0l.179.089a.892.892,0,0,0,.358.09h8.771v-.358Z" transform="translate(-12.235 9.752)"/></g></g><g transform="translate(0 0)"><g class="a"><path class="c" d="M96.437,58.9a1.007,1.007,0,0,1-.447.358H95.9v5.37l2.864-.895s.179.358.537,0h0l2.775.895v-5.37h0c-.269,0-.537-.358-.537-.358" transform="translate(-10.964 9.657)"/></g></g><g transform="translate(0 0)"><g class="a"><path class="b" d="M96.126,58.6h0l-.269.268.09.269-.09-.269H95.5v6.086l3.312-1.074-.09-.269-.269.179a.312.312,0,0,1,.09.179.678.678,0,0,0,.358.179,1.272,1.272,0,0,0,.537-.179l-.179-.269v.269h0V63.7l-.09.269,3.222.985v-6l-.269-.09h0l-.179-.089-.09-.09h0l-.448.358.179.179a.765.765,0,0,0,.537.268v-.268l-.09.268h.09l.089-.268h-.269v5.012l-2.416-.806H99.08l-.09.09h0l-.089.089.089-.089h0l-.089.089.089-.089-.089-.269-2.685.9V59.137h-.269l.09.269h.09c.358-.09.537-.447.626-.447Z" transform="translate(-10.922 9.689)"/></g></g><g transform="translate(0 0)"><g class="a"><path class="c" d="M96.5,58.755v5.37a2.175,2.175,0,0,0,.895-.537c.984-.9,1.7-.269,1.7-.269V58.844c0-.358-.805-.716-1.432-.268a1.017,1.017,0,0,1-.984.268Z" transform="translate(-11.028 9.713)"/></g></g><g transform="translate(0 0)"><g class="a"><path class="b" d="M96.458,58.716H96.1v5.638h.358A1.134,1.134,0,0,0,97.263,64c.179-.179.269-.269.358-.269l-.269-.179.179.179a1,1,0,0,1,.805-.358c.179,0,.269,0,.358.09l.09.09h0l.09-.09-.09.09h0l.09-.09-.09.09.537.537v-5.28h0a.906.906,0,0,0-.358-.627A1.686,1.686,0,0,0,98.248,58a1.444,1.444,0,0,0-.806.269,1.384,1.384,0,0,1-.537.268h-.09l-.09.179.09-.179h0l-.09.179.09-.179h-.627v.358l.269-.179v.269h.179v-.269l-.09.269a.9.9,0,0,0,.269.09,1.886,1.886,0,0,0,.984-.358.538.538,0,0,1,.358-.09c.179,0,.269.09.448.09l.089.089h0V63.28h.269l.269-.179a1.37,1.37,0,0,0-.9-.358,2.133,2.133,0,0,0-1.253.537h0l-.269.269a.684.684,0,0,1-.448.179V64h.269v-5.37l-.179.09v0Z" transform="translate(-10.985 9.752)"/></g></g><g transform="translate(0 0)"><g class="a"><path class="c" d="M101.727,58.746s-.358.179-.9-.269-1.432,0-1.432.269v4.475s.627-.716,1.611.269a2.175,2.175,0,0,0,.9.537v-5.37Z" transform="translate(-11.332 9.721)"/></g></g><g transform="translate(0 0)"><g class="a"><path class="b" d="M101.685,58.705l-.089-.269.089.179-.089-.179h0l.089.179-.089-.179h-.09a.7.7,0,0,1-.537-.268,1.444,1.444,0,0,0-.806-.269,1.686,1.686,0,0,0-.716.179.644.644,0,0,0-.358.627h0v5.28l.537-.537-.179-.09.09.09h0l-.09-.09.09.09a.685.685,0,0,1,.447-.179,1.455,1.455,0,0,1,.805.358l.179-.179-.268.179a.62.62,0,0,0,.358.269,1.687,1.687,0,0,0,.806.358h.358v-6l-.626.09h0l.089.358.089.269h.179l-.089-.269H101.6v5.37h.269v-.269a.684.684,0,0,1-.448-.179l-.179-.179h-.09a1.687,1.687,0,0,0-1.253-.537,1.188,1.188,0,0,0-.9.358l.269.179h.268V58.974h0a.312.312,0,0,1,.179-.09.538.538,0,0,1,.358-.09c.179,0,.268,0,.358.09h0a1.666,1.666,0,0,0,.984.358c.179,0,.269,0,.269-.09v-.448l.089.269Z" transform="translate(-11.29 9.762)"/></g></g><g transform="translate(0 0)"><g class="a"><path class="c" d="M113.837,58.8a1.007,1.007,0,0,1-.448.358H113.3v5.37l2.864-.895s.179.358.537,0h0l2.774.895v-5.37h0c-.269,0-.537-.358-.537-.358" transform="translate(-12.792 9.668)"/></g></g><g transform="translate(0 0)"><g class="a"><path class="b" d="M113.626,58.6h0s-.179.179-.269.179l.09.268-.09-.268h-.089l-.269.089v6.086l3.311-1.074-.09-.269-.269.179a.312.312,0,0,1,.09.179.684.684,0,0,0,.448.179,1.272,1.272,0,0,0,.537-.179l-.179-.269v.269h0V63.7l-.09.269,3.222.985V58.868l-.269-.089h0l-.179-.09-.09-.089h0l-.448.358.179.179a.765.765,0,0,0,.537.268v-.268l-.089.268h0l.089-.268h-.447v5.012l-2.416-.806h-.179l-.09.089-.09.09h0l-.089.089h.089l-.089.09h.089l-.089-.179-2.685.895V59.405h-.358l.09.269h.09c.358-.09.537-.448.626-.448Z" transform="translate(-12.76 9.689)"/></g></g><g transform="translate(0 0)"><g class="a"><path class="c" d="M113.9,58.654v5.37a2.175,2.175,0,0,0,.9-.537c.984-.9,1.7-.269,1.7-.269V58.744c0-.358-.806-.716-1.432-.269-.537.448-.9.269-.9.269Z" transform="translate(-12.854 9.724)"/></g></g><g transform="translate(0 0)"><g class="a"><path class="b" d="M113.858,58.616H113.5v5.639h.358a1.134,1.134,0,0,0,.805-.358c.179-.179.269-.269.358-.269l-.268-.179.179.179a1,1,0,0,1,.806-.358c.179,0,.268,0,.358.089l.089.09h0l.089-.09-.089.09h0l.089-.09-.089.09.537.537V58.705h0a.906.906,0,0,0-.358-.626,1.686,1.686,0,0,0-.716-.179,1.444,1.444,0,0,0-.806.268,1.384,1.384,0,0,1-.537.269h-.09l-.089.179.089-.179h0l-.089.179.089-.179h-.626v.358l.269-.179v.269h.179v-.269l-.09.269a.9.9,0,0,0,.269.089,1.886,1.886,0,0,0,.984-.358.538.538,0,0,1,.358-.089c.179,0,.268.089.447.089l.09.09h-.179V63.18h.358l.179-.179a1.37,1.37,0,0,0-.9-.358,2.133,2.133,0,0,0-1.253.537h0s-.179.179-.268.179a.684.684,0,0,1-.448.179v.269h.269v-5.37h0v.179Z" transform="translate(-12.813 9.762)"/></g></g><g transform="translate(0 0)"><g class="a"><path class="c" d="M119.227,58.646s-.358.179-.9-.268-1.432,0-1.432.268v4.475s.627-.716,1.7.268a2.175,2.175,0,0,0,.895.537v-5.37Z" transform="translate(-13.169 9.732)"/></g></g><g transform="translate(0 0)"><g class="a"><path class="b" d="M119.185,58.605l-.09-.268.09.179-.09-.179h0l.09.179-.09-.179h-.09a.7.7,0,0,1-.537-.269,1.444,1.444,0,0,0-.806-.268,1.686,1.686,0,0,0-.716.179.644.644,0,0,0-.358.626h0v5.281l.537-.537-.09-.09.09.09h0l-.09-.09.09.09a.685.685,0,0,1,.447-.179,1.455,1.455,0,0,1,.806.358l.179-.179-.269.179a.668.668,0,0,0,.269.269,1.687,1.687,0,0,0,.805.358h.358v-6l-.626.09h0l.09.358.09.269h.179l-.09-.269H119.1v5.37h.269v-.269a.684.684,0,0,1-.447-.179l-.179-.179-.09-.089h0a1.687,1.687,0,0,0-1.253-.537,1.188,1.188,0,0,0-.9.358l.269.179h.269V58.785h0a.312.312,0,0,1,.179-.089.538.538,0,0,1,.358-.09c.179,0,.269,0,.358.09h0a1.659,1.659,0,0,0,.9.358c.179,0,.269,0,.269-.089l.089-.358.09.269Z" transform="translate(-13.127 9.773)"/></g></g><g transform="translate(0 0)"><g class="a"><path class="c" d="M96.437,58.9a1.007,1.007,0,0,1-.447.358H95.9v5.37l2.864-.895s.179.358.537,0h0l2.775.895v-5.37h0c-.269,0-.537-.358-.537-.358" transform="translate(-10.964 9.657)"/></g></g><g transform="translate(0 0)"><g class="a"><path class="b" d="M96.337,58.769l-.09.179c-.09.089-.179.179-.269.179v0H95.8v5.549l2.954-.984V63.6h-.09a.388.388,0,0,0,.358.179c.09,0,.179,0,.358-.179v0h0l2.864.9V58.948h-.09a.679.679,0,0,1-.358-.179l-.179-.179-.09.09a.916.916,0,0,0,.626.358v0h.09v-.09h-.09v5.28l-2.685-.895h-.09a.329.329,0,0,1-.269.09l-.179-.09h0v-.09l-2.864.9V58.858h.089a1.007,1.007,0,0,0,.448-.358Z" transform="translate(-10.954 9.699)"/></g></g><g transform="translate(0 0)"><g class="a"><path class="c" d="M96.5,58.755v5.37a2.175,2.175,0,0,0,.895-.537c.984-.9,1.7-.269,1.7-.269V58.844c0-.358-.805-.716-1.432-.268a1.017,1.017,0,0,1-.984.268Z" transform="translate(-11.028 9.713)"/></g></g><g transform="translate(0 0)"><g class="a"><path class="b" d="M96.49,58.726H96.4v5.459h.179a2.112,2.112,0,0,0,.985-.537l-.09-.089.09.089a1.36,1.36,0,0,1,.895-.447,3.876,3.876,0,0,1,.448.089l.09.09h0l.179.179V58.726h0a.761.761,0,0,0-.269-.448,1.294,1.294,0,0,0-.626-.179,1.659,1.659,0,0,0-.627.179.9.9,0,0,1-.716.269H96.4v.179h.09v.089h.179v-.089l-.09.089h.269a1.455,1.455,0,0,0,.805-.358.895.895,0,0,1,1.074,0c.09.09.179.179.179.269h0V63.2H99l.089-.089a1.072,1.072,0,0,0-.716-.269,1.365,1.365,0,0,0-1.074.537h0l-.089.09a2.478,2.478,0,0,1-.716.447v.09h.09v-5.37l-.089.09v0Z" transform="translate(-11.017 9.741)"/></g></g><g transform="translate(0 0)"><g class="a"><path class="c" d="M101.727,58.746s-.358.179-.9-.269-1.432,0-1.432.269v4.475s.627-.716,1.611.269a2.175,2.175,0,0,0,.9.537v-5.37Z" transform="translate(-11.332 9.721)"/></g></g><g transform="translate(0 0)"><g class="a"><path class="b" d="M101.716,58.737l-.09-.09.09.09-.09-.09h0l.09.09-.09-.09h-.179a.744.744,0,0,1-.626-.268.852.852,0,0,0-.626-.179,1.293,1.293,0,0,0-.626.179.492.492,0,0,0-.269.447V63.66l.179-.179h0a1.135,1.135,0,0,1,.537-.179,1.209,1.209,0,0,1,.9.448l.09-.09-.09.09a1.527,1.527,0,0,0,.984.537h.09V58.648l-.358.089h.09v.089h.089v5.191h.09v-.089a.638.638,0,0,1-.537-.269l-.179-.179-.09-.09h0a1.97,1.97,0,0,0-1.074-.537,1.072,1.072,0,0,0-.716.269l.089.089h.09V58.737h0c0-.09.09-.179.179-.269a.96.96,0,0,1,.537-.179,1.272,1.272,0,0,1,.537.179,1.455,1.455,0,0,0,.805.358h.269l-.089-.09v0Z" transform="translate(-11.322 9.731)"/></g></g><g class="a"><rect class="b" width="0.09" height="4.475" transform="translate(87.979 68.557)"/></g><g transform="translate(0 0)"><g class="a"><path class="b" d="M95.7,65.137l.179.179.626-.537-.179-.179Z" transform="translate(-10.943 9.059)"/></g></g><g transform="translate(0 0)"><g class="a"><path class="b" d="M102.1,64.779l.537.537.179-.179-.537-.537Z" transform="translate(-11.615 9.059)"/></g></g><g transform="translate(0 0)"><g class="a"><path class="c" d="M99.269,63.9a.668.668,0,0,0-.269.268" transform="translate(-11.29 9.132)"/></g></g><g transform="translate(0 0)"><g class="a"><path class="b" d="M99.269,63.8a.334.334,0,0,0-.269.358l.269.09h0l.179-.179Z" transform="translate(-11.29 9.143)"/></g></g><g transform="translate(0 0)"><g class="a"><path class="c" d="M99.668,64.168s-.09-.268-.269-.268" transform="translate(-11.332 9.132)"/></g></g><g transform="translate(0 0)"><g class="a"><path class="b" d="M99.747,64.158a.611.611,0,0,0-.358-.358l-.089.179.179.09.09.09h.179Z" transform="translate(-11.322 9.143)"/></g></g><g transform="translate(0 0)"><g class="a"><path class="c" d="M113.837,58.8a1.007,1.007,0,0,1-.448.358H113.3v5.37l2.864-.895s.179.358.537,0h0l2.774.895v-5.37h0c-.269,0-.537-.358-.537-.358" transform="translate(-12.792 9.668)"/></g></g><g transform="translate(0 0)"><g class="a"><path class="b" d="M113.837,58.768l-.09.089c-.089.09-.179.179-.269.179v0H113.3v5.549l2.953-.895V63.6h-.09a.388.388,0,0,0,.358.179c.09,0,.179,0,.358-.179v0h0l2.864.9V58.947h-.09c-.089,0-.179-.09-.358-.179l-.179-.179-.09.089a.916.916,0,0,0,.626.358v0h0v-.089h-.089v5.281l-2.685-.9h-.089a.329.329,0,0,1-.269.089l-.179-.089v-.09h0l-2.864.9V58.858h.09a1.007,1.007,0,0,0,.447-.358Z" transform="translate(-12.792 9.699)"/></g></g><g transform="translate(0 0)"><g class="a"><path class="c" d="M113.9,58.654v5.37a2.175,2.175,0,0,0,.9-.537c.984-.9,1.7-.269,1.7-.269V58.744c0-.358-.806-.716-1.432-.269-.537.448-.9.269-.9.269Z" transform="translate(-12.854 9.724)"/></g></g><g transform="translate(0 0)"><g class="a"><path class="b" d="M113.879,58.626h-.09v5.459h.179a2.112,2.112,0,0,0,.984-.537l-.09-.09.09.09a1.36,1.36,0,0,1,.9-.448c.179,0,.269.09.447.09l.09.089h0l.179.179V58.626a.6.6,0,0,0-.358-.447,1.294,1.294,0,0,0-.627-.179,1.659,1.659,0,0,0-.626.179.9.9,0,0,1-.716.268H113.7v.179h.179v.09h.179v-.09l-.09.09h.269a1.455,1.455,0,0,0,.806-.358.895.895,0,0,1,1.074,0c.089.089.179.179.179.268h0V63.1h.09l.09-.09a1.072,1.072,0,0,0-.716-.268,1.365,1.365,0,0,0-1.074.537h0l-.09.089a2.478,2.478,0,0,1-.716.448v.09h.09v-5.37h-.089v.089Z" transform="translate(-12.833 9.752)"/></g></g><g transform="translate(0 0)"><g class="a"><path class="c" d="M119.227,58.646s-.358.179-.9-.268-1.432,0-1.432.268v4.475s.627-.716,1.7.268a2.175,2.175,0,0,0,.895.537v-5.37Z" transform="translate(-13.169 9.732)"/></g></g><g transform="translate(0 0)"><g class="a"><path class="b" d="M119.216,58.637l-.09-.09.09.09-.09-.09h0l.09.09-.09-.09h-.179a.744.744,0,0,1-.626-.269.852.852,0,0,0-.626-.179,1.294,1.294,0,0,0-.626.179.492.492,0,0,0-.269.448V63.56l.179-.179h0a1.135,1.135,0,0,1,.537-.179,1.209,1.209,0,0,1,.895.447l.09-.09-.09.09a1.527,1.527,0,0,0,.984.537h.179V58.548l-.358.09h0v.09h.09v5.191h.089v-.09a1.021,1.021,0,0,1-.537-.269l-.179-.179-.089-.089h0a1.97,1.97,0,0,0-1.074-.537,1.072,1.072,0,0,0-.716.269l.089.09h.09V58.637h0c0-.089.09-.179.179-.268a.96.96,0,0,1,.537-.179,1.272,1.272,0,0,1,.537.179,1.455,1.455,0,0,0,.805.358h.269l-.09-.09v0Z" transform="translate(-13.159 9.741)"/></g></g><g transform="translate(0 0)"><g class="d"><rect class="b" width="0.09" height="4.475" transform="translate(103.641 68.467)"/></g></g><g transform="translate(0 0)"><g class="a"><path class="b" d="M113.2,65.047l.179.179.537-.537-.179-.089Z" transform="translate(-12.781 9.059)"/></g></g><g transform="translate(0 0)"><g class="a"><path class="b" d="M119.6,64.689l.537.537.179-.179-.537-.447Z" transform="translate(-13.453 9.059)"/></g></g><g transform="translate(0 0)"><g class="a"><path class="c" d="M116.769,63.9a.668.668,0,0,0-.269.269" transform="translate(-13.127 9.132)"/></g></g><g transform="translate(0 0)"><g class="a"><path class="b" d="M116.658,63.7c-.269.089-.269.358-.358.358l.269.09h0l.179-.179Z" transform="translate(-13.106 9.153)"/></g></g><g transform="translate(0 0)"><g class="a"><path class="c" d="M117.168,64.168s-.09-.268-.269-.268" transform="translate(-13.169 9.132)"/></g></g><g transform="translate(0 0)"><g class="a"><path class="b" d="M117.247,64.058a.611.611,0,0,0-.358-.358l-.089.179.089.089.09.09h.269Z" transform="translate(-13.159 9.153)"/></g></g><g transform="translate(0 0)"><g class="a"><path class="c" d="M93.433,75.143c-.179.089-.716.358-.806-.358-.269-1.432-1.432-.627-1.7-.179a.8.8,0,0,1-.626.448s.358.09.358.626.626,1.79,1.611.537c.448-.626.895.179.984.358v.179c0,.179.09,1.164-.626.984-1.521-.269-1.074.984-.716,1.432a.644.644,0,0,1,0,.626,1.24,1.24,0,0,1,.895,0c.537.179,1.969.09,1.074-1.074-.447-.626.269-.716.448-.805h.09c.179,0,1.074.089.716.716-.716,1.253.626,1.342,1.163,1.163s.716.09.716.09-.179-.269.179-.716.626-1.79-.806-1.432c-.716.179-.626-.716-.626-.895s.448-.9.895-.358c.984,1.163,1.521-.179,1.521-.806,0-.537.358-.626.358-.626a.6.6,0,0,1-.626-.358c-.269-.448-1.521-1.164-1.611.269-.089.716-.805.448-.984.358s-.895-.806-.179-1.074c1.432-.537.447-1.432-.09-1.611s-.537-.537-.537-.537,0,.358-.537.448-1.7.984-.269,1.611c.627.269,0,.806-.268.985Z" transform="translate(-10.377 8.271)"/></g></g><g transform="translate(0 0)"><g class="a"><path class="b" d="M93.38,75.1l-.179-.269-.269.09h0a.392.392,0,0,1-.09-.269,1.686,1.686,0,0,0-.358-.806.967.967,0,0,0-.626-.269,2.844,2.844,0,0,0-.806.269,2.373,2.373,0,0,0-.447.537c-.09.179-.179.179-.179.269h-.09v0h0v0c-.179,0-.358.09-.358.269s.09.358.269.358V75.1l-.089.179h0V75.1l-.09.179.09.09a.392.392,0,0,1,.089.269h0a1.444,1.444,0,0,0,.269.806c.089.089.179.269.358.358a.96.96,0,0,0,.537.179,1.356,1.356,0,0,0,.984-.626l.09-.09h0c.09,0,.09.09.179.179s.089.179.179.269l.269-.179-.269.09v.358a.538.538,0,0,1-.09.358l-.089.09h-.627a1.016,1.016,0,0,0-.716.269.967.967,0,0,0-.269.626,1.919,1.919,0,0,0,.358,1.074l.09.179v.09h0l.179.089-.089-.089h0l.179.089-.09-.089a.272.272,0,0,0,0,.358.538.538,0,0,0,.358.089l-.089-.089.089.089h0l-.089-.089.089.089a.926.926,0,0,1,.358-.089.677.677,0,0,1,.358.089,1.327,1.327,0,0,0,.627.09,1.076,1.076,0,0,0,.716-.179l.269-.269a.671.671,0,0,0,.089-.447A1.093,1.093,0,0,0,94.1,78.5a.277.277,0,0,1-.09-.179h0l.179-.089.179-.09-.09-.269v.269h.09v-.269l.09.269a.973.973,0,0,1,.447.09l.09.089h0a.277.277,0,0,1-.09.179,1.444,1.444,0,0,0-.269.806.709.709,0,0,0,.448.716,2.767,2.767,0,0,0,.716.179,1.327,1.327,0,0,0,.626-.09.329.329,0,0,1,.269-.09h.09l.09-.089v.089h0l.089-.089-.089.089c.089.09.089.09.179.09a.329.329,0,0,0,.269-.09c.09-.089.09-.089.09-.179a.329.329,0,0,0-.09-.269l-.089.089.179-.089h0l-.09.089.179-.089h0v-.09c0-.09,0-.179.179-.269a1.877,1.877,0,0,0,.358-.984.967.967,0,0,0-.269-.627,2,2,0,0,0-.895-.269,1.135,1.135,0,0,0-.537.09h-.179V76.8h0l.089-.179.09-.09h0l.09.09a1.237,1.237,0,0,0,.984.537.96.96,0,0,0,.537-.179,1.605,1.605,0,0,0,.447-.626,2.277,2.277,0,0,0,.179-.626h0a.392.392,0,0,1,.09-.269h0l-.09-.179.09.179h0l-.09-.179.09.179c.179-.089.269-.179.179-.358s-.179-.269-.358-.179l.09.179v-.179h0l.09.179v-.179h0s-.09,0-.269-.269a.917.917,0,0,0-.537-.448,1.016,1.016,0,0,0-.716-.269.812.812,0,0,0-.626.269,1.094,1.094,0,0,0-.269.806.312.312,0,0,1-.09.179h-.09a2.03,2.03,0,0,1-.358-.089v0h0v0l-.179-.179a.442.442,0,0,1-.09-.269h0l.09-.09a1.949,1.949,0,0,0,.716-.448.774.774,0,0,0,.269-.537,1.134,1.134,0,0,0-.358-.806,1.949,1.949,0,0,0-.716-.448,1.108,1.108,0,0,1-.269-.179v-.09h-.537s0,.09-.358.179a1.8,1.8,0,0,0-.716.358.94.94,0,0,0-.448.805,1.272,1.272,0,0,0,.179.537,3.789,3.789,0,0,0,.627.448.088.088,0,0,1,.089.089h0v.09c0,.09-.179.269-.269.358l-.09.09-.089.09H93.38l-.179-.269.179.269.269.179.09-.09L93.38,75.1l.269.179a.668.668,0,0,0,.269-.269.765.765,0,0,0,.269-.537.679.679,0,0,0-.179-.358,1.236,1.236,0,0,0-.358-.269,1.956,1.956,0,0,1-.448-.269c-.09-.09-.09-.09-.09-.179s.09-.179.269-.358a1.956,1.956,0,0,0,.448-.269,2.624,2.624,0,0,0,.716-.358c.09-.179.179-.269.179-.358,0-.179-.09-.269-.269-.358-.179,0-.358.089-.358.269h0a.677.677,0,0,0,.09.358,1.142,1.142,0,0,0,.626.447c.09,0,.269.179.448.269a.357.357,0,0,1,.179.358l-.09.179a.957.957,0,0,1-.448.269,1.236,1.236,0,0,0-.358.269.679.679,0,0,0-.179.358.812.812,0,0,0,.269.627c.09.089.09.179.179.179l.179.179a1.157,1.157,0,0,0,.716.179.658.658,0,0,0,.537-.179.774.774,0,0,0,.269-.537.757.757,0,0,1,.179-.537c.09-.09.09-.09.179-.09a.679.679,0,0,1,.358.179,1.235,1.235,0,0,1,.358.269,1.253,1.253,0,0,0,.806.537h.179l.179-.179v-.269l-.179-.179H98.3a1.288,1.288,0,0,0-.269.179,1.334,1.334,0,0,0-.269.716v.09h0a1.659,1.659,0,0,1-.179.626c-.09.09-.09.179-.179.269l-.179.089c-.09,0-.269-.089-.448-.358a.906.906,0,0,0-.626-.358c-.179,0-.269.09-.358.09-.179.09-.269.179-.269.358a.538.538,0,0,0-.089.358v.358a1.135,1.135,0,0,0,.089.537c.09.089.09.179.269.269a.538.538,0,0,0,.358.089h.269c.179,0,.269-.089.358-.089a.316.316,0,0,1,.358.358,1.294,1.294,0,0,1-.179.626,1.19,1.19,0,0,0-.269.626,1.821,1.821,0,0,0,.09.448c.089.09.089.09.179.09a.329.329,0,0,0,.269-.09c.09-.09.09-.09.09-.179a.329.329,0,0,0-.09-.269c0-.09-.269-.269-.626-.269a.807.807,0,0,0-.448.09h0c-.089,0-.269.09-.358.09a.671.671,0,0,1-.448-.09c-.09-.09-.09-.09-.09-.179a.884.884,0,0,1,.179-.537.807.807,0,0,0,.089-.448.684.684,0,0,0-.179-.448c-.179-.179-.358-.179-.537-.269-.179,0-.269-.09-.358-.09h-.179a1.512,1.512,0,0,0-.448.179c-.09,0-.179.09-.269.179a.679.679,0,0,0-.179.358,1.272,1.272,0,0,0,.179.537.884.884,0,0,1,.179.537v.09a.312.312,0,0,1-.179.09H93.2a.671.671,0,0,1-.448-.09,1.135,1.135,0,0,0-.537-.09,3.175,3.175,0,0,0-.626.09l.179.269.269.179a3.763,3.763,0,0,0,.179-.448.493.493,0,0,0-.179-.448h0a2.139,2.139,0,0,1-.269-.805c0-.09,0-.179.09-.179a.523.523,0,0,1,.358-.09h.447a.671.671,0,0,0,.448-.089.894.894,0,0,0,.358-.448.973.973,0,0,0,.09-.448v-.537l-.09-.09c0-.09-.09-.179-.269-.358-.09-.09-.179-.179-.269-.179a.538.538,0,0,0-.358-.089.906.906,0,0,0-.626.358c-.269.358-.448.358-.537.358l-.179-.09a1.236,1.236,0,0,1-.269-.358.677.677,0,0,1-.089-.358h0a1.334,1.334,0,0,0-.269-.716c-.179-.179-.269-.179-.358-.179h-.269c-.089,0-.089.09-.179.179v.269l.179.179h.09a.538.538,0,0,0,.358-.09c.179-.09.269-.269.448-.448.089-.09.179-.269.358-.358s.269-.179.358-.179l.179.09a.757.757,0,0,1,.179.537.541.541,0,0,0,.269.537c.09.179.358.179.448.179a.757.757,0,0,0,.537-.179l.09-.09Z" transform="translate(-10.324 8.313)"/></g></g><g transform="translate(0 0)"><g class="a"><path class="c" d="M106.632,84.243c-.179.09-.716.358-.806-.358-.269-1.432-1.432-.626-1.7-.179a.8.8,0,0,1-.626.447s.358.09.358.627.626,1.79,1.611.537c.448-.626.9.179.984.358v.179c.09.179.09,1.163-.626.984-1.521-.269-1.074.984-.716,1.432a.644.644,0,0,1,0,.626,1.24,1.24,0,0,1,.9,0c.537.179,1.969.09,1.074-1.074-.448-.626.269-.716.447-.806h.09c.179,0,1.074.09.716.716-.716,1.253.626,1.342,1.164,1.164s.716.09.716.09-.179-.269.179-.716.626-1.79-.806-1.432c-.716.179-.626-.716-.626-.9s.358-.895.9-.358c.984,1.164,1.521-.179,1.521-.805,0-.537.358-.626.358-.626a.6.6,0,0,1-.626-.358c-.269-.448-1.521-1.164-1.611.269-.09.716-.806.448-.985.358s-.895-.806-.179-1.074c1.432-.537.448-1.432-.09-1.611s-.537-.537-.537-.537,0,.358-.537.448-1.7.984-.269,1.611c.626.358-.09.806-.269.984Z" transform="translate(-11.762 7.316)"/></g></g><g transform="translate(0 0)"><g class="a"><path class="b" d="M106.6,84.2l-.179-.269-.269.09h0a.392.392,0,0,1-.09-.269h0a1.686,1.686,0,0,0-.358-.806.967.967,0,0,0-.626-.269,2.844,2.844,0,0,0-.806.269,2.373,2.373,0,0,0-.447.537c-.09.179-.179.179-.179.269h-.09v0h0v0c-.179,0-.358.089-.358.269s.09.358.269.358V84.2l-.09.179h0V84.2l-.09.179.09.09a.392.392,0,0,1,.09.269,1.444,1.444,0,0,0,.269.805c.09.09.179.269.358.358a1.272,1.272,0,0,0,.537.179,1.356,1.356,0,0,0,.985-.626l.089-.09h0l.179.179c.09.09.179.179.179.269l.269-.179-.269.09v.358a.538.538,0,0,1-.089.358l-.09.09h-.626a1.016,1.016,0,0,0-.716.269.967.967,0,0,0-.269.626,1.919,1.919,0,0,0,.358,1.074l.269-.179-.269.179v.268h0l.179.09-.09-.09h0l.179.09-.09-.09a.272.272,0,0,0,0,.358.538.538,0,0,0,.358.09l-.09-.09.09.09h0l-.09-.09.09.09a.523.523,0,0,1,.358-.09.677.677,0,0,1,.358.09,1.327,1.327,0,0,0,.626.09,1.076,1.076,0,0,0,.716-.179l.269-.269a.671.671,0,0,0,.09-.448,1.093,1.093,0,0,0-.358-.805.277.277,0,0,1-.09-.179h0l.179-.09.179-.089-.09-.269v.269h.09v-.269l-.09.269a.973.973,0,0,1,.448.089l.09.09h0a.277.277,0,0,1-.09.179,1.444,1.444,0,0,0-.269.805.709.709,0,0,0,.448.716,2.767,2.767,0,0,0,.716.179,1.327,1.327,0,0,0,.626-.09c.09,0,.179-.09.269-.09h.09l.09-.09-.09.09h0l.09-.09-.09.09c.09.09.09.09.179.09a.329.329,0,0,0,.269-.09c.089-.09.089-.09.089-.179a.329.329,0,0,0-.089-.269l-.09.089.179-.089h0l-.089.089.179-.089h0v-.09c0-.09,0-.179.179-.269a1.877,1.877,0,0,0,.358-.985.967.967,0,0,0-.269-.626,1.016,1.016,0,0,0-.716-.269,1.135,1.135,0,0,0-.537.09H109.2l-.089-.09V85.9h0l.089-.179.09-.09h0l.09.09a1.237,1.237,0,0,0,.984.537.96.96,0,0,0,.537-.179,1.605,1.605,0,0,0,.447-.626,2.277,2.277,0,0,0,.179-.627h0a.392.392,0,0,1,.09-.269h0l-.09-.179.09.179h0l-.09-.179.09.179c.179-.089.269-.179.179-.358s-.269-.269-.358-.179v0h0v0h0s-.089,0-.269-.269a.917.917,0,0,0-.537-.448,1.016,1.016,0,0,0-.716-.269.812.812,0,0,0-.627.269,1.094,1.094,0,0,0-.269.806c0,.179-.09.179-.09.179h-.089a2.03,2.03,0,0,1-.358-.09v0h0v0l-.179-.179a.442.442,0,0,1-.09-.269h0l.09-.09a1.949,1.949,0,0,0,.716-.448.774.774,0,0,0,.269-.537,1.134,1.134,0,0,0-.358-.806,1.949,1.949,0,0,0-.716-.448c-.179-.09-.269-.09-.269-.179v-.09h-.627s0,.09-.358.179a1.8,1.8,0,0,0-.716.358.94.94,0,0,0-.447.806,1.272,1.272,0,0,0,.179.537,3.789,3.789,0,0,0,.626.447.088.088,0,0,1,.09.09h0v.09c-.09.09-.179.269-.269.358l-.09.09-.09.089h.358l-.179-.269.179.269.269.179.09-.09-.358-.09.269.179q.134,0,.269-.269a.765.765,0,0,0,.269-.537c0-.09-.089-.269-.089-.358a1.236,1.236,0,0,0-.358-.269,1.956,1.956,0,0,1-.448-.269c-.09-.09-.09-.09-.09-.179s.09-.179.269-.358a1.956,1.956,0,0,0,.448-.269,2.624,2.624,0,0,0,.716-.358c.09-.179.179-.269.179-.358,0-.179-.09-.269-.269-.358-.179,0-.358.09-.358.269h0a.677.677,0,0,0,.09.358.886.886,0,0,0,.626.448c.09,0,.269.179.448.269a.357.357,0,0,1,.179.358l-.09.179a.957.957,0,0,1-.448.269,1.235,1.235,0,0,0-.358.269.679.679,0,0,0-.179.358.812.812,0,0,0,.269.626l.179.179.179.179h0a1.157,1.157,0,0,0,.716.179.658.658,0,0,0,.537-.179.774.774,0,0,0,.269-.537.757.757,0,0,1,.179-.537c.09-.089.09-.089.179-.089a.679.679,0,0,1,.358.179,1.235,1.235,0,0,1,.358.269h0a.976.976,0,0,0,.806.537h.179a.192.192,0,0,0,.179-.179c0-.089.09-.179,0-.269a.192.192,0,0,0-.179-.179h-.269a1.288,1.288,0,0,0-.269.179.881.881,0,0,0-.269.716v.09h0a1.659,1.659,0,0,1-.179.626c-.09.09-.09.179-.179.179l-.179.089c-.09,0-.269-.089-.448-.358a.906.906,0,0,0-.626-.358c-.179,0-.269.09-.358.09a.48.48,0,0,0-.269.358c-.089.09-.089.269-.179.358h0v.358a1.135,1.135,0,0,0,.09.537c.089.089.089.179.269.269a.538.538,0,0,0,.358.09h.269c.179,0,.269-.09.358-.09a.316.316,0,0,1,.358.358,1.294,1.294,0,0,1-.179.626,1.19,1.19,0,0,0-.269.626,1.821,1.821,0,0,0,.09.448c.09.09.09.09.179.09a.329.329,0,0,0,.269-.09c.089-.09.089-.09.089-.179a.329.329,0,0,0-.089-.269.988.988,0,0,0-.627-.269.807.807,0,0,0-.447.09c-.09,0-.269.09-.358.09a.671.671,0,0,1-.448-.09c-.09-.09-.09-.09-.09-.179a.884.884,0,0,1,.179-.537c.09-.179.179-.269.179-.448a.684.684,0,0,0-.179-.448c-.179-.179-.358-.179-.537-.269-.179,0-.269-.09-.358-.09h-.179a1.512,1.512,0,0,0-.448.179c-.09,0-.179.09-.269.179a.679.679,0,0,0-.179.358,1.272,1.272,0,0,0,.179.537.9.9,0,0,1,.179.448v.089a.312.312,0,0,1-.179.09h-.358a.671.671,0,0,1-.448-.09,1.135,1.135,0,0,0-.537-.089,3.176,3.176,0,0,0-.627.089l.179.269.269.179a1.086,1.086,0,0,0,.09-.448.807.807,0,0,0-.09-.447h0a2.139,2.139,0,0,1-.269-.806c0-.09,0-.179.09-.179a.523.523,0,0,1,.358-.089h.537a3.876,3.876,0,0,0,.448-.09.894.894,0,0,0,.358-.448.973.973,0,0,0,.09-.448v-.626c0-.09-.09-.179-.269-.358-.089-.089-.179-.179-.269-.179a.538.538,0,0,0-.358-.09.906.906,0,0,0-.626.358c-.269.358-.448.358-.537.358l-.179-.09a1.236,1.236,0,0,1-.269-.358.677.677,0,0,1-.09-.358h0a.881.881,0,0,0-.269-.716c-.179-.179-.269-.179-.358-.179h-.269c-.09,0-.09.09-.179.179v.269l.179.179h.09a.538.538,0,0,0,.358-.09c.179-.09.269-.269.447-.447.09-.09.179-.269.358-.358s.269-.179.358-.179l.179.09c.089.09.179.179.179.537a.541.541,0,0,0,.269.537.579.579,0,0,0,.448.179.757.757,0,0,0,.537-.179l.089-.09Z" transform="translate(-11.731 7.358)"/></g></g><g transform="translate(0 0)"><g class="a"><path class="c" d="M119.533,75.543c-.179.09-.716.358-.806-.358-.269-1.432-1.432-.627-1.7-.179a.8.8,0,0,1-.626.448s.358.089.358.626.626,1.79,1.521.537c.448-.626.9.179.985.358v.179c.089.179.089,1.164-.627.984-1.521-.269-.984.984-.716,1.432a.644.644,0,0,1,0,.626,1.24,1.24,0,0,1,.9,0c.537.179,1.969.179,1.074-1.074-.448-.626.269-.716.448-.805h.089c.179,0,1.074.089.716.716-.716,1.253.626,1.342,1.164,1.163s.716.09.716.09-.179-.269.179-.716.626-1.79-.805-1.432c-.716.179-.627-.716-.627-.895s.448-.9.9-.358c.984,1.163,1.521-.179,1.521-.806,0-.537.358-.626.358-.626a.6.6,0,0,1-.626-.358c-.269-.448-1.521-1.164-1.611.269-.09.716-.806.448-.984.358s-.9-.806-.179-1.074c1.432-.537.448-1.432-.09-1.611s-.537-.537-.537-.537,0,.358-.537.448-1.7.984-.269,1.611c.626.269,0,.716-.179.984Z" transform="translate(-13.117 8.229)"/></g></g><g transform="translate(0 0)"><g class="a"><path class="b" d="M119.48,75.5l-.179-.269-.179.09h0a.392.392,0,0,1-.09-.269,1.687,1.687,0,0,0-.358-.806.967.967,0,0,0-.626-.269,1.444,1.444,0,0,0-.806.269,2.373,2.373,0,0,0-.448.537c-.089.179-.179.179-.179.269h-.09v0h0v0c-.179,0-.358.09-.358.269s.09.358.269.358V75.5l-.09.179h0V75.5l-.089.179h0a.523.523,0,0,1,.089.358,1.444,1.444,0,0,0,.269.806c.089.089.179.269.358.358a.96.96,0,0,0,.537.179,1.356,1.356,0,0,0,.984-.626h0l.09-.09h0c.09,0,.09.09.179.179s.089.179.179.269l.269-.179-.269.09v.358a.538.538,0,0,1-.09.358l-.089.09h-.627a1.016,1.016,0,0,0-.716.269.967.967,0,0,0-.269.626,1.919,1.919,0,0,0,.358,1.074l.09.179v.09h.179l-.09-.089h0l.09.089-.09-.089a.272.272,0,0,0,0,.358.538.538,0,0,0,.358.089l-.09-.089v.089h0l-.09-.089v.089a.523.523,0,0,1,.358-.089.677.677,0,0,1,.358.089h0a1.327,1.327,0,0,0,.626.09,1.076,1.076,0,0,0,.716-.179l.269-.269a.671.671,0,0,0,.089-.447,1.093,1.093,0,0,0-.358-.806.277.277,0,0,1-.089-.179h0l.179-.09.179-.09-.09-.269v.269h.09v0a.973.973,0,0,1,.447.09l.09.09h0a.277.277,0,0,1-.09.179,1.444,1.444,0,0,0-.269.806.709.709,0,0,0,.448.716,1.2,1.2,0,0,0,.716.179,1.327,1.327,0,0,0,.626-.09h0a.329.329,0,0,1,.269-.089h.09l.09-.09-.09.09h0l.09-.09-.09.09c.09.089.09.089.179.089a.329.329,0,0,0,.269-.089c.089-.09.089-.09.089-.179a.329.329,0,0,0-.089-.269l-.09.09.179-.09h0l-.089.09.179-.09h0V79.8a.318.318,0,0,1,.179-.269,1.877,1.877,0,0,0,.358-.984,1.659,1.659,0,0,0-.179-.626,1.016,1.016,0,0,0-.716-.269,1.135,1.135,0,0,0-.537.09h-.179l-.089-.09v-.537h0l.089-.179.09-.089h0l.09.089a1.237,1.237,0,0,0,.984.537,1.272,1.272,0,0,0,.537-.179,1.605,1.605,0,0,0,.448-.626,2.277,2.277,0,0,0,.179-.626h0a.392.392,0,0,1,.09-.269h0l-.09-.179.09.179h0l-.09-.179.09.179c.179-.09.269-.179.179-.358s-.269-.269-.358-.179v0h0v0h0s-.09,0-.269-.269h0a.917.917,0,0,0-.537-.448,1.016,1.016,0,0,0-.716-.269.813.813,0,0,0-.627.269,1.094,1.094,0,0,0-.269.806c0,.179-.09.179-.09.179h-.089a2.03,2.03,0,0,1-.358-.089v0h0v0l-.179-.179a.442.442,0,0,1-.09-.269h0l.09-.09a5.314,5.314,0,0,0,.716-.358.813.813,0,0,0,.269-.626,1.134,1.134,0,0,0-.358-.806,1.949,1.949,0,0,0-.716-.447,1.108,1.108,0,0,1-.269-.179v-.09h-.537s0,.09-.358.179h0a1.8,1.8,0,0,0-.716.358.94.94,0,0,0-.448.806.774.774,0,0,0,.269.537,3.789,3.789,0,0,0,.627.448.088.088,0,0,1,.089.089h0l-.179.179-.179.179h0l-.089.089.179.269-.179-.269.179.269.269.179.09-.09-.358-.09.269.179a.668.668,0,0,0,.269-.269.765.765,0,0,0,.269-.537.679.679,0,0,0-.179-.358,1.236,1.236,0,0,0-.358-.269,1.956,1.956,0,0,1-.448-.269c-.09-.09-.09-.09-.09-.179s.09-.179.269-.358a1.956,1.956,0,0,0,.447-.269,2.624,2.624,0,0,0,.716-.358.677.677,0,0,0,.09-.358c0-.179-.09-.269-.269-.358-.179,0-.358.09-.358.269h0a.677.677,0,0,0,.09.358.886.886,0,0,0,.626.447c.09,0,.269.179.448.269a.357.357,0,0,1,.179.358l-.09.179a.957.957,0,0,1-.447.269,1.235,1.235,0,0,0-.358.269.679.679,0,0,0-.179.358.813.813,0,0,0,.269.627c.09.089.09.179.179.179l.179.179a1.157,1.157,0,0,0,.716.179.658.658,0,0,0,.537-.179.638.638,0,0,0,.269-.537.757.757,0,0,1,.179-.537c.09-.09.09-.09.179-.09a.679.679,0,0,1,.358.179c.179.09.269.269.358.269h0a1.253,1.253,0,0,0,.806.537h.179a.192.192,0,0,0,.179-.179.168.168,0,0,0,0-.269l-.179-.179h-.269a1.288,1.288,0,0,0-.269.179.881.881,0,0,0-.269.716v.09h0a1.659,1.659,0,0,1-.179.626c-.09.09-.09.179-.179.269l-.179.089c-.09,0-.269-.089-.448-.358a.906.906,0,0,0-.626-.358c-.179,0-.269.09-.358.09a.7.7,0,0,0-.358.358.538.538,0,0,0-.09.358v.358a1.135,1.135,0,0,0,.09.537l.269.269a.538.538,0,0,0,.358.089h.269c.179,0,.269-.089.358-.089a.316.316,0,0,1,.358.358,1.294,1.294,0,0,1-.179.626,1.19,1.19,0,0,0-.269.626,1.821,1.821,0,0,0,.089.448c.09.179.269.179.448.09s.179-.269.09-.448c0-.09-.269-.269-.626-.269a.807.807,0,0,0-.448.089,3.876,3.876,0,0,1-.448.09.671.671,0,0,1-.448-.09c-.089-.089-.089-.089-.089-.179a.884.884,0,0,1,.179-.537.807.807,0,0,0,.09-.447.684.684,0,0,0-.179-.448c-.179-.179-.358-.179-.537-.269-.179,0-.269-.09-.358-.09H120.2a1.512,1.512,0,0,0-.447.179c-.09,0-.179.089-.269.179a.679.679,0,0,0-.179.358,1.272,1.272,0,0,0,.179.537.884.884,0,0,1,.179.537v.09a.312.312,0,0,1-.179.09h-.358a.671.671,0,0,1-.448-.09,1.135,1.135,0,0,0-.537-.09,2.185,2.185,0,0,0-.626.09l.179.269.269.179a3.762,3.762,0,0,0,.179-.448.807.807,0,0,0-.089-.448h0a2.139,2.139,0,0,1-.269-.806c0-.089,0-.179.09-.179a.392.392,0,0,1,.269-.09h.537a.671.671,0,0,0,.448-.09.894.894,0,0,0,.358-.447.973.973,0,0,0,.089-.448v-.626c0-.09-.089-.179-.269-.358-.09-.09-.179-.179-.269-.179a.538.538,0,0,0-.358-.09.906.906,0,0,0-.626.358c-.269.358-.448.358-.537.358l-.179-.089a1.236,1.236,0,0,1-.269-.358.677.677,0,0,1-.09-.358,1.334,1.334,0,0,0-.269-.716c-.179-.179-.269-.179-.358-.179h-.269l-.179.179v.269c0,.09.09.09.179.179h.09a.973.973,0,0,0,.448-.089c.179-.09.269-.269.448-.448.089-.09.179-.269.269-.358.179-.09.269-.179.358-.179l.179.09c.09.09.179.179.179.537a.541.541,0,0,0,.269.537c.09.179.358.179.448.179a.757.757,0,0,0,.537-.179l.09-.09Z" transform="translate(-13.065 8.271)"/></g></g><g transform="translate(0 0)"><g class="a"><path class="c" d="M93.433,75.143c-.179.089-.716.358-.806-.358-.269-1.432-1.432-.627-1.7-.179a.8.8,0,0,1-.626.448s.358.09.358.626.626,1.79,1.611.537c.448-.626.895.179.984.358v.179c0,.179.09,1.164-.626.984-1.521-.269-1.074.984-.716,1.432a.644.644,0,0,1,0,.626,1.24,1.24,0,0,1,.895,0c.537.179,1.969.09,1.074-1.074-.447-.626.269-.716.448-.805h.09c.179,0,1.074.089.716.716-.716,1.253.626,1.342,1.163,1.163s.716.09.716.09-.179-.269.179-.716.626-1.79-.806-1.432c-.716.179-.626-.716-.626-.895s.448-.9.895-.358c.984,1.163,1.521-.179,1.521-.806,0-.537.358-.626.358-.626a.6.6,0,0,1-.626-.358c-.269-.448-1.521-1.164-1.611.269-.089.716-.805.448-.984.358s-.895-.806-.179-1.074c1.432-.537.447-1.432-.09-1.611s-.537-.537-.537-.537,0,.358-.537.448-1.7.984-.269,1.611c.627.269,0,.806-.268.985Z" transform="translate(-10.377 8.271)"/></g></g><g transform="translate(0 0)"><g class="a"><path class="b" d="M95.025,77.521a.706.706,0,0,0,.716-.716A.723.723,0,0,0,95.114,76a.706.706,0,0,0-.716.716.713.713,0,0,0,.626.806" transform="translate(-10.805 7.862)"/></g></g><g transform="translate(0 0)"><g class="a"><path class="b" d="M95.016,77.521h0a.685.685,0,0,0,.806-.716h0A.731.731,0,0,0,95.105,76h0c-.448,0-.716.358-.806.806v.09a.693.693,0,0,0,.716.627h0a.759.759,0,0,1-.626-.716h0a.612.612,0,0,1,.626-.626h0a.692.692,0,0,1,.627.716h0a.754.754,0,0,1-.627.626Z" transform="translate(-10.796 7.862)"/></g></g><g transform="translate(0 0)"><g class="a"><path class="b" d="M94.848,73.895a.567.567,0,0,0,.537-.447A.423.423,0,0,0,94.937,73a.567.567,0,0,0-.537.448.479.479,0,0,0,.448.447" transform="translate(-10.807 8.177)"/></g></g><g transform="translate(0 0)"><g class="a"><path class="b" d="M94.837,73.884h0a.417.417,0,0,0,.537-.447h0a.577.577,0,0,0-.537-.537h0a.516.516,0,0,0-.537.537h0c.089.269.268.537.537.447h0a.6.6,0,0,1-.358-.447h0a.409.409,0,0,1,.447-.358h0a.328.328,0,0,1,.358.358h0c0,.179-.179.358-.447.447Z" transform="translate(-10.797 8.187)"/></g></g><g transform="translate(0 0)"><g class="a"><path class="b" d="M91.748,76.195a.567.567,0,0,0,.537-.447.423.423,0,0,0-.448-.448.567.567,0,0,0-.537.448.423.423,0,0,0,.448.447" transform="translate(-10.482 7.935)"/></g></g><g transform="translate(0 0)"><g class="a"><path class="b" d="M91.737,76.185h0a.417.417,0,0,0,.537-.447h0a.577.577,0,0,0-.537-.537h0a.516.516,0,0,0-.537.537h0c.09.268.269.537.537.447h0a.6.6,0,0,1-.358-.447h0a.409.409,0,0,1,.447-.358h0v0a.385.385,0,0,1,.358.358h0a.423.423,0,0,1-.447.447Z" transform="translate(-10.471 7.946)"/></g></g><g transform="translate(0 0)"><g class="a"><path class="b" d="M98.147,76.395a.567.567,0,0,0,.537-.448.423.423,0,0,0-.448-.447.567.567,0,0,0-.537.447.423.423,0,0,0,.447.448" transform="translate(-11.153 7.914)"/></g></g><g transform="translate(0 0)"><g class="a"><path class="b" d="M98.137,76.384h0a.448.448,0,0,0,.537-.448h0a.577.577,0,0,0-.537-.537h0a.516.516,0,0,0-.537.537h0a.448.448,0,0,0,.537.448h0a.6.6,0,0,1-.358-.448h0a.409.409,0,0,1,.448-.358h0a.385.385,0,0,1,.358.358h0c0,.269-.179.358-.448.448Z" transform="translate(-11.143 7.925)"/></g></g><g transform="translate(0 0)"><g class="a"><path class="b" d="M96.945,80.195a.567.567,0,0,0,.537-.448.423.423,0,0,0-.448-.447.567.567,0,0,0-.537.447c-.09.179.179.358.447.448" transform="translate(-11.025 7.515)"/></g></g><g transform="translate(0 0)"><g class="a"><path class="b" d="M96.937,80.185h0a.448.448,0,0,0,.537-.448h0a.516.516,0,0,0-.537-.537h0a.516.516,0,0,0-.537.537h0c0,.269.179.448.537.448h0a.6.6,0,0,1-.358-.448h0a.409.409,0,0,1,.448-.358h0a.385.385,0,0,1,.358.358h0a1.079,1.079,0,0,1-.448.448Z" transform="translate(-11.017 7.526)"/></g></g><g transform="translate(0 0)"><g class="a"><path class="b" d="M93.045,79.995a.567.567,0,0,0,.537-.447.423.423,0,0,0-.448-.448.5.5,0,0,0-.537.448c-.09.179.179.358.447.447" transform="translate(-10.616 7.536)"/></g></g><g transform="translate(0 0)"><g class="a"><path class="b" d="M93.037,79.984h0a.448.448,0,0,0,.537-.448h0A.516.516,0,0,0,93.037,79h0a.516.516,0,0,0-.537.537h0c0,.269.179.448.537.448h0a.6.6,0,0,1-.358-.448h0a.409.409,0,0,1,.448-.358h0c.269,0,.358.179.358.448h0a1.952,1.952,0,0,1-.448.358Z" transform="translate(-10.608 7.547)"/></g></g><g transform="translate(0 0)"><g class="a"><path class="c" d="M94.948,73.605a.409.409,0,0,0,.447-.358.423.423,0,0,0-.447-.447.409.409,0,0,0-.448.358.423.423,0,0,0,.448.448" transform="translate(-10.818 8.198)"/></g></g><g transform="translate(0 0)"><g class="a"><path class="c" d="M94.951,73.605h0a.441.441,0,0,0,.537-.358h0a.423.423,0,0,0-.448-.447h0a.423.423,0,0,0-.447.447h0c-.179.269.089.448.358.358h0a.6.6,0,0,1-.358-.448h0a.385.385,0,0,1,.358-.358h0a.385.385,0,0,1,.358.358h0a.409.409,0,0,1-.358.448Z" transform="translate(-10.821 8.198)"/></g></g><g transform="translate(0 0)"><g class="a"><path class="c" d="M91.748,75.905a.409.409,0,0,0,.447-.358.423.423,0,0,0-.447-.447.409.409,0,0,0-.448.358c.09.269.268.447.448.447" transform="translate(-10.482 7.956)"/></g></g><g transform="translate(0 0)"><g class="a"><path class="c" d="M91.748,75.905h0a.441.441,0,0,0,.537-.358h0a.423.423,0,0,0-.448-.447h0a.567.567,0,0,0-.537.447h0a.36.36,0,0,0,.448.358h0a.6.6,0,0,1-.358-.447h0a.385.385,0,0,1,.358-.358h0a.385.385,0,0,1,.358.358h0c.089.269-.09.358-.358.447Z" transform="translate(-10.482 7.956)"/></g></g><g transform="translate(0 0)"><g class="a"><path class="c" d="M98.147,76.105a.409.409,0,0,0,.448-.358.423.423,0,0,0-.448-.448.409.409,0,0,0-.447.358c.09.179.269.448.447.448" transform="translate(-11.153 7.935)"/></g></g><g transform="translate(0 0)"><g class="a"><path class="c" d="M98.147,76.105h0a.441.441,0,0,0,.537-.358h0a.423.423,0,0,0-.448-.448h0a.567.567,0,0,0-.537.448h0a.409.409,0,0,0,.447.358h0a.6.6,0,0,1-.358-.448h0a.385.385,0,0,1,.358-.358h0a.385.385,0,0,1,.358.358h0c.09.179-.089.358-.358.448Z" transform="translate(-11.153 7.935)"/></g></g><g transform="translate(0 0)"><g class="a"><path class="c" d="M96.848,79.906a.409.409,0,0,0,.447-.358.423.423,0,0,0-.447-.448.409.409,0,0,0-.448.358c.09.179.268.448.448.448" transform="translate(-11.017 7.536)"/></g></g><g transform="translate(0 0)"><g class="a"><path class="c" d="M96.855,79.906h0a.441.441,0,0,0,.537-.358h0a.423.423,0,0,0-.448-.448h0a.423.423,0,0,0-.447.448h0c-.09.179.089.358.358.358h0a.6.6,0,0,1-.358-.448h0a.385.385,0,0,1,.358-.358h0a.385.385,0,0,1,.358.358h0c.089.179-.09.358-.358.448Z" transform="translate(-11.025 7.536)"/></g></g><g transform="translate(0 0)"><g class="a"><path class="c" d="M93.047,79.705a.409.409,0,0,0,.448-.358.423.423,0,0,0-.448-.448.409.409,0,0,0-.447.358.423.423,0,0,0,.447.447" transform="translate(-10.618 7.557)"/></g></g><g transform="translate(0 0)"><g class="a"><path class="c" d="M93.045,79.705h0a.441.441,0,0,0,.537-.358h0a.423.423,0,0,0-.448-.448h0a.567.567,0,0,0-.537.448h0c-.09.179.179.447.447.358h0a.6.6,0,0,1-.358-.447h0a.385.385,0,0,1,.358-.358h0a.385.385,0,0,1,.358.358h0c0,.268-.179.358-.358.447Z" transform="translate(-10.616 7.557)"/></g></g><g transform="translate(0 0)"><g class="a"><path class="c" d="M95.026,77.143a.673.673,0,1,0-.626-.716.692.692,0,0,0,.626.716" transform="translate(-10.807 7.883)"/></g></g><g transform="translate(0 0)"><g class="a"><path class="c" d="M95.025,77.143h0a.669.669,0,0,0,.806-.626h0a.706.706,0,0,0-.716-.716h0a.706.706,0,0,0-.716.716h0a.532.532,0,0,0,.627.626h0a.754.754,0,0,1-.626-.626h0c0-.358.269-.537.626-.537h0a.612.612,0,0,1,.627.626h0c0,.269-.269.447-.627.537Z" transform="translate(-10.805 7.883)"/></g></g><g transform="translate(0 0)"><g class="a"><path class="b" d="M98.734,56.658v.269H114.4a3.954,3.954,0,0,1,1.611.447,4.617,4.617,0,0,1,1.88,2.417l.269-.089-.269.089v.179h0l4.564,13.872h0a4.953,4.953,0,0,1,0,3.222,3.221,3.221,0,0,1-.984,1.253h0l-.09.089L108.4,87.356h0a3.7,3.7,0,0,1-2.327.805,4.3,4.3,0,0,1-2.6-.895h0l-.179-.09L91.575,78.854h0A5.511,5.511,0,0,1,90.5,77.78a4.16,4.16,0,0,1-.895-2.416,4.492,4.492,0,0,1,.179-1.074l4.922-14.678h0a3.209,3.209,0,0,1,.716-1.432,4.024,4.024,0,0,1,3.222-1.163v0h.269l-.179-.358v-.268h-.269a4.776,4.776,0,0,0-3.759,1.521,3.9,3.9,0,0,0-.806,1.611l.269.089-.269-.089L88.979,74.2h0a3.262,3.262,0,0,0-.179,1.253,4.447,4.447,0,0,0,1.164,2.864,4.308,4.308,0,0,0,1.164,1.074l.179-.269-.179.179,11.724,8.324.179.09.179-.269-.179.269a4.669,4.669,0,0,0,5.728.179l-.179-.269.179.269,13.067-8.95.09-.09-.179-.179.179.269a3.608,3.608,0,0,0,1.253-1.611,3.967,3.967,0,0,0,.269-1.7,8.587,8.587,0,0,0-.269-1.969L118.514,59.79v-.179h0a4.467,4.467,0,0,0-2.148-2.774,4.02,4.02,0,0,0-1.88-.537h-.179v0H98.734Z" transform="translate(-10.219 9.93)"/></g></g><g transform="translate(0 0)"><g class="a"><path class="b" d="M108.1,79.9V90.909s1.253.179,5.012-2.685C116.781,85.36,116.6,85.9,116.6,85.9l.179-.179Z" transform="translate(-12.245 7.452)"/></g></g><g transform="translate(0 0)"><g class="a"><rect class="b" width="27.745" height="0.627" transform="translate(82.071 74.911)"/></g></g><g transform="translate(0 0)"><g class="a"><path class="c" d="M106.632,84.243c-.179.09-.716.358-.806-.358-.269-1.432-1.432-.626-1.7-.179a.8.8,0,0,1-.626.447s.358.09.358.627.626,1.79,1.611.537c.448-.626.9.179.984.358v.179c.09.179.09,1.163-.626.984-1.521-.269-1.074.984-.716,1.432a.644.644,0,0,1,0,.626,1.24,1.24,0,0,1,.9,0c.537.179,1.969.09,1.074-1.074-.448-.626.269-.716.447-.806h.09c.179,0,1.074.09.716.716-.716,1.253.626,1.342,1.164,1.164s.716.09.716.09-.179-.269.179-.716.626-1.79-.806-1.432c-.716.179-.626-.716-.626-.9s.358-.895.9-.358c.984,1.164,1.521-.179,1.521-.805,0-.537.358-.626.358-.626a.6.6,0,0,1-.626-.358c-.269-.448-1.521-1.164-1.611.269-.09.716-.806.448-.985.358s-.895-.806-.179-1.074c1.432-.537.448-1.432-.09-1.611s-.537-.537-.537-.537,0,.358-.537.448-1.7.984-.269,1.611c.626.358-.09.806-.269.984Z" transform="translate(-11.762 7.316)"/></g></g><g transform="translate(0 0)"><g class="a"><path class="b" d="M108.126,86.622a.706.706,0,0,0,.716-.716.723.723,0,0,0-.627-.806.706.706,0,0,0-.716.716.723.723,0,0,0,.626.806" transform="translate(-12.182 6.906)"/></g></g><g transform="translate(0 0)"><g class="a"><path class="b" d="M108.116,86.622h0a.685.685,0,0,0,.805-.716h0a.731.731,0,0,0-.716-.806h0c-.448,0-.716.358-.806.806h0a.77.77,0,0,0,.716.716h0a.759.759,0,0,1-.626-.716h0a.672.672,0,0,1,.626-.627h0a.692.692,0,0,1,.626.716h0c.09.269-.179.537-.626.627Z" transform="translate(-12.172 6.906)"/></g></g><g transform="translate(0 0)"><g class="a"><path class="b" d="M108.047,82.995a.567.567,0,0,0,.537-.448.423.423,0,0,0-.447-.447.567.567,0,0,0-.537.447.423.423,0,0,0,.448.448" transform="translate(-12.193 7.221)"/></g></g><g transform="translate(0 0)"><g class="a"><path class="b" d="M108.037,82.984h0a.448.448,0,0,0,.537-.448h0a.577.577,0,0,0-.537-.537v0h0a.516.516,0,0,0-.537.537h0a.448.448,0,0,0,.537.448h0a.6.6,0,0,1-.358-.448h0a.409.409,0,0,1,.448-.358h0a.409.409,0,0,1,.358.448h0a.409.409,0,0,1-.448.358Z" transform="translate(-12.182 7.232)"/></g></g><g transform="translate(0 0)"><g class="a"><path class="b" d="M104.947,85.395a.5.5,0,0,0,.537-.448.423.423,0,0,0-.447-.448.567.567,0,0,0-.537.448.479.479,0,0,0,.447.448" transform="translate(-11.868 6.969)"/></g></g><g transform="translate(0 0)"><g class="a"><path class="b" d="M104.937,85.384h0a.417.417,0,0,0,.537-.448h0a.577.577,0,0,0-.537-.537h0a.516.516,0,0,0-.537.537h0a.5.5,0,0,0,.537.448h0a.457.457,0,0,1-.358-.448h0a.409.409,0,0,1,.448-.358h0a.328.328,0,0,1,.358.358h0c0,.179-.179.358-.448.448Z" transform="translate(-11.857 6.98)"/></g></g><g transform="translate(0 0)"><g class="a"><path class="b" d="M111.348,85.495a.567.567,0,0,0,.537-.447.423.423,0,0,0-.448-.448.567.567,0,0,0-.537.448.423.423,0,0,0,.448.447" transform="translate(-12.54 6.959)"/></g></g><g transform="translate(0 0)"><g class="a"><path class="b" d="M111.337,85.484h0a.448.448,0,0,0,.537-.448h0a.577.577,0,0,0-.537-.537h0a.516.516,0,0,0-.537.537h0a.448.448,0,0,0,.537.448h0a.6.6,0,0,1-.358-.448h0a.409.409,0,0,1,.447-.358h0v0a.385.385,0,0,1,.358.358h0a.423.423,0,0,1-.447.448Z" transform="translate(-12.529 6.969)"/></g></g><g transform="translate(0 0)"><g class="a"><path class="b" d="M110.048,89.295a.567.567,0,0,0,.537-.448.423.423,0,0,0-.447-.448.567.567,0,0,0-.537.448.479.479,0,0,0,.448.448" transform="translate(-12.403 6.56)"/></g></g><g transform="translate(0 0)"><g class="a"><path class="b" d="M110.037,89.285h0a.448.448,0,0,0,.537-.448h0a.577.577,0,0,0-.537-.537h0a.516.516,0,0,0-.537.537h0a.5.5,0,0,0,.537.448h0a.6.6,0,0,1-.358-.448h0a.409.409,0,0,1,.448-.358h0a.385.385,0,0,1,.358.358h0c0,.179-.179.358-.448.448Z" transform="translate(-12.392 6.57)"/></g></g><g transform="translate(0 0)"><g class="a"><path class="b" d="M106.147,89.095a.567.567,0,0,0,.537-.447.423.423,0,0,0-.447-.448.5.5,0,0,0-.537.448.479.479,0,0,0,.447.447" transform="translate(-11.993 6.581)"/></g></g><g transform="translate(0 0)"><g class="a"><path class="b" d="M106.137,89.084h0a.448.448,0,0,0,.537-.447h0a.577.577,0,0,0-.537-.537h0a.516.516,0,0,0-.537.537h0a.5.5,0,0,0,.537.447h0a.6.6,0,0,1-.358-.447h0a.409.409,0,0,1,.448-.358h0a.385.385,0,0,1,.358.358h0c0,.179-.179.358-.448.447Z" transform="translate(-11.983 6.591)"/></g></g><g transform="translate(0 0)"><g class="a"><path class="c" d="M108.047,82.806a.409.409,0,0,0,.448-.358.423.423,0,0,0-.448-.448.409.409,0,0,0-.448.358c.09.179.269.448.448.448" transform="translate(-12.193 7.232)"/></g></g><g transform="translate(0 0)"><g class="a"><path class="c" d="M108.055,82.806h0a.441.441,0,0,0,.537-.358h0a.423.423,0,0,0-.447-.448v0h0a.423.423,0,0,0-.448.448h0c-.09.179.09.358.358.358h0a.6.6,0,0,1-.358-.448h0a.385.385,0,0,1,.358-.358h0a.385.385,0,0,1,.358.358h0a.457.457,0,0,1-.358.448Z" transform="translate(-12.201 7.232)"/></g></g><g transform="translate(0 0)"><g class="a"><path class="c" d="M104.947,85.005a.409.409,0,0,0,.448-.358.423.423,0,0,0-.448-.447.409.409,0,0,0-.447.358.423.423,0,0,0,.447.447" transform="translate(-11.868 7.001)"/></g></g><g transform="translate(0 0)"><g class="a"><path class="c" d="M104.947,85.005h0a.441.441,0,0,0,.537-.358h0a.423.423,0,0,0-.447-.447v0h0a.567.567,0,0,0-.537.447h0c0,.269.179.448.447.358h0a.6.6,0,0,1-.358-.447h0a.385.385,0,0,1,.358-.358h0a.385.385,0,0,1,.358.358h0a.409.409,0,0,1-.358.447Z" transform="translate(-11.868 7.001)"/></g></g><g transform="translate(0 0)"><g class="a"><path class="c" d="M111.348,85.205a.409.409,0,0,0,.447-.358.423.423,0,0,0-.447-.447.409.409,0,0,0-.448.358.423.423,0,0,0,.448.447" transform="translate(-12.54 6.98)"/></g></g><g transform="translate(0 0)"><g class="a"><path class="c" d="M111.348,85.205h0a.441.441,0,0,0,.537-.358h0a.423.423,0,0,0-.448-.447h0a.567.567,0,0,0-.537.447h0a.36.36,0,0,0,.448.358h0a.6.6,0,0,1-.358-.447h0a.385.385,0,0,1,.358-.358h0a.385.385,0,0,1,.358.358h0c0,.268-.179.358-.358.447Z" transform="translate(-12.54 6.98)"/></g></g><g transform="translate(0 0)"><g class="a"><path class="c" d="M110.048,89.006a.409.409,0,0,0,.447-.358.448.448,0,1,0-.9,0,.409.409,0,0,0,.448.358" transform="translate(-12.403 6.581)"/></g></g><g transform="translate(0 0)"><g class="a"><path class="c" d="M110.048,89.006h0a.394.394,0,0,0,.537-.358h0a.423.423,0,0,0-.447-.448h0a.567.567,0,0,0-.537.448h0a.36.36,0,0,0,.448.358h0a.6.6,0,0,1-.358-.448h0a.385.385,0,0,1,.358-.358h0a.385.385,0,0,1,.358.358h0c0,.269-.179.358-.358.448Z" transform="translate(-12.403 6.581)"/></g></g><g transform="translate(0 0)"><g class="a"><path class="c" d="M106.147,88.805a.409.409,0,0,0,.448-.358.423.423,0,0,0-.448-.448.409.409,0,0,0-.447.358c.09.269.268.448.447.448" transform="translate(-11.993 6.602)"/></g></g><g transform="translate(0 0)"><g class="a"><path class="c" d="M106.155,88.805h0a.441.441,0,0,0,.537-.358h0a.423.423,0,0,0-.447-.448h0a.423.423,0,0,0-.448.448h0a.275.275,0,0,0,.358.358h0a.6.6,0,0,1-.358-.448h0a.385.385,0,0,1,.358-.358h0a.385.385,0,0,1,.358.358h0c.09.269-.09.448-.358.448Z" transform="translate(-12.001 6.602)"/></g></g><g transform="translate(0 0)"><g class="a"><path class="c" d="M108.225,86.243a.673.673,0,1,0-.626-.716.6.6,0,0,0,.626.716" transform="translate(-12.191 6.927)"/></g></g><g transform="translate(0 0)"><g class="a"><path class="c" d="M108.224,86.243h0a.669.669,0,0,0,.806-.627h0a.706.706,0,0,0-.716-.716h0a.706.706,0,0,0-.716.716h0a.506.506,0,0,0,.627.627h0a.654.654,0,0,1-.537-.627h0c0-.358.269-.537.626-.537h0a.612.612,0,0,1,.626.626h0a.78.78,0,0,1-.716.537Z" transform="translate(-12.191 6.927)"/></g></g><g transform="translate(0 0)"><g class="a"><path class="b" d="M122.824,68.3,111.1,76.445l8.861,6.175s5.37-2.954,5.459-4.923c.09-2.059-1.969-8.682-2.6-9.4" transform="translate(-12.56 8.67)"/></g></g><g transform="translate(0 0)"><g class="a"><path class="c" d="M119.533,75.543c-.179.09-.716.358-.806-.358-.269-1.432-1.432-.627-1.7-.179a.8.8,0,0,1-.626.448s.358.089.358.626.626,1.79,1.521.537c.448-.626.9.179.985.358v.179c.089.179.089,1.164-.627.984-1.521-.269-.984.984-.716,1.432a.644.644,0,0,1,0,.626,1.24,1.24,0,0,1,.9,0c.537.179,1.969.179,1.074-1.074-.448-.626.269-.716.448-.805h.089c.179,0,1.074.089.716.716-.716,1.253.626,1.342,1.164,1.163s.716.09.716.09-.179-.269.179-.716.626-1.79-.805-1.432c-.716.179-.627-.716-.627-.895s.448-.9.9-.358c.984,1.163,1.521-.179,1.521-.806,0-.537.358-.626.358-.626a.6.6,0,0,1-.626-.358c-.269-.448-1.521-1.164-1.611.269-.09.716-.806.448-.984.358s-.9-.806-.179-1.074c1.432-.537.448-1.432-.09-1.611s-.537-.537-.537-.537,0,.358-.537.448-1.7.984-.269,1.611c.626.269,0,.716-.179.984Z" transform="translate(-13.117 8.229)"/></g></g><g transform="translate(0 0)"><g class="a"><path class="b" d="M121.026,77.821a.706.706,0,0,0,.716-.716.723.723,0,0,0-.627-.805.706.706,0,0,0-.716.716.723.723,0,0,0,.627.806" transform="translate(-13.537 7.83)"/></g></g><g transform="translate(0 0)"><g class="a"><path class="b" d="M121.016,77.811h0a.685.685,0,0,0,.805-.716v-.09a.731.731,0,0,0-.716-.805h0c-.447,0-.716.358-.805.805v.09c0,.448.358.806.716.716h0a.759.759,0,0,1-.627-.716h0a.672.672,0,0,1,.627-.626h0a.692.692,0,0,1,.626.716h0c.09.268-.179.626-.626.626Z" transform="translate(-13.526 7.841)"/></g></g><g transform="translate(0 0)"><g class="a"><path class="b" d="M120.947,74.2a.567.567,0,0,0,.537-.448.423.423,0,0,0-.447-.448.567.567,0,0,0-.537.448.423.423,0,0,0,.447.448" transform="translate(-13.547 8.145)"/></g></g><g transform="translate(0 0)"><g class="a"><path class="b" d="M120.937,74.185h0a.417.417,0,0,0,.537-.448h0a.516.516,0,0,0-.537-.537v0h0a.516.516,0,0,0-.537.537h0a.448.448,0,0,0,.537.448h0a.6.6,0,0,1-.358-.448h0a.409.409,0,0,1,.448-.358h0a.328.328,0,0,1,.358.358h0a.423.423,0,0,1-.448.448Z" transform="translate(-13.537 8.156)"/></g></g><g transform="translate(0 0)"><g class="a"><path class="b" d="M117.848,76.595a.5.5,0,0,0,.537-.447.423.423,0,0,0-.447-.448.567.567,0,0,0-.537.448.479.479,0,0,0,.448.447" transform="translate(-13.222 7.893)"/></g></g><g transform="translate(0 0)"><g class="a"><path class="b" d="M117.837,76.584h0a.417.417,0,0,0,.537-.447h0a.516.516,0,0,0-.537-.537h0a.516.516,0,0,0-.537.537h0a.448.448,0,0,0,.537.447h0a.6.6,0,0,1-.358-.447h0a.409.409,0,0,1,.448-.358h0v0a.409.409,0,0,1,.358.448h0c0,.089-.179.268-.448.358Z" transform="translate(-13.211 7.904)"/></g></g><g transform="translate(0 0)"><g class="a"><path class="b" d="M124.247,76.795a.567.567,0,0,0,.537-.448.423.423,0,0,0-.448-.448.567.567,0,0,0-.537.448c0,.179.179.358.447.448" transform="translate(-13.894 7.872)"/></g></g><g transform="translate(0 0)"><g class="a"><path class="b" d="M124.237,76.785h0a.448.448,0,0,0,.537-.448h0a.577.577,0,0,0-.537-.537h0a.516.516,0,0,0-.537.537h0c0,.268.179.448.537.448h0a.6.6,0,0,1-.358-.448h0a.409.409,0,0,1,.448-.358h0a.328.328,0,0,1,.358.358h0c0,.179-.269.358-.448.448Z" transform="translate(-13.884 7.883)"/></g></g><g transform="translate(0 0)"><g class="a"><path class="b" d="M122.948,80.495a.567.567,0,0,0,.537-.447.423.423,0,0,0-.447-.448.567.567,0,0,0-.537.448.479.479,0,0,0,.448.447" transform="translate(-13.757 7.484)"/></g></g><g transform="translate(0 0)"><g class="a"><path class="b" d="M122.937,80.484h0a.448.448,0,0,0,.537-.447h0a.516.516,0,0,0-.537-.537h0a.516.516,0,0,0-.537.537h0a.448.448,0,0,0,.537.447h0a.6.6,0,0,1-.358-.447h0a.409.409,0,0,1,.448-.358h0a.409.409,0,0,1,.358.447h0c0,.179-.179.269-.448.358Z" transform="translate(-13.747 7.494)"/></g></g><g transform="translate(0 0)"><g class="a"><path class="b" d="M119.048,80.295a.567.567,0,0,0,.537-.448.423.423,0,0,0-.447-.447.567.567,0,0,0-.537.447.423.423,0,0,0,.448.448" transform="translate(-13.348 7.505)"/></g></g><g transform="translate(0 0)"><g class="a"><path class="b" d="M119.037,80.285h0a.417.417,0,0,0,.537-.448h0a.577.577,0,0,0-.537-.537h0a.516.516,0,0,0-.537.537h0a.448.448,0,0,0,.537.448h0a.6.6,0,0,1-.358-.448h0a.409.409,0,0,1,.448-.358h0a.385.385,0,0,1,.358.358h0c0,.269-.179.358-.448.448Z" transform="translate(-13.337 7.515)"/></g></g><g transform="translate(0 0)"><g class="a"><path class="c" d="M120.947,74.005a.409.409,0,0,0,.448-.358.423.423,0,0,0-.448-.448.409.409,0,0,0-.447.358.423.423,0,0,0,.447.448" transform="translate(-13.547 8.156)"/></g></g><g transform="translate(0 0)"><g class="a"><path class="c" d="M120.955,74.005h0a.394.394,0,0,0,.537-.358h0a.423.423,0,0,0-.447-.448v0h0a.423.423,0,0,0-.448.448h0a.275.275,0,0,0,.358.358h0a.6.6,0,0,1-.358-.448h0a.385.385,0,0,1,.358-.358h0a.385.385,0,0,1,.358.358h0c0,.269-.09.358-.358.448Z" transform="translate(-13.555 8.156)"/></g></g><g transform="translate(0 0)"><g class="a"><path class="c" d="M117.848,76.305a.409.409,0,0,0,.448-.358.423.423,0,0,0-.448-.447.409.409,0,0,0-.448.358c0,.179.179.358.448.448" transform="translate(-13.222 7.914)"/></g></g><g transform="translate(0 0)"><g class="a"><path class="c" d="M117.848,76.305h0a.394.394,0,0,0,.537-.358h0a.423.423,0,0,0-.447-.447h0a.567.567,0,0,0-.537.447h0a.409.409,0,0,0,.448.358h0a.6.6,0,0,1-.358-.448h0a.385.385,0,0,1,.358-.358h0a.385.385,0,0,1,.358.358h0a.6.6,0,0,1-.358.448Z" transform="translate(-13.222 7.914)"/></g></g><g transform="translate(0 0)"><g class="a"><path class="c" d="M124.247,76.406a.409.409,0,0,0,.448-.358.479.479,0,0,0-.448-.448.409.409,0,0,0-.447.358.423.423,0,0,0,.447.448" transform="translate(-13.894 7.904)"/></g></g><g transform="translate(0 0)"><g class="a"><path class="c" d="M124.247,76.406h0a.441.441,0,0,0,.537-.358h0a.423.423,0,0,0-.448-.448h0c-.537,0-.537.627-.537.448h0a.36.36,0,0,0,.447.358h0a.6.6,0,0,1-.358-.448h0a.385.385,0,0,1,.358-.358h0a.385.385,0,0,1,.358.358h0a.409.409,0,0,1-.358.448Z" transform="translate(-13.894 7.904)"/></g></g><g transform="translate(0 0)"><g class="a"><path class="c" d="M122.948,80.205a.409.409,0,0,0,.448-.358.423.423,0,0,0-.448-.447.409.409,0,0,0-.448.358.423.423,0,0,0,.448.448" transform="translate(-13.757 7.505)"/></g></g><g transform="translate(0 0)"><g class="a"><path class="c" d="M122.955,80.205h0a.441.441,0,0,0,.537-.358h0a.423.423,0,0,0-.447-.447v0h0a.423.423,0,0,0-.448.447h0a.275.275,0,0,0,.358.358h0a.6.6,0,0,1-.358-.448h0a.385.385,0,0,1,.358-.358h0a.385.385,0,0,1,.358.358h0a.409.409,0,0,1-.358.448Z" transform="translate(-13.765 7.505)"/></g></g><g transform="translate(0 0)"><g class="a"><path class="c" d="M119.048,80.105a.409.409,0,0,0,.448-.358.423.423,0,0,0-.448-.448.409.409,0,0,0-.448.358c0,.179.269.358.448.448" transform="translate(-13.348 7.515)"/></g></g><g transform="translate(0 0)"><g class="a"><path class="c" d="M119.048,80.105h0a.441.441,0,0,0,.537-.358h0a.423.423,0,0,0-.447-.448h0a.567.567,0,0,0-.537.448h0a.409.409,0,0,0,.448.358h0a.6.6,0,0,1-.358-.448h0a.385.385,0,0,1,.358-.358h0a.385.385,0,0,1,.358.358h0a.457.457,0,0,1-.358.448Z" transform="translate(-13.348 7.515)"/></g></g><g transform="translate(0 0)"><g class="a"><path class="c" d="M121.124,77.542a.673.673,0,1,0-.626-.716c-.09.358.179.627.626.716" transform="translate(-13.545 7.841)"/></g></g><g transform="translate(0 0)"><g class="a"><path class="c" d="M121.124,77.542h0a.669.669,0,0,0,.806-.626h0a.706.706,0,0,0-.716-.716h0a.706.706,0,0,0-.716.716h0c-.089.269.179.626.627.626h0a.754.754,0,0,1-.626-.626h0c0-.358.269-.537.626-.537h0a.612.612,0,0,1,.627.626h0c0,.179-.269.448-.627.537Z" transform="translate(-13.545 7.841)"/></g></g><g transform="translate(0 0)"><g class="a"><path class="c" d="M110.391,71.711v-.895c0-.448-1.164-.716-2.6-.716s-2.6.358-2.6.716v.895" transform="translate(-11.941 8.481)"/></g></g><g transform="translate(0 0)"><g class="a"><path class="b" d="M110.707,71.669v-.895c0-.09-.09-.269-.09-.358a.894.894,0,0,0-.448-.358,5.978,5.978,0,0,0-2.416-.358,6.547,6.547,0,0,0-1.969.269,4.362,4.362,0,0,0-.627.269c-.09.09-.179.09-.269.179s-.09.179-.09.358v.895a.286.286,0,0,0,.269.269.237.237,0,0,0,.269-.269v-.895h0a1.957,1.957,0,0,1,.805-.269,7.1,7.1,0,0,1,1.521-.179,9.232,9.232,0,0,1,1.79.179c.179.09.358.09.448.179l.089.09h0v.895a.286.286,0,0,0,.269.269.313.313,0,0,0,.447-.268" transform="translate(-11.899 8.523)"/></g></g><g transform="translate(0 0)"><g class="a"><path class="c" d="M107.8,72.632c1.432,0,2.6-.358,2.6-.716,0-.448-1.164-.716-2.6-.716s-2.6.358-2.6.716,1.164.716,2.6.716" transform="translate(-11.941 8.366)"/></g></g><g transform="translate(0 0)"><g class="a"><path class="b" d="M107.753,72.579v.269a6.547,6.547,0,0,0,1.969-.269,4.361,4.361,0,0,0,.627-.269c.089-.09.179-.09.269-.179s.09-.179.09-.358c0-.09-.09-.269-.09-.358a.894.894,0,0,0-.448-.358,5.978,5.978,0,0,0-2.416-.358,6.547,6.547,0,0,0-1.969.269,4.362,4.362,0,0,0-.627.269c-.089.09-.179.09-.269.179s-.09.179-.09.358c0,.09.09.269.09.358a.894.894,0,0,0,.448.358,5.978,5.978,0,0,0,2.416.358v-.537a9.232,9.232,0,0,1-1.79-.179,1.512,1.512,0,0,0-.448-.179l-.089-.09h0a1.957,1.957,0,0,1,.805-.269,7.717,7.717,0,0,1,1.521-.09,9.232,9.232,0,0,1,1.79.179c.179.09.358.09.448.179l.089.089h0a1.957,1.957,0,0,1-.805.269,7.1,7.1,0,0,1-1.521.179v.179Z" transform="translate(-11.899 8.418)"/></g></g><g transform="translate(0 0)"><g class="a"><path class="c" d="M107.6,66.4s-.984.895-.806,3.312c0,0,.179-2.864-1.7-3.133a10.118,10.118,0,0,1,.626,3.491s.269-2.238-2.416-2.6c0,0,1.79,1.342,1.79,2.954,0-.448,2.6-.627,2.6-.627,2.416-.09,2.6.627,2.6.627-.089-1.611,1.79-2.954,1.79-2.954-2.685.358-2.416,2.6-2.416,2.6a10.118,10.118,0,0,1,.626-3.491c-1.879.358-1.7,3.133-1.7,3.133A4.791,4.791,0,0,0,107.6,66.4" transform="translate(-11.741 8.87)"/></g></g><g transform="translate(0 0)"><g class="a"><path class="b" d="M107.239,66.183c-.089,0-.9.895-.9,2.953v.537a.286.286,0,0,0,.269.269.237.237,0,0,0,.269-.269v-.179a4.388,4.388,0,0,0-.269-1.7,1.7,1.7,0,0,0-.626-.984,2.082,2.082,0,0,0-1.163-.626.316.316,0,0,0-.358.358v.089A10.73,10.73,0,0,1,105,69.942a.237.237,0,0,0,.269.269c.179,0,.269-.09.358-.269v-.179a2.826,2.826,0,0,0-.447-1.432,3.2,3.2,0,0,0-2.327-1.253.465.465,0,0,0-.358.179c-.089.089,0,.269.09.358l.089.09a3.31,3.31,0,0,1,.9.984,2.826,2.826,0,0,1,.626,1.7c0,.089,0,.179.089.179a.277.277,0,0,0,.179.09c.09,0,.179,0,.179-.09a.277.277,0,0,0,.089-.179h-.179l.089.089v-.089h-.179l.09.089h0A3.763,3.763,0,0,1,105,70.3a6.044,6.044,0,0,1,1.253-.179,3.387,3.387,0,0,0,.716-.09v0h.268a4.745,4.745,0,0,1,1.79.269.277.277,0,0,0,.179.089h0l.179-.089-.179.089h0l.179-.089-.179.089c0,.179.179.269.358.269s.269-.179.269-.358v-.09a2.757,2.757,0,0,1,.805-1.79,1.677,1.677,0,0,1,.626-.537c.09-.09.179-.09.179-.179l.089-.09c.09-.09.179-.269.09-.358a.465.465,0,0,0-.358-.179,3.2,3.2,0,0,0-2.327,1.253,2.826,2.826,0,0,0-.448,1.432v.179c0,.179.179.269.358.269a.286.286,0,0,0,.269-.269,16.531,16.531,0,0,1,.269-2.417,2.767,2.767,0,0,0,.179-.716.312.312,0,0,1,.09-.179v-.09a.316.316,0,0,0-.358-.358,2.138,2.138,0,0,0-1.164.627,2.669,2.669,0,0,0-.716,1.521,6.959,6.959,0,0,0-.089,1.164v.179a.286.286,0,0,0,.269.269.237.237,0,0,0,.268-.269v-.537a4.275,4.275,0,0,0-.895-2.954c.626-.179.447-.179.268,0a.4.4,0,0,0,0,.447,3.729,3.729,0,0,1,.716,2.6v.537h.537v-.179a3.828,3.828,0,0,1,.269-1.521,3.627,3.627,0,0,1,.447-.805,1.134,1.134,0,0,1,.806-.358l-.09-.269-.268-.089a10.33,10.33,0,0,0-.627,3.58h.627v-.089a1.838,1.838,0,0,1,.358-1.164,2.472,2.472,0,0,1,1.88-.984v-.269l-.179-.269s-.447.358-.984.9a3.446,3.446,0,0,0-.984,2.148v.179h.268l.269-.09c0-.089-.089-.358-.537-.537a4.644,4.644,0,0,0-2.059-.358h-.268a12.156,12.156,0,0,0-1.342.09c-.358.09-.716.09-.985.179-.179.09-.268.09-.358.179l-.179.179a.329.329,0,0,0-.09.269c0,.089,0,.179.09.179a.277.277,0,0,0,.179.09c.089,0,.179,0,.179-.09a.277.277,0,0,0,.09-.179,3.694,3.694,0,0,0-.984-2.238,3.338,3.338,0,0,0-.985-.9l-.179.269v.269a2.472,2.472,0,0,1,1.88.984,2.4,2.4,0,0,1,.358,1.164v.089h.627a11.688,11.688,0,0,0-.626-3.58l-.269.089-.089.269a2.211,2.211,0,0,1,.805.358,2.774,2.774,0,0,1,.537,1.163,5.59,5.59,0,0,1,.089,1.074v.179h.627v-.537a5.3,5.3,0,0,1,.358-2.059,1.956,1.956,0,0,1,.269-.448l.089-.089h0a.4.4,0,0,0,0-.448c.089-.089-.09-.089-.269.09" transform="translate(-11.653 8.908)"/></g></g><g transform="translate(0 0)"><g class="e" transform="translate(0 52.016)"><path class="c" d="M107.8,72.136c1.432,0,2.6-.234,2.6-.468,0-.292-1.164-.468-2.6-.468s-2.6.234-2.6.468,1.164.468,2.6.468" transform="translate(-11.941 -19.209)"/></g></g><g transform="translate(0 0)"><g class="a"><path class="b" d="M107.774,72.621v.09a10.285,10.285,0,0,0,1.88-.179,4.362,4.362,0,0,0,.626-.269c.179-.089.269-.179.269-.358s-.09-.269-.269-.358a5.407,5.407,0,0,0-2.506-.448,10.285,10.285,0,0,0-1.88.179,4.362,4.362,0,0,0-.626.269c-.179.089-.269.179-.269.358s.09.269.269.358a5.407,5.407,0,0,0,2.506.448v-.179a9.232,9.232,0,0,1-1.79-.179,3.52,3.52,0,0,0-.537-.179L105.269,72s0-.09.179-.179a4.574,4.574,0,0,1,2.327-.448,9.232,9.232,0,0,1,1.79.179,3.52,3.52,0,0,0,.537.179l.179.179s0,.09-.179.179a4.574,4.574,0,0,1-2.327.448Z" transform="translate(-11.92 8.376)"/></g></g><g transform="translate(0 0)"><g class="a"><path class="c" d="M107.6,66.4s-.984.895-.806,3.312c0,0,.179-2.864-1.7-3.133a10.118,10.118,0,0,1,.626,3.491s.269-2.238-2.416-2.6c0,0,1.7,1.432,1.7,3.043,0,0,.448-.716,2.775-.716,2.237.09,2.864.716,2.864.716l-.179-.089c-.09-1.611,1.611-2.954,1.611-2.954-2.685.358-2.416,2.506-2.416,2.506a9.3,9.3,0,0,1,.626-3.4c-1.879.358-1.7,3.133-1.7,3.133A4.791,4.791,0,0,0,107.6,66.4" transform="translate(-11.741 8.87)"/></g></g><g transform="translate(0 0)"><g class="a"><path class="b" d="M110.807,70.984c0-.179-.089-.269-.268-.448A6.075,6.075,0,0,0,107.854,70a6.757,6.757,0,0,0-2.059.269,4.363,4.363,0,0,0-.627.269.492.492,0,0,0-.268.448l.179.09.089-.09s0-.09.179-.179a5.581,5.581,0,0,1,2.6-.447,5.784,5.784,0,0,1,1.969.269,1.457,1.457,0,0,1,.537.269l.179.179.179.089Z" transform="translate(-11.909 8.492)"/></g></g><g transform="translate(0 0)"><g class="a"><path class="c" d="M26.839,120.506a3.677,3.677,0,0,0-2.327-.805,2.336,2.336,0,0,0-1.611.537,4.8,4.8,0,0,0-.985,3.491,4.278,4.278,0,0,0,.806,3.043,2.7,2.7,0,0,0,1.79.627,2.6,2.6,0,0,0,1.253-.269v-2.417h-1.7l-.268-1.79h4.3v5.191a7.774,7.774,0,0,1-3.67.984,4.506,4.506,0,0,1-3.759-1.611,6.483,6.483,0,0,1,1.163-8.681A4.536,4.536,0,0,1,24.512,118,5.208,5.208,0,0,1,28,119.253Z" transform="translate(-2.943 3.451)"/></g></g><g transform="translate(0 0)"><g class="a"><path class="c" d="M33.248,119.358v6.175c0,1.342,0,1.521.179,1.79.089.179.268.179.447.179h.268l.358,1.253a2.845,2.845,0,0,1-1.253.179,1.978,1.978,0,0,1-1.88-1.074c-.179-.358-.179-.626-.179-1.79v-5.907a18.771,18.771,0,0,0-.09-2.416l2.238-.448a11.537,11.537,0,0,0-.089,2.059" transform="translate(-4.16 3.525)"/></g></g><g transform="translate(0 0)"><g class="a"><path class="c" d="M37.232,121.547a5.253,5.253,0,0,1,2.237-.447,2.769,2.769,0,0,1,2.685,1.342,4.172,4.172,0,0,1,.179,1.432l-.089,2.685v.179a1.562,1.562,0,0,0,.806,1.611L41.886,129.6a1.853,1.853,0,0,1-1.164-.984c-.179.179-.358.269-.537.448a2.862,2.862,0,0,1-1.611.447c-1.79,0-2.774-.9-2.774-2.506,0-1.88,1.343-2.774,3.938-2.774h.447v-.358c0-.895-.179-1.164-.984-1.164a4.476,4.476,0,0,0-2.327.9l-.9-1.521a8.728,8.728,0,0,1,1.253-.537m2.774,4.207c-1.521,0-1.969.269-1.969,1.164a.965.965,0,0,0,.984,1.074,1.733,1.733,0,0,0,1.163-.537v-1.7Z" transform="translate(-4.654 3.126)"/></g></g><g transform="translate(0 0)"><g class="a"><path class="c" d="M49.907,123.159a3.924,3.924,0,0,0-2.059-.537c-.626,0-1.074.269-1.074.806,0,.448.268.626.984.806l.984.269a2.6,2.6,0,0,1,1.611.895,2.2,2.2,0,0,1,.448,1.342c0,1.611-1.432,2.775-3.491,2.775a7.1,7.1,0,0,1-3.312-.9l.806-1.521a6.36,6.36,0,0,0,2.685.9c.626,0,1.074-.358,1.074-.9s-.358-.805-1.253-.984l-.985-.179a2.784,2.784,0,0,1-1.521-.806,2.476,2.476,0,0,1-.447-1.432c0-1.521,1.253-2.6,3.132-2.6a6.5,6.5,0,0,1,2.953.716Z" transform="translate(-5.515 3.126)"/></g></g><g transform="translate(0 0)"><g class="a"><path class="c" d="M61.26,122.011a1.963,1.963,0,0,1-1.522.626c-.179,0-.447,0-.537-.09a1.758,1.758,0,0,1,.448,1.343c0,1.342-1.253,2.327-3.043,2.327h-.358c-.537.269-.895.448-.895.626,0,.09.089.179.358.179h1.163a3.366,3.366,0,0,1,2.506.716,2.292,2.292,0,0,1,.716,1.7,2.03,2.03,0,0,1-.626,1.611,4.634,4.634,0,0,1-3.222.984,4.639,4.639,0,0,1-3.132-.895,1.868,1.868,0,0,1-.716-1.432,1.513,1.513,0,0,1,.179-.805h2.148a.969.969,0,0,0-.089.537c0,.626.537.985,1.521.985a2.989,2.989,0,0,0,1.342-.269.86.86,0,0,0,.537-.805c0-.716-.626-.9-1.521-.984h-.9a4.824,4.824,0,0,1-1.969-.269,1.052,1.052,0,0,1-.626-1.074c0-.537.179-.984,1.521-1.342a2.082,2.082,0,0,1-1.79-2.237c0-1.611,1.343-2.685,3.491-2.685a8.924,8.924,0,0,1,1.432.179,5.843,5.843,0,0,0,.985.179,2.618,2.618,0,0,0,1.7-.716Zm-6.354,1.7a1.106,1.106,0,0,0,1.253,1.164,1.183,1.183,0,0,0,1.342-1.164c0-.716-.447-1.164-1.342-1.164a1.108,1.108,0,0,0-1.253,1.164" transform="translate(-6.397 3.2)"/></g></g><g transform="translate(0 0)"><g class="a"><path class="c" d="M68.654,122.253a4.109,4.109,0,0,1,.985,2.864,4.434,4.434,0,0,1-.985,3.043,3.256,3.256,0,0,1-2.685,1.074c-2.237,0-3.669-1.611-3.669-4.117S63.732,121,65.969,121a3.807,3.807,0,0,1,2.685,1.253m-3.848,1.163a4.988,4.988,0,0,0-.179,1.79,5.124,5.124,0,0,0,.269,1.969,1.085,1.085,0,0,0,1.074.627c.9,0,1.342-.806,1.342-2.685a3.818,3.818,0,0,0-.447-2.148,1.1,1.1,0,0,0-.9-.447,1.261,1.261,0,0,0-1.163.9" transform="translate(-7.437 3.137)"/></g></g><g transform="translate(0 0)"><g class="a"><path class="c" d="M72.758,121.2l.716,3.043c.179.895.448,2.506.448,2.506a16.546,16.546,0,0,1,.626-2.775l.716-2.685h1.969l.626,2.6c.358,1.432.627,2.774.627,2.774.089-.358.179-1.611.447-2.6l.627-2.864H81.8l-2.327,7.966H77.5l-.716-2.775c-.179-.626-.358-1.432-.448-1.879a2.478,2.478,0,0,1-.09-.806c-.09.358-.09.448-.179.984-.179.716-.537,2.059-.716,2.775l-.448,1.611H72.937L70.7,121.29Z" transform="translate(-8.318 3.116)"/></g></g></g></g></svg>