<svg xmlns="http://www.w3.org/2000/svg" width="66" height="66" viewBox="0 0 66 66"><defs><style>.a{fill:#98999b;}.b{fill:#d6001c;}</style></defs><g transform="translate(5.5)"><path class="a" d="M56.5,0A16.5,16.5,0,0,0,40,16.5V28.6a7.709,7.709,0,0,0,7.7,7.7h1.1V34.1H47.7a5.507,5.507,0,0,1-5.5-5.5V16.5a14.3,14.3,0,0,1,28.6,0V28.6a5.507,5.507,0,0,1-5.5,5.5H64.2v2.2h1.1A7.709,7.709,0,0,0,73,28.6V16.5A16.5,16.5,0,0,0,56.5,0Z" transform="translate(-40)"/></g><g transform="translate(5.5 49.397)"><path class="a" d="M43.567,361.693l.8-1.266-1.858-1.179-.8,1.267a10.965,10.965,0,0,0,.454,12.411v2.925h2.2v-3.3a1.1,1.1,0,0,0-.241-.687A8.764,8.764,0,0,1,43.567,361.693Z" transform="translate(-40.003 -359.248)"/></g><g transform="translate(34.131 49.397)"><path class="a" d="M250.886,360.515l-.8-1.267-1.858,1.179.8,1.267a8.761,8.761,0,0,1-.555,10.17,1.1,1.1,0,0,0-.241.688v3.3h2.2v-2.925A10.965,10.965,0,0,0,250.886,360.515Z" transform="translate(-248.224 -359.248)"/></g><g transform="translate(0 9.604)"><path class="b" d="M64.9,97.643H55a7.7,7.7,0,0,0-7.685,7.386L44,111v-4.555a7.709,7.709,0,0,0-7.7-7.7H32.279l-.03-.023-.02.023H29.7a2.2,2.2,0,0,1-2.2-2.2V93.954A11,11,0,0,0,33,84.443v-8.8a11.023,11.023,0,0,0-1.32-5.221,1.1,1.1,0,0,0-1.43-.473L11.631,78.71a1.1,1.1,0,0,0-.631,1v4.738a11,11,0,0,0,5.5,9.512v2.588a2.2,2.2,0,0,1-2.2,2.2H7.7a7.709,7.709,0,0,0-7.7,7.7v19.8H2.2v-19.8a5.507,5.507,0,0,1,5.5-5.5h3.5l9.906,13.84a1.1,1.1,0,0,0,.88.46H22a1.1,1.1,0,0,0,.88-.44l10.45-13.86H36.3a5.507,5.507,0,0,1,5.5,5.5v8.8a1.1,1.1,0,0,0,2.061.534l5.185-9.334h6.306l-10.725,19.8h2.5l10.729-19.8h.44a7.709,7.709,0,0,0,7.7-7.7A1.1,1.1,0,0,0,64.9,97.643Zm-51.7-13.2V80.4l16.985-7.993a8.8,8.8,0,0,1,.615,3.232v8.8a8.8,8.8,0,1,1-17.6,0Zm8.823,27.843-3.395-4.743H25.6Zm5.239-6.943H17.05l-3.149-4.4h.4a4.4,4.4,0,0,0,4.4-4.4V94.936a10.992,10.992,0,0,0,6.6,0v1.607a4.4,4.4,0,0,0,4.4,4.4h.88Zm31.038-1.1H49.61a5.509,5.509,0,0,1,5.39-4.4h8.69A5.509,5.509,0,0,1,58.3,104.243Z" transform="translate(0 -69.847)"/></g></svg>