<svg xmlns="http://www.w3.org/2000/svg" width="9.844" height="9.844" viewBox="0 0 9.844 9.844"><defs><style>.a{fill:#75787b;fill-rule:evenodd;}</style></defs><path class="a" d="M4.922,9.228A4.307,4.307,0,1,0,.615,4.922,4.307,4.307,0,0,0,4.922,9.228ZM9.844,4.922A4.922,4.922,0,1,1,4.922,0,4.922,4.922,0,0,1,9.844,4.922Z"/><path class="a" d="M7.308,3a.308.308,0,0,1,.308.308V6.513l2,1.142a.308.308,0,0,1-.305.534L7.155,6.958A.308.308,0,0,1,7,6.691V3.308A.308.308,0,0,1,7.308,3Z" transform="translate(-2.693 -1.154)"/></svg>