<svg xmlns="http://www.w3.org/2000/svg" width="9.466" height="9.466" viewBox="0 0 9.466 9.466"><defs><style>.a{fill:#75787b;fill-rule:evenodd;}</style></defs><path class="a" d="M8.283,0h-7.1A1.183,1.183,0,0,0,0,1.183v7.1A1.183,1.183,0,0,0,1.183,9.466h7.1A1.183,1.183,0,0,0,9.466,8.283v-7.1A1.183,1.183,0,0,0,8.283,0ZM.592,2.282a.554.554,0,0,1,.592-.507h7.1a.554.554,0,0,1,.592.507V8.367a.554.554,0,0,1-.592.507h-7.1a.554.554,0,0,1-.592-.507Z" transform="translate(0)"/><path class="a" d="M4.866,6.183a.592.592,0,1,0-.592-.592A.592.592,0,0,0,4.866,6.183Zm1.775,0a.592.592,0,1,0-.592-.592A.592.592,0,0,0,6.641,6.183Zm1.775,0a.592.592,0,1,0-.592-.592A.592.592,0,0,0,8.416,6.183ZM3.092,7.958A.592.592,0,1,0,2.5,7.366.592.592,0,0,0,3.092,7.958Zm1.775,0a.592.592,0,1,0-.592-.592A.592.592,0,0,0,4.866,7.958Zm1.775,0a.592.592,0,1,0-.592-.592A.592.592,0,0,0,6.641,7.958Zm1.775,0a.592.592,0,1,0-.592-.592A.592.592,0,0,0,8.416,7.958ZM3.092,9.733A.592.592,0,1,0,2.5,9.141.592.592,0,0,0,3.092,9.733Zm1.775,0a.592.592,0,1,0-.592-.592A.592.592,0,0,0,4.866,9.733Zm1.775,0a.592.592,0,1,0-.592-.592A.592.592,0,0,0,6.641,9.733Z" transform="translate(-1.021 -2.042)"/></svg>