<svg xmlns="http://www.w3.org/2000/svg" width="61.648" height="64" viewBox="0 0 61.648 64"><defs><style>.a{fill:none;stroke:#d6001c;stroke-linecap:round;stroke-linejoin:round;stroke-width:2px;}.b{fill:#98999b;}.c{fill:#d6001c;}</style></defs><g transform="translate(-8.853 -0.001)"><g transform="translate(16.293 0.228)"><path class="a" d="M-221.856-308.672s1.888-17.622-5.79-27.817c3.4,2.14,7.049,2.9,8.559,0,1.762,2.014,4.405,3.9,9.063.629-2.266,5.287-6.294,5.664-5.916,27.188" transform="translate(242.648 362.169)"/><path class="b" d="M88.237,1.707c-13.112,0-23.384,9.493-23.384,21.612,0,5.757,2.285,13.378,5.964,19.89.661,1.17,1.523,2.4,2.437,3.7,1.842,2.627,3.888,5.565,4.273,8.169A3.05,3.05,0,0,0,75.482,58a3.14,3.14,0,0,0,.855,2.133,3.177,3.177,0,0,0,2.334,5.345H97.8a3.178,3.178,0,0,0,2.329-5.352,3.251,3.251,0,0,0,.86-2.2,3.006,3.006,0,0,0-2.045-2.848c.385-2.6,2.432-5.542,4.273-8.168.913-1.3,1.776-2.532,2.437-3.7,3.679-6.511,5.964-14.133,5.964-19.89C111.62,11.2,101.349,1.707,88.237,1.707ZM97.8,63.355H78.671a1.063,1.063,0,0,1,0-2.126H97.8a1.063,1.063,0,1,1,0,2.126ZM97.646,59.1H78.827a1.179,1.179,0,0,1-1.219-1.137c0-.013,0-.027,0-.04,0-.652.632-.949,1.22-.949H97.646c.588,0,1.22.3,1.22,1.024A1.167,1.167,0,0,1,97.646,59.1Zm6.159-16.941c-.61,1.081-1.444,2.269-2.326,3.527-2,2.845-4.229,6.031-4.664,9.162H79.658c-.435-3.132-2.669-6.317-4.664-9.162-.882-1.258-1.716-2.447-2.326-3.527-3.456-6.117-5.689-13.513-5.689-18.843,0-10.927,9.338-19.486,21.258-19.486s21.258,8.559,21.258,19.486C109.494,28.649,107.261,36.045,103.805,42.162Z" transform="translate(-64.853 -1.707)"/></g><g transform="translate(66.249 21.486)"><rect class="c" width="4.252" height="2.126"/></g><g transform="translate(8.853 21.486)"><rect class="c" width="4.252" height="2.126"/></g><g transform="translate(60.365 41.984)"><rect class="c" width="2.126" height="4.252" transform="matrix(0.707, -0.707, 0.707, 0.707, 0, 1.503)"/></g><g transform="translate(17.129 0.001)"><g transform="translate(0)"><rect class="c" width="2.126" height="4.252" transform="translate(0 1.503) rotate(-45)"/></g></g><g transform="translate(58.599 0.543)"><rect class="c" width="4.252" height="2.126" transform="translate(0 3.006) rotate(-45)"/></g><g transform="translate(14.66 42.176)"><rect class="c" width="4.252" height="2.126" transform="matrix(0.707, -0.707, 0.707, 0.707, 0, 3.006)"/></g></g></svg>